<?xml version="1.0" encoding="UTF-8" standalone="no"?>
<!DOCTYPE svg PUBLIC "-//W3C//DTD SVG 1.1//EN" "http://www.w3.org/Graphics/SVG/1.1/DTD/svg11.dtd">
<svg width="100%" height="100%" viewBox="0 0 1024 600" version="1.1" xmlns="http://www.w3.org/2000/svg" xmlns:xlink="http://www.w3.org/1999/xlink" xml:space="preserve" style="fill-rule:evenodd;clip-rule:evenodd;stroke-linecap:round;stroke-linejoin:round;stroke-miterlimit:1.5;">
    <rect id="background" x="0" y="0" width="1024" height="600" style="fill:rgb(112,174,69);stroke:rgb(112,174,69);stroke-width:1px;"/>
    <g id="logo" transform="matrix(0.09375,0,0,0.09375,512,198)">
        <g transform="matrix(1,0,0,1,-800,-768)">
            <clipPath id="_clip1">
                <rect x="0" y="0" width="1600" height="1536"/>
            </clipPath>
            <g clip-path="url(#_clip1)">
                <path d="M257.021,320.962C257.021,338.295 250.687,353.295 238.021,365.962C225.354,378.629 210.354,384.962 193.021,384.962C175.021,384.962 159.854,378.629 147.521,365.962C135.187,353.295 129.021,338.295 129.021,320.962C129.021,302.962 135.187,287.795 147.521,275.462C159.854,263.129 175.021,256.962 193.021,256.962C210.354,256.962 225.354,263.129 238.021,275.462C250.687,287.795 257.021,302.962 257.021,320.962ZM417.021,832.962L417.021,192.962C417.021,175.629 410.687,160.629 398.021,147.962C385.354,135.295 370.354,128.962 353.021,128.962L65.021,128.962C47.687,128.962 32.687,135.295 20.021,147.962C7.354,160.629 1.021,175.629 1.021,192.962L1.021,832.962C1.021,850.295 7.354,865.295 20.021,877.962C32.687,890.629 47.687,896.962 65.021,896.962L353.021,896.962C370.354,896.962 385.354,890.629 398.021,877.962C410.687,865.295 417.021,850.295 417.021,832.962ZM1546.02,683.962C1582.69,724.629 1601.02,774.295 1601.02,832.962C1600.35,884.962 1581.19,929.962 1543.52,967.962C1505.85,1005.96 1461.02,1024.96 1409.02,1024.96L1132.02,1024.96C1134.69,1034.3 1137.35,1042.3 1140.02,1048.96C1142.69,1055.63 1146.35,1062.96 1151.02,1070.96C1155.69,1078.96 1159.02,1084.96 1161.02,1088.96C1173.02,1113.63 1182.02,1132.63 1188.02,1145.96C1194.02,1159.3 1200.35,1178.8 1207.02,1204.46C1213.69,1230.13 1217.02,1255.63 1217.02,1280.96C1217.02,1296.96 1216.85,1309.96 1216.52,1319.96C1216.19,1329.96 1214.52,1344.96 1211.52,1364.96C1208.52,1384.96 1204.52,1401.63 1199.52,1414.96C1194.52,1428.3 1186.52,1443.3 1175.52,1459.96C1164.52,1476.63 1151.19,1490.13 1135.52,1500.46C1119.85,1510.8 1099.85,1519.46 1075.52,1526.46C1051.19,1533.46 1023.69,1536.96 993.021,1536.96C975.687,1536.96 960.687,1530.63 948.021,1517.96C934.687,1504.63 923.354,1487.96 914.021,1467.96C904.687,1447.96 898.187,1430.63 894.521,1415.96C890.854,1401.3 886.687,1380.96 882.021,1354.96C876.021,1326.96 871.521,1306.8 868.521,1294.46C865.521,1282.13 859.687,1265.96 851.021,1245.96C842.354,1225.96 832.021,1209.96 820.021,1197.96C798.021,1175.96 764.354,1135.96 719.021,1077.96C686.354,1035.3 652.687,994.962 618.021,956.962C583.354,918.962 558.021,899.295 542.021,897.962C525.354,896.629 511.021,889.795 499.021,877.462C487.021,865.129 481.021,850.629 481.021,833.962L481.021,192.962C481.021,175.629 487.354,160.795 500.021,148.462C512.687,136.129 527.687,129.629 545.021,128.962C568.354,128.295 621.021,113.629 703.021,84.962C754.354,67.629 794.521,54.462 823.521,45.462C852.521,36.462 893.021,26.795 945.021,16.462C997.021,6.129 1045.02,0.962 1089.02,0.962L1218.02,0.962C1306.69,2.295 1372.35,28.295 1415.02,78.962C1453.69,124.962 1470.02,185.295 1464.02,259.962C1490.02,284.629 1508.02,315.962 1518.02,353.962C1529.35,394.629 1529.35,433.629 1518.02,470.962C1548.69,511.629 1563.02,557.295 1561.02,607.962C1561.02,629.295 1556.02,654.629 1546.02,683.962Z" style="fill:white;fill-rule:nonzero;"/>
            </g>
        </g>
    </g>
    <g id="ja">
        <g id="title" transform="matrix(1,0,0,1,-12.0336,22.6371)">
            <path d="M455.889,297.313C455.889,299.353 454.839,300.373 452.649,300.373C449.799,300.373 448.149,299.473 448.149,297.823C448.149,296.203 449.889,295.153 452.949,295.153C453.939,295.153 454.899,295.243 455.859,295.453C455.859,296.203 455.889,296.833 455.889,297.313ZM457.899,286.093C460.329,286.033 464.139,285.853 466.779,285.613L466.689,283.333C464.019,283.693 460.269,283.843 457.899,283.903C457.899,282.733 457.869,281.683 457.899,280.873C457.929,279.973 458.019,278.563 458.139,277.933L455.259,277.933C455.379,278.503 455.469,279.793 455.499,280.873C455.529,282.133 455.529,284.593 455.529,286.303C455.529,288.073 455.649,290.803 455.769,293.203C454.929,293.083 454.089,293.023 453.249,293.023C448.119,293.023 445.779,295.243 445.779,297.913C445.779,301.303 448.809,302.623 452.889,302.623C456.849,302.623 458.349,300.523 458.349,298.093C458.349,297.553 458.319,296.893 458.289,296.113C461.379,297.193 464.109,299.083 465.999,301.003L467.439,298.783C465.279,296.833 462.009,294.763 458.199,293.713C458.049,291.133 457.899,288.253 457.899,286.303L457.899,286.093Z" style="fill:white;fill-rule:nonzero;"/>
            <path d="M490.719,277.363C490.389,277.903 489.609,278.743 489.009,279.343C486.999,281.383 482.499,284.923 480.279,286.813C477.579,289.063 477.279,290.413 480.069,292.753C482.859,295.033 487.809,299.263 489.429,301.003C490.059,301.693 490.869,302.443 491.469,303.163L493.629,301.213C490.719,298.333 485.229,293.773 482.529,291.613C480.609,290.023 480.609,289.573 482.409,288.013C484.599,286.213 488.859,282.793 490.929,281.023C491.409,280.603 492.309,279.823 492.969,279.343L490.719,277.363Z" style="fill:white;fill-rule:nonzero;"/>
            <path d="M529.719,285.673C528.309,284.593 524.919,282.673 522.759,281.713L521.589,283.573C523.569,284.473 526.779,286.303 528.369,287.653L529.719,285.673ZM518.919,281.173C517.419,281.653 515.859,282.013 514.299,282.253C514.779,280.543 515.169,278.743 515.469,277.663L512.799,277.423C512.739,279.013 512.319,280.903 511.869,282.553C510.729,282.643 509.619,282.703 508.569,282.703C507.279,282.703 506.019,282.643 504.909,282.493L505.089,284.743C506.199,284.803 507.429,284.833 508.539,284.833C509.409,284.833 510.279,284.803 511.149,284.743C509.799,288.223 507.279,292.963 504.789,295.843L507.129,297.043C509.499,293.833 512.139,288.673 513.609,284.473C515.559,284.233 517.419,283.843 518.979,283.393L518.919,281.173ZM520.479,297.763C520.479,299.233 519.669,300.583 517.239,300.583C514.929,300.583 513.819,299.653 513.819,298.273C513.819,296.923 515.259,295.933 517.449,295.933C518.499,295.933 519.519,296.083 520.449,296.353C520.479,296.893 520.479,297.373 520.479,297.763ZM520.059,286.843C520.119,288.913 520.269,291.823 520.359,294.253C519.489,294.073 518.529,293.983 517.539,293.983C514.179,293.983 511.599,295.753 511.599,298.483C511.599,301.423 514.269,302.773 517.539,302.773C521.199,302.773 522.759,300.823 522.759,298.453C522.759,298.123 522.759,297.703 522.729,297.253C524.649,298.183 526.239,299.503 527.499,300.643L528.789,298.603C527.259,297.283 525.189,295.813 522.639,294.883C522.579,293.083 522.459,291.133 522.429,290.053C522.399,288.943 522.369,288.073 522.459,286.843L520.059,286.843Z" style="fill:white;fill-rule:nonzero;"/>
            <path d="M538.659,280.513L535.779,280.453C535.929,281.173 535.959,282.403 535.959,283.093C535.959,284.833 535.989,288.433 536.289,291.013C537.099,298.723 539.799,301.513 542.589,301.513C544.629,301.513 546.459,299.803 548.229,294.763L546.339,292.603C545.559,295.603 544.179,298.663 542.649,298.663C540.549,298.663 539.109,295.393 538.629,290.413C538.419,287.983 538.389,285.253 538.419,283.393C538.449,282.613 538.539,281.233 538.659,280.513ZM554.139,281.323L551.799,282.133C554.619,285.613 556.419,291.493 556.929,296.833L559.359,295.873C558.939,290.863 556.809,284.773 554.139,281.323Z" style="fill:white;fill-rule:nonzero;"/>
            <path d="M581.109,299.443C579.429,299.443 578.079,298.783 578.079,297.253C578.079,296.053 579.429,295.183 580.959,295.183C582.369,295.183 583.719,295.573 585.009,296.263C584.349,298.213 583.179,299.443 581.109,299.443ZM572.979,282.163L572.829,282.223C573.039,280.153 573.279,278.473 573.429,277.753L570.579,277.663C570.729,278.413 570.699,279.193 570.699,279.883C570.699,280.213 570.639,281.293 570.549,282.673C569.019,282.943 567.279,283.123 566.319,283.183C565.599,283.213 565.029,283.243 564.369,283.213L564.609,285.673C566.469,285.433 569.049,285.073 570.399,284.923C570.339,285.853 570.279,286.813 570.219,287.773C568.719,290.113 565.299,294.733 563.649,296.803L565.149,298.873C566.589,296.893 568.539,294.043 569.979,291.853C569.979,292.303 569.949,292.693 569.949,292.993C569.889,296.293 569.889,297.763 569.859,300.613C569.859,301.093 569.799,301.963 569.769,302.383L572.379,302.383C572.319,301.843 572.259,301.093 572.229,300.583C572.109,297.913 572.109,296.113 572.109,293.413C572.109,292.273 572.139,290.953 572.229,289.603C574.839,286.813 578.679,283.963 581.439,283.963C583.899,283.963 585.729,286.243 585.729,289.963C585.729,291.463 585.669,292.873 585.489,294.133C584.199,293.563 582.759,293.233 581.169,293.233C578.139,293.233 576.009,294.973 576.009,297.343C576.009,300.343 578.409,301.573 581.259,301.573C584.259,301.573 586.029,300.133 587.019,297.613C587.889,298.333 588.789,299.203 589.659,300.193L590.919,298.243C589.899,297.163 588.819,296.173 587.619,295.333C587.889,293.893 588.009,292.243 588.009,290.383C588.009,285.463 585.879,281.863 581.859,281.863C578.619,281.863 574.929,284.503 572.409,286.753C572.439,286.243 572.499,285.763 572.529,285.283C572.979,284.563 573.489,283.753 573.849,283.213L572.979,282.163Z" style="fill:white;fill-rule:nonzero;"/>
            <path d="M597.699,294.073C595.209,294.073 593.139,296.113 593.139,298.633C593.139,301.153 595.209,303.223 597.699,303.223C600.249,303.223 602.289,301.153 602.289,298.633C602.289,296.113 600.249,294.073 597.699,294.073ZM597.699,301.693C596.049,301.693 594.669,300.343 594.669,298.633C594.669,296.983 596.049,295.603 597.699,295.603C599.409,295.603 600.729,296.983 600.729,298.633C600.729,300.343 599.409,301.693 597.699,301.693Z" style="fill:white;fill-rule:nonzero;"/>
        </g>
        <g id="desc" transform="matrix(1,0,0,1,-49.4261,26.6933)">
            <path d="M451.036,331.105L450.216,331.065C450.296,331.385 450.296,332.205 450.296,332.585C450.296,333.685 450.336,336.165 450.516,337.765C451.056,342.725 452.776,344.525 454.336,344.525C455.436,344.525 456.616,343.425 457.696,340.165L457.156,339.705C456.496,342.105 455.436,343.865 454.356,343.865C452.776,343.865 451.476,341.465 451.096,337.685C450.936,335.865 450.896,333.705 450.936,332.525C450.956,332.045 450.996,331.345 451.036,331.105ZM461.756,331.745L461.156,331.985C462.756,334.165 464.116,337.365 464.496,341.305L465.116,341.045C464.736,337.385 463.416,334.065 461.756,331.745Z" style="fill:white;fill-rule:nonzero;"/>
            <path d="M471.036,331.105L470.216,331.065C470.296,331.385 470.296,332.205 470.296,332.585C470.296,333.685 470.336,336.165 470.516,337.765C471.056,342.725 472.776,344.525 474.336,344.525C475.436,344.525 476.616,343.425 477.696,340.165L477.156,339.705C476.496,342.105 475.436,343.865 474.356,343.865C472.776,343.865 471.476,341.465 471.096,337.685C470.936,335.865 470.896,333.705 470.936,332.525C470.956,332.045 470.996,331.345 471.036,331.105ZM481.756,331.745L481.156,331.985C482.756,334.165 484.116,337.365 484.496,341.305L485.116,341.045C484.736,337.385 483.416,334.065 481.756,331.745Z" style="fill:white;fill-rule:nonzero;"/>
            <path d="M500.036,343.885C498.656,343.885 497.556,343.305 497.556,342.045C497.556,341.065 498.656,340.285 499.876,340.285C501.116,340.285 502.196,340.605 503.236,341.245C502.776,342.845 501.856,343.885 500.036,343.885ZM494.216,332.385C494.136,332.405 494.056,332.425 493.956,332.465C494.096,330.885 494.236,329.645 494.316,329.245L493.436,329.205C493.496,329.585 493.496,330.025 493.496,330.365C493.496,330.585 493.436,331.445 493.356,332.585C492.236,332.785 490.676,332.965 490.016,333.005C489.756,333.025 489.456,333.045 489.136,333.025L489.216,333.765C490.576,333.565 492.516,333.325 493.316,333.205C493.276,333.965 493.216,334.825 493.156,335.665C492.276,337.105 489.736,340.645 488.636,342.025L489.096,342.605C490.376,340.785 492.076,338.425 493.096,336.825C493.016,338.105 492.956,339.225 492.956,339.785L492.956,344.225C492.956,344.545 492.916,344.965 492.896,345.105L493.656,345.105C493.636,344.805 493.616,344.545 493.596,344.205C493.536,342.525 493.556,341.785 493.556,339.785C493.556,338.865 493.596,337.745 493.656,336.605C495.496,334.665 498.556,332.665 500.416,332.665C502.176,332.665 503.636,334.285 503.636,337.145C503.636,338.385 503.576,339.585 503.376,340.585C502.376,340.025 501.256,339.685 499.936,339.685C498.276,339.685 496.956,340.665 496.956,342.085C496.956,343.845 498.476,344.485 500.076,344.485C502.056,344.485 503.196,343.485 503.776,341.605C504.476,342.105 505.176,342.745 505.896,343.525L506.296,342.985C505.536,342.205 504.776,341.485 503.936,340.945C504.136,339.965 504.236,338.805 504.236,337.485C504.236,334.565 503.076,332.085 500.536,332.085C498.216,332.085 495.416,334.185 493.716,335.725C493.736,335.145 493.796,334.565 493.836,334.005C494.076,333.565 494.356,333.125 494.596,332.765L494.216,332.385Z" style="fill:white;fill-rule:nonzero;"/>
            <path d="M528.236,332.925C527.796,332.045 527.056,330.865 526.536,330.165L525.996,330.425C526.536,331.165 527.296,332.405 527.676,333.205L528.236,332.925ZM521.856,336.285C523.036,336.165 524.236,336.085 525.356,336.085C526.476,336.085 527.596,336.165 528.616,336.305L528.656,335.645C527.676,335.525 526.456,335.485 525.276,335.485C524.016,335.485 522.816,335.545 521.856,335.625L521.856,336.285ZM522.856,332.245C521.556,332.605 520.036,332.865 518.616,333.025C518.776,332.225 518.916,331.485 519.036,330.845C519.096,330.505 519.216,329.905 519.316,329.585L518.496,329.505C518.516,329.865 518.476,330.385 518.416,330.765C518.356,331.205 518.176,332.085 517.976,333.085C517.076,333.165 516.256,333.205 515.556,333.205C514.916,333.205 514.136,333.185 513.296,333.065L513.316,333.725C514.056,333.785 514.736,333.805 515.516,333.805C516.216,333.805 516.996,333.765 517.836,333.685C517.656,334.585 517.436,335.505 517.236,336.265C516.496,339.085 515.216,342.985 514.016,345.085L514.776,345.325C515.776,343.345 517.116,339.205 517.836,336.345C518.096,335.445 518.296,334.505 518.476,333.625C519.916,333.485 521.456,333.225 522.856,332.925L522.856,332.245ZM521.036,340.225C520.856,341.125 520.776,341.665 520.776,342.245C520.776,344.165 522.356,344.965 525.256,344.965C526.556,344.965 527.876,344.845 528.896,344.685L528.916,343.985C527.896,344.205 526.536,344.345 525.276,344.345C521.776,344.345 521.376,343.205 521.376,342.205C521.376,341.625 521.476,341.025 521.676,340.285L521.036,340.225ZM528.056,329.705C528.636,330.465 529.316,331.565 529.776,332.485L530.336,332.205C529.936,331.405 529.136,330.185 528.576,329.445L528.056,329.705Z" style="fill:white;fill-rule:nonzero;"/>
            <path d="M535.496,329.625C535.496,329.825 535.476,330.205 535.416,330.565C535.196,332.245 534.576,335.285 534.576,338.465C534.576,340.985 535.156,343.385 535.516,344.605L536.036,344.505C536.036,344.365 535.996,344.165 535.976,343.985C535.956,343.745 535.996,343.445 536.036,343.185C536.216,342.345 536.896,340.305 537.256,339.265L536.756,338.985C536.356,340.225 535.896,341.645 535.616,342.705C534.676,338.665 535.296,334.205 536.076,330.665C536.156,330.325 536.236,329.945 536.296,329.705L535.496,329.625ZM549.976,333.285C548.916,333.585 547.736,333.765 546.516,333.865C546.476,332.565 546.416,330.845 546.436,330.425C546.456,329.985 546.436,329.685 546.476,329.465L545.616,329.465C545.676,329.705 545.736,329.985 545.776,330.445C545.816,330.845 545.876,332.605 545.916,333.905C545.016,333.965 544.076,333.985 543.176,333.985C542.096,333.985 540.556,333.885 539.796,333.745L539.796,334.445C540.536,334.525 542.116,334.585 543.156,334.585C544.076,334.585 545.016,334.565 545.936,334.505L545.936,334.985C545.936,339.265 546.076,341.945 543.336,344.065C542.916,344.425 542.276,344.785 541.796,344.965L542.436,345.465C546.876,343.025 546.536,339.425 546.536,334.985L546.536,334.465C547.776,334.365 548.956,334.205 549.976,333.985L549.976,333.285Z" style="fill:white;fill-rule:nonzero;"/>
            <path d="M563.516,331.205L562.976,331.465C563.556,332.265 564.456,333.805 564.876,334.665L565.436,334.385C564.956,333.385 563.956,331.825 563.516,331.205ZM565.996,330.265L565.476,330.525C566.076,331.305 566.996,332.845 567.416,333.685L567.976,333.405C567.476,332.445 566.456,330.865 565.996,330.265ZM556.756,329.585C556.836,329.945 556.856,330.405 556.856,330.925C556.856,333.385 556.636,338.205 556.636,341.425C556.636,344.505 558.476,345.465 560.936,345.465C565.116,345.465 567.436,343.125 568.856,341.265L568.416,340.725C567.016,342.685 564.976,344.865 560.996,344.865C558.836,344.865 557.236,344.005 557.236,341.665C557.236,338.205 557.396,333.265 557.476,330.925C557.496,330.405 557.516,330.045 557.596,329.585L556.756,329.585Z" style="fill:white;fill-rule:nonzero;"/>
            <path d="M582.816,334.385C582.196,333.725 581.196,332.925 580.696,332.545L580.236,332.945C580.976,333.465 581.816,334.205 582.376,334.825L582.816,334.385ZM576.196,334.245C576.416,334.445 576.696,334.865 576.856,335.105C577.096,335.465 577.476,336.205 577.936,337.145C576.836,337.645 575.916,338.085 575.396,338.285C575.096,338.405 574.776,338.525 574.356,338.605L574.756,339.345C575.536,338.985 576.796,338.345 578.196,337.685C578.456,338.265 578.736,338.865 579.016,339.465C579.996,341.685 580.696,344.125 581.216,345.885L581.896,345.665C581.336,343.965 580.536,341.445 579.536,339.225C579.296,338.665 578.996,338.065 578.716,337.445C580.756,336.505 583.016,335.625 584.536,335.625C586.836,335.625 587.416,336.925 587.416,337.905C587.416,339.005 586.816,340.285 584.396,340.285C583.416,340.285 582.516,339.965 581.996,339.705L581.936,340.345C582.496,340.585 583.416,340.845 584.356,340.845C586.856,340.845 587.976,339.585 587.976,337.925C587.976,336.325 586.876,335.045 584.536,335.045C582.916,335.045 580.476,336.005 578.436,336.905C577.996,336.025 577.576,335.185 577.276,334.665C577.116,334.405 576.996,334.205 576.896,333.945L576.196,334.245Z" style="fill:white;fill-rule:nonzero;"/>
            <path d="M612.636,332.925C612.196,332.045 611.456,330.865 610.936,330.165L610.396,330.425C610.936,331.165 611.696,332.405 612.076,333.205L612.636,332.925ZM606.256,336.285C607.436,336.165 608.636,336.085 609.756,336.085C610.876,336.085 611.996,336.165 613.016,336.305L613.056,335.645C612.076,335.525 610.856,335.485 609.676,335.485C608.416,335.485 607.216,335.545 606.256,335.625L606.256,336.285ZM607.256,332.245C605.956,332.605 604.436,332.865 603.016,333.025C603.176,332.225 603.316,331.485 603.436,330.845C603.496,330.505 603.616,329.905 603.716,329.585L602.896,329.505C602.916,329.865 602.876,330.385 602.816,330.765C602.756,331.205 602.576,332.085 602.376,333.085C601.476,333.165 600.656,333.205 599.956,333.205C599.316,333.205 598.536,333.185 597.696,333.065L597.716,333.725C598.456,333.785 599.136,333.805 599.916,333.805C600.616,333.805 601.396,333.765 602.236,333.685C602.056,334.585 601.836,335.505 601.636,336.265C600.896,339.085 599.616,342.985 598.416,345.085L599.176,345.325C600.176,343.345 601.516,339.205 602.236,336.345C602.496,335.445 602.696,334.505 602.876,333.625C604.316,333.485 605.856,333.225 607.256,332.925L607.256,332.245ZM605.436,340.225C605.256,341.125 605.176,341.665 605.176,342.245C605.176,344.165 606.756,344.965 609.656,344.965C610.956,344.965 612.276,344.845 613.296,344.685L613.316,343.985C612.296,344.205 610.936,344.345 609.676,344.345C606.176,344.345 605.776,343.205 605.776,342.205C605.776,341.625 605.876,341.025 606.076,340.285L605.436,340.225ZM612.456,329.705C613.036,330.465 613.716,331.565 614.176,332.485L614.736,332.205C614.336,331.405 613.536,330.185 612.976,329.445L612.456,329.705Z" style="fill:white;fill-rule:nonzero;"/>
            <path d="M627.376,333.025C626.656,335.545 625.616,337.925 624.796,339.285C624.716,339.425 624.616,339.565 624.536,339.705C624.216,339.225 623.936,338.745 623.676,338.265C623.236,337.465 622.616,336.005 622.116,334.625C623.756,333.505 625.476,333.025 627.156,333.025L627.376,333.025ZM620.616,343.005C619.516,343.005 618.796,342.025 618.796,340.385C618.796,338.545 619.916,336.345 621.616,335.005C622.136,336.425 622.736,337.805 623.176,338.605C623.496,339.205 623.836,339.745 624.176,340.245C623.196,341.625 621.856,343.005 620.616,343.005ZM628.056,329.405C628.076,329.825 628.016,330.305 627.976,330.525C627.856,331.165 627.716,331.805 627.536,332.445L627.236,332.445C625.416,332.445 623.616,332.925 621.896,334.045C621.656,333.365 621.456,332.705 621.316,332.205C621.196,331.685 621.036,331.025 620.936,330.605L620.216,330.825C620.356,331.145 620.556,331.805 620.716,332.365C620.896,332.985 621.136,333.685 621.396,334.405C619.616,335.765 618.196,338.125 618.196,340.385C618.196,342.465 619.216,343.605 620.596,343.605C622.076,343.605 623.436,342.285 624.536,340.765C624.956,341.325 625.356,341.825 625.736,342.245L626.216,341.805C625.756,341.365 625.296,340.825 624.896,340.245C625.016,340.065 625.116,339.905 625.236,339.725C626.176,338.245 627.236,335.585 627.956,333.065C631.036,333.405 633.016,335.645 633.016,338.545C633.016,342.185 630.156,344.285 626.236,344.645L626.636,345.205C630.996,344.645 633.636,342.245 633.636,338.545C633.636,335.245 631.356,332.865 628.116,332.485C628.296,331.825 628.456,331.165 628.576,330.565C628.636,330.285 628.696,329.885 628.796,329.465L628.056,329.405Z" style="fill:white;fill-rule:nonzero;"/>
            <path d="M652.636,332.925C652.196,332.045 651.456,330.865 650.936,330.165L650.396,330.425C650.936,331.165 651.696,332.405 652.076,333.205L652.636,332.925ZM646.256,336.285C647.436,336.165 648.636,336.085 649.756,336.085C650.876,336.085 651.996,336.165 653.016,336.305L653.056,335.645C652.076,335.525 650.856,335.485 649.676,335.485C648.416,335.485 647.216,335.545 646.256,335.625L646.256,336.285ZM647.256,332.245C645.956,332.605 644.436,332.865 643.016,333.025C643.176,332.225 643.316,331.485 643.436,330.845C643.496,330.505 643.616,329.905 643.716,329.585L642.896,329.505C642.916,329.865 642.876,330.385 642.816,330.765C642.756,331.205 642.576,332.085 642.376,333.085C641.476,333.165 640.656,333.205 639.956,333.205C639.316,333.205 638.536,333.185 637.696,333.065L637.716,333.725C638.456,333.785 639.136,333.805 639.916,333.805C640.616,333.805 641.396,333.765 642.236,333.685C642.056,334.585 641.836,335.505 641.636,336.265C640.896,339.085 639.616,342.985 638.416,345.085L639.176,345.325C640.176,343.345 641.516,339.205 642.236,336.345C642.496,335.445 642.696,334.505 642.876,333.625C644.316,333.485 645.856,333.225 647.256,332.925L647.256,332.245ZM645.436,340.225C645.256,341.125 645.176,341.665 645.176,342.245C645.176,344.165 646.756,344.965 649.656,344.965C650.956,344.965 652.276,344.845 653.296,344.685L653.316,343.985C652.296,344.205 650.936,344.345 649.676,344.345C646.176,344.345 645.776,343.205 645.776,342.205C645.776,341.625 645.876,341.025 646.076,340.285L645.436,340.225ZM652.456,329.705C653.036,330.465 653.716,331.565 654.176,332.485L654.736,332.205C654.336,331.405 653.536,330.185 652.976,329.445L652.456,329.705Z" style="fill:white;fill-rule:nonzero;"/>
            <path d="M665.816,342.425C665.816,343.845 664.896,344.625 663.256,344.625C660.836,344.625 659.616,343.785 659.616,342.565C659.616,341.245 661.016,340.365 663.556,340.365C664.296,340.365 665.036,340.445 665.756,340.605C665.796,341.325 665.816,341.965 665.816,342.425ZM666.176,334.165C667.836,334.145 670.516,333.985 672.376,333.785L672.356,333.145C670.456,333.405 667.796,333.525 666.176,333.545L666.176,330.985C666.176,330.565 666.236,329.645 666.296,329.365L665.456,329.365C665.516,329.625 665.576,330.525 665.576,330.985L665.576,335.025C665.576,336.365 665.676,338.305 665.736,339.965C665.036,339.825 664.316,339.745 663.576,339.745C660.356,339.745 659.016,341.065 659.016,342.565C659.016,344.405 660.736,345.225 663.356,345.225C665.316,345.225 666.416,344.085 666.416,342.625C666.416,342.125 666.396,341.465 666.376,340.745C668.696,341.365 670.836,342.645 672.256,344.085L672.636,343.465C671.136,342.125 668.896,340.725 666.336,340.085C666.276,338.365 666.176,336.385 666.176,335.025L666.176,334.165Z" style="fill:white;fill-rule:nonzero;"/>
        </g>
        <g id="URL" transform="matrix(1,0,0,1,7.80047,-30.9463)">
            <path d="M419.045,457.142C418.535,458.371 417.186,460.591 416.046,462.18L416.436,462.48C417.605,460.801 418.775,458.761 419.464,457.202L422.583,450.064L422.043,450.064L419.285,456.632L416.526,450.064L415.956,450.064L419.045,457.142Z" style="fill:white;fill-rule:nonzero;"/>
            <path d="M428.135,449.884C426.123,449.884 424.446,451.171 424.446,453.662C424.446,456.153 426.123,457.44 428.135,457.44C430.146,457.44 431.823,456.153 431.823,453.662C431.823,451.171 430.146,449.884 428.135,449.884ZM428.135,457.054C426.213,457.054 424.953,455.703 424.953,453.662C424.953,451.621 426.213,450.27 428.135,450.27C430.056,450.27 431.316,451.621 431.316,453.662C431.316,455.703 430.056,457.054 428.135,457.054Z" style="fill:white;fill-rule:nonzero;"/>
            <path d="M435.243,457.2L435.243,454.621L436.083,453.842L439.713,457.2L440.433,457.2L436.443,453.542L440.313,450.064L439.623,450.064L435.243,454.112L435.243,433.564L434.766,433.564L434.766,457.2L435.243,457.2Z" style="fill:white;fill-rule:nonzero;"/>
            <path d="M449.525,451.377C449.436,451.974 449.376,452.631 449.376,453.646L449.376,457.2L449.853,457.2L449.853,452.859C449.853,451.699 449.913,450.748 450.093,450.064L449.644,449.914C448.206,454.714 446.795,456.964 445.294,456.964C444.153,456.964 443.553,456.124 443.553,454.954L443.553,450.184L443.076,450.184L443.076,455.194C443.076,456.394 443.883,457.44 445.174,457.44C446.014,457.44 446.735,456.964 447.455,456.004C448.116,455.08 448.926,453.467 449.525,451.377Z" style="fill:white;fill-rule:nonzero;"/>
            <path d="M454.084,455.94C454.173,455.34 454.233,454.68 454.233,453.66L454.233,450.064L453.756,450.064L453.756,454.471C453.756,455.641 453.696,456.63 453.516,457.29L453.965,457.41C455.403,452.61 456.814,450.36 458.315,450.36C459.456,450.36 460.056,451.2 460.056,452.37L460.056,457.2L460.533,457.2L460.533,452.13C460.533,450.93 459.726,449.884 458.435,449.884C457.565,449.884 456.844,450.36 456.154,451.32C455.493,452.22 454.683,453.84 454.084,455.94Z" style="fill:white;fill-rule:nonzero;"/>
            <path d="M470.226,450.064L470.226,450.75C470.226,451.291 470.256,451.831 470.316,452.131C469.806,450.78 468.635,449.884 467.105,449.884C465.093,449.884 463.326,451.231 463.326,453.782C463.326,456.033 464.943,457.44 466.894,457.44C468.365,457.44 469.656,456.784 470.316,455.133C470.256,455.401 470.226,455.941 470.226,456.51L470.226,457.2L470.703,457.2L470.703,450.064L470.226,450.064ZM470.226,453.994C470.226,455.583 468.786,457.054 467.075,457.054C465.243,457.054 463.833,455.673 463.833,453.692C463.833,451.621 465.213,450.27 467.075,450.27C468.816,450.27 470.226,451.681 470.226,453.332L470.226,453.994Z" style="fill:white;fill-rule:nonzero;"/>
            <path d="M475.083,457.2L475.083,450.064L474.606,450.064L474.606,457.2L475.083,457.2ZM475.263,447.662C475.263,447.423 475.083,447.244 474.845,447.244C474.606,447.244 474.426,447.423 474.426,447.662C474.426,447.901 474.606,448.08 474.845,448.08C475.083,448.08 475.263,447.901 475.263,447.662Z" style="fill:white;fill-rule:nonzero;"/>
            <path d="M479.314,455.94C479.403,455.34 479.463,454.68 479.463,453.66L479.463,450.064L478.986,450.064L478.986,454.471C478.986,455.641 478.926,456.63 478.746,457.29L479.195,457.41C480.633,452.61 482.044,450.36 483.545,450.36C484.686,450.36 485.286,451.2 485.286,452.37L485.286,457.2L485.763,457.2L485.763,452.13C485.763,450.93 484.956,449.884 483.665,449.884C482.795,449.884 482.074,450.36 481.384,451.32C480.723,452.22 479.913,453.84 479.314,455.94Z" style="fill:white;fill-rule:nonzero;"/>
            <path d="M492.155,457.44C493.566,457.44 494.496,456.904 495.184,455.973L494.916,455.702C494.226,456.573 493.415,457.054 492.305,457.054C490.474,457.054 489.063,455.792 489.063,453.6L495.423,453.6L495.423,453.154C495.423,451.562 494.346,449.884 492.185,449.884C490.173,449.884 488.556,451.171 488.556,453.78C488.556,456.033 490.113,457.44 492.155,457.44ZM492.155,450.27C493.836,450.27 494.886,451.442 494.886,453.184L489.093,453.184C489.303,451.351 490.444,450.27 492.155,450.27Z" style="fill:white;fill-rule:nonzero;"/>
            <path d="M498.573,456.962C498.573,456.693 498.363,456.484 498.095,456.484C497.826,456.484 497.616,456.693 497.616,456.962C497.616,457.231 497.826,457.44 498.095,457.44C498.363,457.44 498.573,457.231 498.573,456.962Z" style="fill:white;fill-rule:nonzero;"/>
            <path d="M507.846,452.37L507.846,454.47C507.846,455.64 507.786,456.63 507.606,457.29L508.055,457.41C509.493,452.61 510.904,450.36 512.405,450.36C513.546,450.36 514.146,451.2 514.146,452.37L514.146,457.2L514.623,457.2L514.623,452.13C514.623,450.93 513.816,449.884 512.525,449.884C511.655,449.884 510.934,450.36 510.244,451.32C509.583,452.22 508.773,453.84 508.174,455.94C508.263,455.34 508.323,454.68 508.323,453.66L508.323,452.13C508.323,450.93 507.516,449.884 506.225,449.884C505.355,449.884 504.634,450.36 503.944,451.32C503.283,452.22 502.473,453.84 501.874,455.94C501.963,455.34 502.023,454.68 502.023,453.66L502.023,450.064L501.546,450.064L501.546,454.471C501.546,455.641 501.486,456.63 501.306,457.29L501.755,457.41C503.193,452.61 504.604,450.36 506.105,450.36C507.246,450.36 507.846,451.2 507.846,452.37Z" style="fill:white;fill-rule:nonzero;"/>
            <path d="M517.863,456.784L522.813,450.6L522.813,450.184L517.475,450.184L517.475,450.6L522.246,450.6L517.296,456.784L517.296,457.2L522.843,457.2L522.843,456.784L517.863,456.784Z" style="fill:white;fill-rule:nonzero;"/>
            <path d="M527.795,457.142C527.285,458.371 525.936,460.591 524.796,462.18L525.186,462.48C526.355,460.801 527.525,458.761 528.214,457.202L531.333,450.064L530.793,450.064L528.035,456.632L525.276,450.064L524.706,450.064L527.795,457.142Z" style="fill:white;fill-rule:nonzero;"/>
            <path d="M535.895,457.142C535.385,458.371 534.036,460.591 532.896,462.18L533.286,462.48C534.455,460.801 535.625,458.761 536.314,457.202L539.433,450.064L538.893,450.064L536.135,456.632L533.376,450.064L532.806,450.064L535.895,457.142Z" style="fill:white;fill-rule:nonzero;"/>
            <path d="M544.145,449.944C542.553,449.944 541.206,451.171 541.206,452.732C541.206,454.353 542.403,455.49 544.024,455.49C544.895,455.49 545.766,455.163 546.336,454.413C545.496,456.24 543.694,458.07 542.133,458.85L542.373,459.24C544.655,457.98 547.083,455.371 547.083,452.822C547.083,451.141 545.976,449.944 544.145,449.944ZM544.054,455.074C542.613,455.074 541.713,454.113 541.713,452.672C541.713,451.321 542.824,450.36 544.145,450.36C545.826,450.36 546.576,451.531 546.576,452.822C546.576,454.413 545.285,455.074 544.054,455.074Z" style="fill:white;fill-rule:nonzero;"/>
            <path d="M553.683,455.704L553.683,450.064L553.056,450.064L549.216,455.763L549.216,456.12L553.206,456.12L553.206,458.97L553.683,458.97L553.683,456.12L555.303,456.12L555.303,455.704L553.683,455.704ZM553.206,455.704L549.786,455.704L553.206,450.6L553.206,455.704Z" style="fill:white;fill-rule:nonzero;"/>
            <path d="M558.303,456.962C558.303,456.693 558.093,456.484 557.825,456.484C557.556,456.484 557.346,456.693 557.346,456.962C557.346,457.231 557.556,457.44 557.825,457.44C558.093,457.44 558.303,457.231 558.303,456.962Z" style="fill:white;fill-rule:nonzero;"/>
            <path d="M564.093,450.27C565.293,450.27 565.923,450.66 566.613,451.411L566.913,451.111C566.343,450.36 565.593,449.884 564.123,449.884C562.113,449.884 560.376,451.201 560.376,453.782C560.376,456.033 561.933,457.44 563.973,457.44C565.353,457.44 566.133,457.024 566.853,456.183L566.583,455.913C565.833,456.724 565.173,457.054 564.123,457.054C562.293,457.054 560.883,455.763 560.883,453.602C560.883,451.561 562.383,450.27 564.093,450.27Z" style="fill:white;fill-rule:nonzero;"/>
            <path d="M572.735,449.884C570.723,449.884 569.046,451.171 569.046,453.662C569.046,456.153 570.723,457.44 572.735,457.44C574.746,457.44 576.423,456.153 576.423,453.662C576.423,451.171 574.746,449.884 572.735,449.884ZM572.735,457.054C570.813,457.054 569.553,455.703 569.553,453.662C569.553,451.621 570.813,450.27 572.735,450.27C574.656,450.27 575.916,451.621 575.916,453.662C575.916,455.703 574.656,457.054 572.735,457.054Z" style="fill:white;fill-rule:nonzero;"/>
            <path d="M585.666,452.37L585.666,454.47C585.666,455.64 585.606,456.63 585.426,457.29L585.875,457.41C587.313,452.61 588.724,450.36 590.225,450.36C591.366,450.36 591.966,451.2 591.966,452.37L591.966,457.2L592.443,457.2L592.443,452.13C592.443,450.93 591.636,449.884 590.345,449.884C589.475,449.884 588.754,450.36 588.064,451.32C587.403,452.22 586.593,453.84 585.994,455.94C586.083,455.34 586.143,454.68 586.143,453.66L586.143,452.13C586.143,450.93 585.336,449.884 584.045,449.884C583.175,449.884 582.454,450.36 581.764,451.32C581.103,452.22 580.293,453.84 579.694,455.94C579.783,455.34 579.843,454.68 579.843,453.66L579.843,450.064L579.366,450.064L579.366,454.471C579.366,455.641 579.306,456.63 579.126,457.29L579.575,457.41C581.013,452.61 582.424,450.36 583.925,450.36C585.066,450.36 585.666,451.2 585.666,452.37Z" style="fill:white;fill-rule:nonzero;"/>
        </g>
    </g>
</svg>
