<?xml version="1.0" encoding="UTF-8" standalone="no"?>
<!DOCTYPE svg PUBLIC "-//W3C//DTD SVG 1.1//EN" "http://www.w3.org/Graphics/SVG/1.1/DTD/svg11.dtd">
<svg width="100%" height="100%" viewBox="0 0 1024 600" version="1.1" xmlns="http://www.w3.org/2000/svg" xmlns:xlink="http://www.w3.org/1999/xlink" xml:space="preserve" style="fill-rule:evenodd;clip-rule:evenodd;stroke-linecap:round;stroke-linejoin:round;stroke-miterlimit:1.5;">
    <rect id="background" x="0" y="0" width="1024" height="600" style="fill:rgb(112,174,69);stroke:rgb(112,174,69);stroke-width:1px;"/>
    <g id="logo" transform="matrix(0.09375,0,0,0.09375,512,198)">
        <g transform="matrix(1,0,0,1,-800,-768)">
            <clipPath id="_clip1">
                <rect x="0" y="0" width="1600" height="1536"/>
            </clipPath>
            <g clip-path="url(#_clip1)">
                <path d="M257.021,320.962C257.021,338.295 250.687,353.295 238.021,365.962C225.354,378.629 210.354,384.962 193.021,384.962C175.021,384.962 159.854,378.629 147.521,365.962C135.187,353.295 129.021,338.295 129.021,320.962C129.021,302.962 135.187,287.795 147.521,275.462C159.854,263.129 175.021,256.962 193.021,256.962C210.354,256.962 225.354,263.129 238.021,275.462C250.687,287.795 257.021,302.962 257.021,320.962ZM417.021,832.962L417.021,192.962C417.021,175.629 410.687,160.629 398.021,147.962C385.354,135.295 370.354,128.962 353.021,128.962L65.021,128.962C47.687,128.962 32.687,135.295 20.021,147.962C7.354,160.629 1.021,175.629 1.021,192.962L1.021,832.962C1.021,850.295 7.354,865.295 20.021,877.962C32.687,890.629 47.687,896.962 65.021,896.962L353.021,896.962C370.354,896.962 385.354,890.629 398.021,877.962C410.687,865.295 417.021,850.295 417.021,832.962ZM1546.02,683.962C1582.69,724.629 1601.02,774.295 1601.02,832.962C1600.35,884.962 1581.19,929.962 1543.52,967.962C1505.85,1005.96 1461.02,1024.96 1409.02,1024.96L1132.02,1024.96C1134.69,1034.3 1137.35,1042.3 1140.02,1048.96C1142.69,1055.63 1146.35,1062.96 1151.02,1070.96C1155.69,1078.96 1159.02,1084.96 1161.02,1088.96C1173.02,1113.63 1182.02,1132.63 1188.02,1145.96C1194.02,1159.3 1200.35,1178.8 1207.02,1204.46C1213.69,1230.13 1217.02,1255.63 1217.02,1280.96C1217.02,1296.96 1216.85,1309.96 1216.52,1319.96C1216.19,1329.96 1214.52,1344.96 1211.52,1364.96C1208.52,1384.96 1204.52,1401.63 1199.52,1414.96C1194.52,1428.3 1186.52,1443.3 1175.52,1459.96C1164.52,1476.63 1151.19,1490.13 1135.52,1500.46C1119.85,1510.8 1099.85,1519.46 1075.52,1526.46C1051.19,1533.46 1023.69,1536.96 993.021,1536.96C975.687,1536.96 960.687,1530.63 948.021,1517.96C934.687,1504.63 923.354,1487.96 914.021,1467.96C904.687,1447.96 898.187,1430.63 894.521,1415.96C890.854,1401.3 886.687,1380.96 882.021,1354.96C876.021,1326.96 871.521,1306.8 868.521,1294.46C865.521,1282.13 859.687,1265.96 851.021,1245.96C842.354,1225.96 832.021,1209.96 820.021,1197.96C798.021,1175.96 764.354,1135.96 719.021,1077.96C686.354,1035.3 652.687,994.962 618.021,956.962C583.354,918.962 558.021,899.295 542.021,897.962C525.354,896.629 511.021,889.795 499.021,877.462C487.021,865.129 481.021,850.629 481.021,833.962L481.021,192.962C481.021,175.629 487.354,160.795 500.021,148.462C512.687,136.129 527.687,129.629 545.021,128.962C568.354,128.295 621.021,113.629 703.021,84.962C754.354,67.629 794.521,54.462 823.521,45.462C852.521,36.462 893.021,26.795 945.021,16.462C997.021,6.129 1045.02,0.962 1089.02,0.962L1218.02,0.962C1306.69,2.295 1372.35,28.295 1415.02,78.962C1453.69,124.962 1470.02,185.295 1464.02,259.962C1490.02,284.629 1508.02,315.962 1518.02,353.962C1529.35,394.629 1529.35,433.629 1518.02,470.962C1548.69,511.629 1563.02,557.295 1561.02,607.962C1561.02,629.295 1556.02,654.629 1546.02,683.962Z" style="fill:white;fill-rule:nonzero;"/>
            </g>
        </g>
    </g>
    <g id="en">
        <g id="title" transform="matrix(1,0,0,1,70.4738,38.294)">
            <path d="M321.79,299.338C321.79,299.85 321.534,300.106 321.022,300.106C320.766,300.106 320.574,300.01 320.446,299.818L294.046,263.098C293.982,263.034 293.95,262.89 293.95,262.666C293.95,262.154 294.181,261.898 294.643,261.898C294.828,261.898 295.013,262.01 295.198,262.234L320.302,297.082L320.302,262.426C320.302,262.234 320.374,262.066 320.518,261.922C320.662,261.778 320.83,261.706 321.022,261.706C321.214,261.706 321.382,261.778 321.526,261.922C321.67,262.066 321.742,262.234 321.742,262.426L321.79,299.338ZM315.934,299.386C315.934,299.578 315.854,299.746 315.694,299.89C315.534,300.034 315.358,300.106 315.166,300.106C314.91,300.106 314.718,300.01 314.59,299.818L295.342,272.794L295.342,299.338C295.342,299.53 295.265,299.706 295.11,299.866C294.955,300.026 294.784,300.106 294.598,300.106C294.102,300.106 293.854,299.85 293.854,299.338L293.854,270.394C293.854,270.234 293.931,270.074 294.086,269.914C294.24,269.754 294.394,269.674 294.549,269.674C294.765,269.674 294.965,269.786 295.15,270.01C295.374,270.33 295.838,270.978 296.542,271.954C297.246,272.93 298.11,274.122 299.134,275.53C300.158,276.938 301.278,278.498 302.494,280.21C303.71,281.922 304.942,283.642 306.19,285.37C307.438,287.098 308.646,288.786 309.814,290.434C310.982,292.082 312.022,293.554 312.934,294.85C313.846,296.146 314.574,297.202 315.118,298.018C315.662,298.834 315.934,299.29 315.934,299.386Z" style="fill:white;fill-rule:nonzero;"/>
            <path d="M368.926,280.906C368.926,283.562 368.422,286.058 367.414,288.394C366.406,290.73 365.038,292.762 363.31,294.49C361.582,296.218 359.55,297.586 357.214,298.594C354.878,299.602 352.382,300.106 349.726,300.106C347.07,300.106 344.574,299.602 342.238,298.594C339.902,297.586 337.87,296.218 336.142,294.49C334.414,292.762 333.046,290.73 332.038,288.394C331.03,286.058 330.526,283.562 330.526,280.906C330.526,278.25 331.03,275.754 332.038,273.418C333.046,271.082 334.414,269.05 336.142,267.322C337.87,265.594 339.902,264.226 342.238,263.218C344.574,262.21 347.07,261.706 349.726,261.706C352.382,261.706 354.878,262.21 357.214,263.218C359.55,264.226 361.582,265.594 363.31,267.322C365.038,269.05 366.406,271.082 367.414,273.418C368.422,275.754 368.926,278.25 368.926,280.906ZM367.438,280.906C367.438,278.474 366.974,276.186 366.046,274.042C365.118,271.898 363.846,270.018 362.23,268.402C360.614,266.786 358.734,265.514 356.59,264.586C354.446,263.658 352.158,263.194 349.726,263.194C347.294,263.194 345.006,263.658 342.862,264.586C340.718,265.514 338.838,266.786 337.222,268.402C335.606,270.018 334.334,271.898 333.406,274.042C332.478,276.186 332.014,278.474 332.014,280.906C332.014,283.338 332.478,285.626 333.406,287.77C334.334,289.914 335.606,291.794 337.222,293.41C338.838,295.026 340.718,296.298 342.862,297.226C345.006,298.154 347.294,298.618 349.726,298.618C352.158,298.618 354.446,298.154 356.59,297.226C358.734,296.298 360.614,295.026 362.23,293.41C363.846,291.794 365.118,289.914 366.046,287.77C366.974,285.626 367.438,283.338 367.438,280.906Z" style="fill:white;fill-rule:nonzero;"/>
            <path d="M396.382,262.45C396.382,262.649 396.31,262.822 396.166,262.971C396.022,263.12 395.854,263.194 395.662,263.194L372.046,263.194C371.854,263.194 371.686,263.12 371.542,262.971C371.398,262.822 371.326,262.649 371.326,262.45C371.326,262.252 371.398,262.078 371.542,261.929C371.686,261.78 371.854,261.706 372.046,261.706L395.662,261.706C395.854,261.706 396.022,261.78 396.166,261.929C396.31,262.078 396.382,262.252 396.382,262.45ZM396.574,267.082C396.574,267.274 396.502,267.45 396.358,267.61C396.214,267.77 396.046,267.85 395.854,267.85L384.718,267.85L384.718,299.386C384.718,299.578 384.641,299.746 384.486,299.89C384.331,300.034 384.16,300.106 383.974,300.106C383.788,300.106 383.618,300.042 383.463,299.914C383.308,299.786 383.23,299.61 383.23,299.386L383.23,267.85L372.046,267.85C371.854,267.85 371.686,267.77 371.542,267.61C371.398,267.45 371.326,267.274 371.326,267.082C371.326,266.89 371.39,266.706 371.518,266.53C371.646,266.354 371.822,266.266 372.046,266.266L395.854,266.266C396.078,266.266 396.254,266.354 396.382,266.53C396.51,266.706 396.574,266.89 396.574,267.082Z" style="fill:white;fill-rule:nonzero;"/>
            <path d="M454.942,278.65C454.942,278.842 454.878,279.018 454.75,279.178C454.622,279.338 454.446,279.418 454.222,279.418L435.502,279.418C434.99,279.418 434.734,279.162 434.734,278.65C434.734,278.426 434.814,278.25 434.974,278.122C435.134,277.994 435.31,277.93 435.502,277.93L454.222,277.93C454.414,277.93 454.582,278.002 454.726,278.146C454.87,278.29 454.942,278.458 454.942,278.65ZM455.134,294.682C455.134,294.906 455.054,295.098 454.894,295.258C453.166,296.89 451.182,298.106 448.942,298.906C446.702,299.706 444.43,300.106 442.126,300.106C439.47,300.106 436.974,299.602 434.638,298.594C432.302,297.586 430.27,296.218 428.542,294.49C426.814,292.762 425.446,290.73 424.438,288.394C423.43,286.058 422.926,283.562 422.926,280.906C422.926,278.25 423.43,275.754 424.438,273.418C425.446,271.082 426.814,269.05 428.542,267.322C430.27,265.594 432.302,264.226 434.638,263.218C436.974,262.21 439.47,261.706 442.126,261.706C444.43,261.706 446.694,262.106 448.918,262.906C451.142,263.706 453.118,264.922 454.846,266.554C455.038,266.746 455.134,266.922 455.134,267.082C455.134,267.306 455.054,267.506 454.894,267.682C454.734,267.858 454.542,267.946 454.318,267.946C454.158,267.946 453.998,267.866 453.838,267.706C452.11,266.266 450.302,265.154 448.414,264.37C446.526,263.586 444.43,263.194 442.126,263.194C439.694,263.194 437.406,263.658 435.262,264.586C433.118,265.514 431.238,266.786 429.622,268.402C428.006,270.018 426.734,271.898 425.806,274.042C424.878,276.186 424.414,278.474 424.414,280.906C424.414,283.338 424.878,285.626 425.806,287.77C426.734,289.914 428.006,291.794 429.622,293.41C431.238,295.026 433.118,296.298 435.262,297.226C437.406,298.154 439.694,298.618 442.126,298.618C444.238,298.618 446.278,298.242 448.246,297.49C450.214,296.738 452.014,295.69 453.646,294.346L453.694,284.17L435.406,284.17C435.182,284.17 434.998,284.09 434.854,283.93C434.71,283.77 434.638,283.578 434.638,283.354C434.638,283.162 434.71,282.986 434.854,282.826C434.998,282.666 435.182,282.586 435.406,282.586L454.414,282.586C454.926,282.586 455.182,282.858 455.182,283.402L455.134,294.682Z" style="fill:white;fill-rule:nonzero;"/>
            <path d="M499.774,280.906C499.774,283.562 499.27,286.058 498.262,288.394C497.254,290.73 495.886,292.762 494.158,294.49C492.43,296.218 490.398,297.586 488.062,298.594C485.726,299.602 483.23,300.106 480.574,300.106C477.918,300.106 475.422,299.602 473.086,298.594C470.75,297.586 468.718,296.218 466.99,294.49C465.262,292.762 463.894,290.73 462.886,288.394C461.878,286.058 461.374,283.562 461.374,280.906C461.374,278.25 461.878,275.754 462.886,273.418C463.894,271.082 465.262,269.05 466.99,267.322C468.718,265.594 470.75,264.226 473.086,263.218C475.422,262.21 477.918,261.706 480.574,261.706C483.23,261.706 485.726,262.21 488.062,263.218C490.398,264.226 492.43,265.594 494.158,267.322C495.886,269.05 497.254,271.082 498.262,273.418C499.27,275.754 499.774,278.25 499.774,280.906ZM498.286,280.906C498.286,278.474 497.822,276.186 496.894,274.042C495.966,271.898 494.694,270.018 493.078,268.402C491.462,266.786 489.582,265.514 487.438,264.586C485.294,263.658 483.006,263.194 480.574,263.194C478.142,263.194 475.854,263.658 473.71,264.586C471.566,265.514 469.686,266.786 468.07,268.402C466.454,270.018 465.182,271.898 464.254,274.042C463.326,276.186 462.862,278.474 462.862,280.906C462.862,283.338 463.326,285.626 464.254,287.77C465.182,289.914 466.454,291.794 468.07,293.41C469.686,295.026 471.566,296.298 473.71,297.226C475.854,298.154 478.142,298.618 480.574,298.618C483.006,298.618 485.294,298.154 487.438,297.226C489.582,296.298 491.462,295.026 493.078,293.41C494.694,291.794 495.966,289.914 496.894,287.77C497.822,285.626 498.286,283.338 498.286,280.906Z" style="fill:white;fill-rule:nonzero;"/>
            <path d="M546.142,280.906C546.142,283.562 545.638,286.058 544.63,288.394C543.622,290.73 542.254,292.762 540.526,294.49C538.798,296.218 536.766,297.586 534.43,298.594C532.094,299.602 529.598,300.106 526.942,300.106C524.286,300.106 521.79,299.602 519.454,298.594C517.118,297.586 515.086,296.218 513.358,294.49C511.63,292.762 510.262,290.73 509.254,288.394C508.246,286.058 507.742,283.562 507.742,280.906C507.742,278.25 508.246,275.754 509.254,273.418C510.262,271.082 511.63,269.05 513.358,267.322C515.086,265.594 517.118,264.226 519.454,263.218C521.79,262.21 524.286,261.706 526.942,261.706C529.598,261.706 532.094,262.21 534.43,263.218C536.766,264.226 538.798,265.594 540.526,267.322C542.254,269.05 543.622,271.082 544.63,273.418C545.638,275.754 546.142,278.25 546.142,280.906ZM544.654,280.906C544.654,278.474 544.19,276.186 543.262,274.042C542.334,271.898 541.062,270.018 539.446,268.402C537.83,266.786 535.95,265.514 533.806,264.586C531.662,263.658 529.374,263.194 526.942,263.194C524.51,263.194 522.222,263.658 520.078,264.586C517.934,265.514 516.054,266.786 514.438,268.402C512.822,270.018 511.55,271.898 510.622,274.042C509.694,276.186 509.23,278.474 509.23,280.906C509.23,283.338 509.694,285.626 510.622,287.77C511.55,289.914 512.822,291.794 514.438,293.41C516.054,295.026 517.934,296.298 520.078,297.226C522.222,298.154 524.51,298.618 526.942,298.618C529.374,298.618 531.662,298.154 533.806,297.226C535.95,296.298 537.83,295.026 539.446,293.41C541.062,291.794 542.334,289.914 543.262,287.77C544.19,285.626 544.654,283.338 544.654,280.906Z" style="fill:white;fill-rule:nonzero;"/>
            <path d="M585.31,280.858C585.31,283.514 584.806,286.002 583.798,288.322C582.79,290.642 581.422,292.666 579.694,294.394C577.966,296.122 575.934,297.482 573.598,298.474C571.262,299.466 568.782,299.978 566.158,300.01L559.87,300.058C559.646,300.058 559.462,299.978 559.318,299.818C559.174,299.657 559.102,299.465 559.102,299.241L559.102,263.194L555.79,263.194L555.79,299.337C555.79,299.85 555.534,300.106 555.022,300.106C554.798,300.106 554.622,300.026 554.494,299.866C554.366,299.706 554.302,299.53 554.302,299.338L554.302,262.522C554.302,262.298 554.374,262.106 554.518,261.946C554.662,261.786 554.846,261.706 555.07,261.706L566.158,261.706C568.782,261.706 571.262,262.21 573.598,263.218C575.934,264.226 577.966,265.594 579.694,267.322C581.422,269.05 582.79,271.082 583.798,273.418C584.806,275.754 585.31,278.234 585.31,280.858ZM583.822,280.834C583.822,278.399 583.358,276.099 582.43,273.937C581.502,271.774 580.246,269.899 578.662,268.313C577.078,266.727 575.206,265.469 573.046,264.54C570.886,263.611 568.59,263.146 566.158,263.146C565.23,263.146 564.302,263.154 563.374,263.17C562.446,263.186 561.518,263.194 560.59,263.194L560.59,298.522C561.518,298.522 562.446,298.522 563.374,298.522C564.302,298.522 565.23,298.506 566.158,298.474C568.59,298.442 570.878,297.961 573.022,297.032C575.166,296.103 577.038,294.845 578.638,293.259C580.238,291.673 581.502,289.814 582.43,287.683C583.358,285.553 583.822,283.27 583.822,280.834Z" style="fill:white;fill-rule:nonzero;"/>
            <path d="M586.03,298.186C586.03,297.738 586.182,297.362 586.486,297.058C586.79,296.754 587.166,296.602 587.614,296.602C588.062,296.602 588.438,296.754 588.742,297.058C589.046,297.362 589.198,297.738 589.198,298.186C589.198,298.634 589.046,299.01 588.742,299.314C588.438,299.618 588.062,299.77 587.614,299.77C587.166,299.77 586.79,299.618 586.486,299.314C586.182,299.01 586.03,298.634 586.03,298.186Z" style="fill:white;fill-rule:nonzero;"/>
        </g>
        <g id="desc" transform="matrix(1,0,0,1,-60.9804,12.627)">
            <path d="M453.102,360.937L453.102,372.397L440.679,372.397L440.679,360.937L440.202,360.937L440.202,379.413L440.679,379.413L440.679,372.843L453.102,372.843L453.102,379.413L453.579,379.413L453.579,360.937L453.102,360.937Z" style="fill:white;fill-rule:nonzero;"/>
            <path d="M460.27,372.097C458.259,372.097 456.582,373.384 456.582,375.875C456.582,378.366 458.259,379.653 460.27,379.653C462.282,379.653 463.959,378.366 463.959,375.875C463.959,373.384 462.282,372.097 460.27,372.097ZM460.27,379.267C458.349,379.267 457.089,377.916 457.089,375.875C457.089,373.834 458.349,372.483 460.27,372.483C462.192,372.483 463.452,373.834 463.452,375.875C463.452,377.916 462.192,379.267 460.27,379.267Z" style="fill:white;fill-rule:nonzero;"/>
            <path d="M476.799,372.277L474.34,378.817L471.91,372.397L471.281,372.397L468.881,378.817L466.392,372.277L465.852,372.277L468.641,379.413L469.061,379.413L471.58,372.873L474.13,379.413L474.549,379.413L477.309,372.277L476.799,372.277Z" style="fill:white;fill-rule:nonzero;"/>
            <path d="M482.77,379.653C484.181,379.653 485.112,379.117 485.8,378.186L485.532,377.915C484.842,378.786 484.031,379.267 482.921,379.267C481.089,379.267 479.679,378.005 479.679,375.813L486.039,375.813L486.039,375.367C486.039,373.775 484.962,372.097 482.801,372.097C480.789,372.097 479.172,373.384 479.172,375.993C479.172,378.246 480.729,379.653 482.77,379.653ZM482.77,372.483C484.452,372.483 485.502,373.655 485.502,375.397L479.709,375.397C479.919,373.564 481.059,372.483 482.77,372.483Z" style="fill:white;fill-rule:nonzero;"/>
            <path d="M491.65,379.413L494.739,372.277L494.199,372.277L491.44,378.847L488.682,372.277L488.112,372.277L491.23,379.413L491.65,379.413Z" style="fill:white;fill-rule:nonzero;"/>
            <path d="M500.2,379.653C501.611,379.653 502.542,379.117 503.23,378.186L502.962,377.915C502.272,378.786 501.461,379.267 500.351,379.267C498.519,379.267 497.109,378.005 497.109,375.813L503.469,375.813L503.469,375.367C503.469,373.775 502.392,372.097 500.231,372.097C498.219,372.097 496.602,373.384 496.602,375.993C496.602,378.246 498.159,379.653 500.2,379.653ZM500.2,372.483C501.882,372.483 502.932,373.655 502.932,375.397L497.139,375.397C497.349,373.564 498.489,372.483 500.2,372.483Z" style="fill:white;fill-rule:nonzero;"/>
            <path d="M507.069,379.413L507.069,376.683C507.069,374.823 507.789,372.633 510.159,372.633L510.129,372.097C508.329,372.156 507.279,373.233 506.949,375.243C507.039,374.526 507.069,373.896 507.069,373.416L507.069,372.277L506.592,372.277L506.592,379.413L507.069,379.413Z" style="fill:white;fill-rule:nonzero;"/>
            <path d="M511.572,381.483C511.902,380.764 512.26,379.685 512.469,378.877L511.812,378.787C511.692,379.536 511.452,380.524 511.182,381.363L511.572,381.483Z" style="fill:white;fill-rule:nonzero;"/>
            <path d="M523.78,372.097C521.769,372.097 520.092,373.384 520.092,375.875C520.092,378.366 521.769,379.653 523.78,379.653C525.792,379.653 527.469,378.366 527.469,375.875C527.469,373.384 525.792,372.097 523.78,372.097ZM523.78,379.267C521.859,379.267 520.599,377.916 520.599,375.875C520.599,373.834 521.859,372.483 523.78,372.483C525.702,372.483 526.962,373.834 526.962,375.875C526.962,377.916 525.702,379.267 523.78,379.267Z" style="fill:white;fill-rule:nonzero;"/>
            <path d="M530.74,378.153C530.829,377.553 530.889,376.893 530.889,375.873L530.889,372.277L530.412,372.277L530.412,376.684C530.412,377.854 530.352,378.843 530.172,379.503L530.621,379.623C532.059,374.823 533.47,372.573 534.971,372.573C536.112,372.573 536.712,373.413 536.712,374.583L536.712,379.413L537.189,379.413L537.189,374.343C537.189,373.143 536.382,372.097 535.091,372.097C534.221,372.097 533.5,372.573 532.81,373.533C532.149,374.433 531.339,376.053 530.74,378.153Z" style="fill:white;fill-rule:nonzero;"/>
            <rect x="540.882" y="355.773" width="0.476" height="23.64" style="fill:white;fill-rule:nonzero;"/>
            <path d="M547.061,379.355C546.551,380.584 545.202,382.804 544.062,384.393L544.452,384.693C545.621,383.014 546.791,380.974 547.48,379.415L550.599,372.277L550.059,372.277L547.3,378.845L544.542,372.277L543.972,372.277L547.061,379.355Z" style="fill:white;fill-rule:nonzero;"/>
            <path d="M559.539,365.613L559.659,360.637L559.092,360.637L559.212,365.613L559.539,365.613ZM558.039,365.613L558.159,360.637L557.592,360.637L557.712,365.613L558.039,365.613Z" style="fill:white;fill-rule:nonzero;"/>
            <path d="M563.139,378.876C563.379,379.116 563.71,379.356 564.1,379.416C562.809,379.475 561.282,380.554 561.282,382.235C561.282,383.976 562.869,385.053 564.79,385.053C566.892,385.053 568.449,383.886 568.449,382.175C568.449,380.704 567.282,379.327 565.061,379.327C564.61,379.327 564.07,379.116 563.77,378.815C564.52,378.665 565.12,378.334 565.571,377.793C567.252,377.526 568.269,376.506 568.269,375.005C568.269,374.224 567.971,373.383 567.162,372.813L569.139,372.813L569.139,372.397L566.622,372.397C566.141,372.216 565.661,372.097 565,372.097C563.109,372.097 561.732,373.174 561.732,375.125C561.732,376.866 563.169,377.823 564.97,377.823C564.58,378.184 564.19,378.455 563.259,378.576L563.139,378.876ZM565,379.713C566.982,379.713 567.942,380.914 567.942,382.235C567.942,383.676 566.621,384.667 564.79,384.667C563.169,384.667 561.789,383.706 561.789,382.235C561.789,380.554 563.169,379.713 565,379.713ZM567.762,375.125C567.762,376.536 566.622,377.467 565,377.467C563.529,377.467 562.239,376.716 562.239,375.125C562.239,373.354 563.319,372.483 565,372.483C566.742,372.483 567.762,373.504 567.762,375.125Z" style="fill:white;fill-rule:nonzero;"/>
            <path d="M574.75,372.097C572.739,372.097 571.062,373.384 571.062,375.875C571.062,378.366 572.739,379.653 574.75,379.653C576.762,379.653 578.439,378.366 578.439,375.875C578.439,373.384 576.762,372.097 574.75,372.097ZM574.75,379.267C572.829,379.267 571.569,377.916 571.569,375.875C571.569,373.834 572.829,372.483 574.75,372.483C576.672,372.483 577.932,373.834 577.932,375.875C577.932,377.916 576.672,379.267 574.75,379.267Z" style="fill:white;fill-rule:nonzero;"/>
            <path d="M584.17,372.097C582.159,372.097 580.482,373.384 580.482,375.875C580.482,378.366 582.159,379.653 584.17,379.653C586.182,379.653 587.859,378.366 587.859,375.875C587.859,373.384 586.182,372.097 584.17,372.097ZM584.17,379.267C582.249,379.267 580.989,377.916 580.989,375.875C580.989,373.834 582.249,372.483 584.17,372.483C586.092,372.483 587.352,373.834 587.352,375.875C587.352,377.916 586.092,379.267 584.17,379.267Z" style="fill:white;fill-rule:nonzero;"/>
            <path d="M596.802,355.777L596.802,372.963C596.802,373.504 596.832,374.044 596.892,374.344C596.382,372.993 595.211,372.097 593.68,372.097C591.669,372.097 589.902,373.444 589.902,375.995C589.902,378.246 591.519,379.653 593.47,379.653C594.941,379.653 596.232,378.997 596.892,377.346C596.832,377.613 596.802,378.153 596.802,378.723L596.802,379.413L597.279,379.413L597.279,355.777L596.802,355.777ZM596.802,376.205C596.802,377.796 595.361,379.267 593.65,379.267C591.819,379.267 590.409,377.886 590.409,375.905C590.409,373.834 591.789,372.483 593.65,372.483C595.391,372.483 596.802,373.894 596.802,375.545L596.802,376.205Z" style="fill:white;fill-rule:nonzero;"/>
            <path d="M602.049,365.613L602.169,360.637L601.602,360.637L601.722,365.613L602.049,365.613ZM600.549,365.613L600.669,360.637L600.102,360.637L600.222,365.613L600.549,365.613Z" style="fill:white;fill-rule:nonzero;"/>
            <path d="M610.779,379.413L610.779,372.277L610.302,372.277L610.302,379.413L610.779,379.413ZM610.959,369.875C610.959,369.636 610.779,369.457 610.54,369.457C610.301,369.457 610.122,369.636 610.122,369.875C610.122,370.114 610.301,370.293 610.54,370.293C610.779,370.293 610.959,370.114 610.959,369.875Z" style="fill:white;fill-rule:nonzero;"/>
            <path d="M617.802,377.886C617.802,378.726 617.051,379.267 616.03,379.267C615.369,379.267 614.889,379.087 614.142,378.576L613.872,378.937C614.589,379.475 615.219,379.653 616,379.653C617.202,379.653 618.279,378.967 618.279,377.856C618.279,376.835 617.652,376.205 616.361,375.875C615.189,375.575 614.589,375.064 614.589,374.074C614.589,373.143 615.309,372.483 616.361,372.483C617.021,372.483 617.502,372.723 617.892,373.203L618.219,372.903C617.802,372.424 617.172,372.097 616.391,372.097C615.159,372.097 614.112,372.873 614.112,374.164C614.112,375.245 614.889,375.935 616.09,376.265C617.262,376.595 617.802,377.046 617.802,377.886Z" style="fill:white;fill-rule:nonzero;"/>
            <path d="M621.73,378.153C621.819,377.553 621.879,376.893 621.879,375.873L621.879,372.277L621.402,372.277L621.402,376.684C621.402,377.854 621.342,378.843 621.162,379.503L621.611,379.623C623.049,374.823 624.46,372.573 625.961,372.573C627.102,372.573 627.702,373.413 627.702,374.583L627.702,379.413L628.179,379.413L628.179,374.343C628.179,373.143 627.372,372.097 626.081,372.097C625.211,372.097 624.49,372.573 623.8,373.533C623.139,374.433 622.329,376.053 621.73,378.153Z" style="fill:white;fill-rule:nonzero;"/>
            <path d="M631.239,365.613L631.359,360.637L630.792,360.637L630.912,365.613L631.239,365.613Z" style="fill:white;fill-rule:nonzero;"/>
            <path d="M635.889,379.413L635.889,372.813L638.289,372.813L638.289,372.397L635.889,372.397L635.889,368.677L635.412,368.677L635.412,372.397L633.012,372.397L633.012,372.813L635.412,372.813L635.412,379.413L635.889,379.413Z" style="fill:white;fill-rule:nonzero;"/>
            <path d="M649.03,379.653C650.441,379.653 651.372,379.117 652.06,378.186L651.792,377.915C651.102,378.786 650.291,379.267 649.181,379.267C647.349,379.267 645.939,378.005 645.939,375.813L652.299,375.813L652.299,375.367C652.299,373.775 651.222,372.097 649.061,372.097C647.049,372.097 645.432,373.384 645.432,375.993C645.432,378.246 646.989,379.653 649.03,379.653ZM649.03,372.483C650.712,372.483 651.762,373.655 651.762,375.397L645.969,375.397C646.179,373.564 647.319,372.483 649.03,372.483Z" style="fill:white;fill-rule:nonzero;"/>
            <path d="M655.75,378.153C655.839,377.553 655.899,376.893 655.899,375.873L655.899,372.277L655.422,372.277L655.422,376.684C655.422,377.854 655.362,378.843 655.182,379.503L655.631,379.623C657.069,374.823 658.48,372.573 659.981,372.573C661.122,372.573 661.722,373.413 661.722,374.583L661.722,379.413L662.199,379.413L662.199,374.343C662.199,373.143 661.392,372.097 660.101,372.097C659.231,372.097 658.51,372.573 657.82,373.533C657.159,374.433 656.349,376.053 655.75,378.153Z" style="fill:white;fill-rule:nonzero;"/>
            <path d="M668.68,372.097C666.669,372.097 664.992,373.384 664.992,375.875C664.992,378.366 666.669,379.653 668.68,379.653C670.692,379.653 672.369,378.366 672.369,375.875C672.369,373.384 670.692,372.097 668.68,372.097ZM668.68,379.267C666.759,379.267 665.499,377.916 665.499,375.875C665.499,373.834 666.759,372.483 668.68,372.483C670.602,372.483 671.862,373.834 671.862,375.875C671.862,377.916 670.602,379.267 668.68,379.267Z" style="fill:white;fill-rule:nonzero;"/>
            <path d="M681.551,373.59C681.462,374.187 681.402,374.844 681.402,375.859L681.402,379.413L681.879,379.413L681.879,375.072C681.879,373.912 681.939,372.961 682.119,372.277L681.67,372.127C680.231,376.927 678.821,379.177 677.32,379.177C676.179,379.177 675.579,378.337 675.579,377.167L675.579,372.397L675.102,372.397L675.102,377.407C675.102,378.607 675.909,379.653 677.2,379.653C678.04,379.653 678.761,379.177 679.481,378.217C680.141,377.293 680.952,375.68 681.551,373.59Z" style="fill:white;fill-rule:nonzero;"/>
            <path d="M686.439,378.876C686.679,379.116 687.01,379.356 687.4,379.416C686.109,379.475 684.582,380.554 684.582,382.235C684.582,383.976 686.169,385.053 688.09,385.053C690.192,385.053 691.749,383.886 691.749,382.175C691.749,380.704 690.582,379.327 688.361,379.327C687.91,379.327 687.37,379.116 687.07,378.815C687.82,378.665 688.42,378.334 688.871,377.793C690.552,377.526 691.569,376.506 691.569,375.005C691.569,374.224 691.271,373.383 690.462,372.813L692.439,372.813L692.439,372.397L689.922,372.397C689.441,372.216 688.961,372.097 688.3,372.097C686.409,372.097 685.032,373.174 685.032,375.125C685.032,376.866 686.469,377.823 688.27,377.823C687.88,378.184 687.49,378.455 686.559,378.576L686.439,378.876ZM688.3,379.713C690.282,379.713 691.242,380.914 691.242,382.235C691.242,383.676 689.921,384.667 688.09,384.667C686.469,384.667 685.089,383.706 685.089,382.235C685.089,380.554 686.469,379.713 688.3,379.713ZM691.062,375.125C691.062,376.536 689.922,377.467 688.3,377.467C686.829,377.467 685.539,376.716 685.539,375.125C685.539,373.354 686.619,372.483 688.3,372.483C690.042,372.483 691.062,373.504 691.062,375.125Z" style="fill:white;fill-rule:nonzero;"/>
            <path d="M695.262,355.777L695.262,376.683C695.262,377.853 695.202,378.843 695.022,379.503L695.471,379.623C696.909,374.823 698.32,372.573 699.821,372.573C700.962,372.573 701.562,373.413 701.562,374.583L701.562,379.413L702.039,379.413L702.039,374.343C702.039,373.143 701.232,372.097 699.941,372.097C699.071,372.097 698.35,372.573 697.66,373.533C696.999,374.433 696.189,376.053 695.59,378.153C695.679,377.553 695.739,376.893 695.739,375.873L695.739,355.777L695.262,355.777Z" style="fill:white;fill-rule:nonzero;"/>
            <path d="M705.759,379.175C705.759,378.906 705.549,378.697 705.28,378.697C705.011,378.697 704.802,378.906 704.802,379.175C704.802,379.444 705.011,379.653 705.28,379.653C705.549,379.653 705.759,379.444 705.759,379.175Z" style="fill:white;fill-rule:nonzero;"/>
        </g>
        <g id="URL" transform="matrix(1,0,0,1,7.80047,-5.88377)">
            <path d="M419.045,457.142C418.535,458.371 417.186,460.591 416.046,462.18L416.436,462.48C417.605,460.801 418.775,458.761 419.464,457.202L422.583,450.064L422.043,450.064L419.285,456.632L416.526,450.064L415.956,450.064L419.045,457.142Z" style="fill:white;fill-rule:nonzero;"/>
            <path d="M428.135,449.884C426.123,449.884 424.446,451.171 424.446,453.662C424.446,456.153 426.123,457.44 428.135,457.44C430.146,457.44 431.823,456.153 431.823,453.662C431.823,451.171 430.146,449.884 428.135,449.884ZM428.135,457.054C426.213,457.054 424.953,455.703 424.953,453.662C424.953,451.621 426.213,450.27 428.135,450.27C430.056,450.27 431.316,451.621 431.316,453.662C431.316,455.703 430.056,457.054 428.135,457.054Z" style="fill:white;fill-rule:nonzero;"/>
            <path d="M435.243,457.2L435.243,454.621L436.083,453.842L439.713,457.2L440.433,457.2L436.443,453.542L440.313,450.064L439.623,450.064L435.243,454.112L435.243,433.564L434.766,433.564L434.766,457.2L435.243,457.2Z" style="fill:white;fill-rule:nonzero;"/>
            <path d="M449.525,451.377C449.436,451.974 449.376,452.631 449.376,453.646L449.376,457.2L449.853,457.2L449.853,452.859C449.853,451.699 449.913,450.748 450.093,450.064L449.644,449.914C448.206,454.714 446.795,456.964 445.294,456.964C444.153,456.964 443.553,456.124 443.553,454.954L443.553,450.184L443.076,450.184L443.076,455.194C443.076,456.394 443.883,457.44 445.174,457.44C446.014,457.44 446.735,456.964 447.455,456.004C448.116,455.08 448.926,453.467 449.525,451.377Z" style="fill:white;fill-rule:nonzero;"/>
            <path d="M454.084,455.94C454.173,455.34 454.233,454.68 454.233,453.66L454.233,450.064L453.756,450.064L453.756,454.471C453.756,455.641 453.696,456.63 453.516,457.29L453.965,457.41C455.403,452.61 456.814,450.36 458.315,450.36C459.456,450.36 460.056,451.2 460.056,452.37L460.056,457.2L460.533,457.2L460.533,452.13C460.533,450.93 459.726,449.884 458.435,449.884C457.565,449.884 456.844,450.36 456.154,451.32C455.493,452.22 454.683,453.84 454.084,455.94Z" style="fill:white;fill-rule:nonzero;"/>
            <path d="M470.226,450.064L470.226,450.75C470.226,451.291 470.256,451.831 470.316,452.131C469.806,450.78 468.635,449.884 467.105,449.884C465.093,449.884 463.326,451.231 463.326,453.782C463.326,456.033 464.943,457.44 466.894,457.44C468.365,457.44 469.656,456.784 470.316,455.133C470.256,455.401 470.226,455.941 470.226,456.51L470.226,457.2L470.703,457.2L470.703,450.064L470.226,450.064ZM470.226,453.994C470.226,455.583 468.786,457.054 467.075,457.054C465.243,457.054 463.833,455.673 463.833,453.692C463.833,451.621 465.213,450.27 467.075,450.27C468.816,450.27 470.226,451.681 470.226,453.332L470.226,453.994Z" style="fill:white;fill-rule:nonzero;"/>
            <path d="M475.083,457.2L475.083,450.064L474.606,450.064L474.606,457.2L475.083,457.2ZM475.263,447.662C475.263,447.423 475.083,447.244 474.845,447.244C474.606,447.244 474.426,447.423 474.426,447.662C474.426,447.901 474.606,448.08 474.845,448.08C475.083,448.08 475.263,447.901 475.263,447.662Z" style="fill:white;fill-rule:nonzero;"/>
            <path d="M479.314,455.94C479.403,455.34 479.463,454.68 479.463,453.66L479.463,450.064L478.986,450.064L478.986,454.471C478.986,455.641 478.926,456.63 478.746,457.29L479.195,457.41C480.633,452.61 482.044,450.36 483.545,450.36C484.686,450.36 485.286,451.2 485.286,452.37L485.286,457.2L485.763,457.2L485.763,452.13C485.763,450.93 484.956,449.884 483.665,449.884C482.795,449.884 482.074,450.36 481.384,451.32C480.723,452.22 479.913,453.84 479.314,455.94Z" style="fill:white;fill-rule:nonzero;"/>
            <path d="M492.155,457.44C493.566,457.44 494.496,456.904 495.184,455.973L494.916,455.702C494.226,456.573 493.415,457.054 492.305,457.054C490.474,457.054 489.063,455.792 489.063,453.6L495.423,453.6L495.423,453.154C495.423,451.562 494.346,449.884 492.185,449.884C490.173,449.884 488.556,451.171 488.556,453.78C488.556,456.033 490.113,457.44 492.155,457.44ZM492.155,450.27C493.836,450.27 494.886,451.442 494.886,453.184L489.093,453.184C489.303,451.351 490.444,450.27 492.155,450.27Z" style="fill:white;fill-rule:nonzero;"/>
            <path d="M498.573,456.962C498.573,456.693 498.363,456.484 498.095,456.484C497.826,456.484 497.616,456.693 497.616,456.962C497.616,457.231 497.826,457.44 498.095,457.44C498.363,457.44 498.573,457.231 498.573,456.962Z" style="fill:white;fill-rule:nonzero;"/>
            <path d="M507.846,452.37L507.846,454.47C507.846,455.64 507.786,456.63 507.606,457.29L508.055,457.41C509.493,452.61 510.904,450.36 512.405,450.36C513.546,450.36 514.146,451.2 514.146,452.37L514.146,457.2L514.623,457.2L514.623,452.13C514.623,450.93 513.816,449.884 512.525,449.884C511.655,449.884 510.934,450.36 510.244,451.32C509.583,452.22 508.773,453.84 508.174,455.94C508.263,455.34 508.323,454.68 508.323,453.66L508.323,452.13C508.323,450.93 507.516,449.884 506.225,449.884C505.355,449.884 504.634,450.36 503.944,451.32C503.283,452.22 502.473,453.84 501.874,455.94C501.963,455.34 502.023,454.68 502.023,453.66L502.023,450.064L501.546,450.064L501.546,454.471C501.546,455.641 501.486,456.63 501.306,457.29L501.755,457.41C503.193,452.61 504.604,450.36 506.105,450.36C507.246,450.36 507.846,451.2 507.846,452.37Z" style="fill:white;fill-rule:nonzero;"/>
            <path d="M517.863,456.784L522.813,450.6L522.813,450.184L517.475,450.184L517.475,450.6L522.246,450.6L517.296,456.784L517.296,457.2L522.843,457.2L522.843,456.784L517.863,456.784Z" style="fill:white;fill-rule:nonzero;"/>
            <path d="M527.795,457.142C527.285,458.371 525.936,460.591 524.796,462.18L525.186,462.48C526.355,460.801 527.525,458.761 528.214,457.202L531.333,450.064L530.793,450.064L528.035,456.632L525.276,450.064L524.706,450.064L527.795,457.142Z" style="fill:white;fill-rule:nonzero;"/>
            <path d="M535.895,457.142C535.385,458.371 534.036,460.591 532.896,462.18L533.286,462.48C534.455,460.801 535.625,458.761 536.314,457.202L539.433,450.064L538.893,450.064L536.135,456.632L533.376,450.064L532.806,450.064L535.895,457.142Z" style="fill:white;fill-rule:nonzero;"/>
            <path d="M544.145,449.944C542.553,449.944 541.206,451.171 541.206,452.732C541.206,454.353 542.403,455.49 544.024,455.49C544.895,455.49 545.766,455.163 546.336,454.413C545.496,456.24 543.694,458.07 542.133,458.85L542.373,459.24C544.655,457.98 547.083,455.371 547.083,452.822C547.083,451.141 545.976,449.944 544.145,449.944ZM544.054,455.074C542.613,455.074 541.713,454.113 541.713,452.672C541.713,451.321 542.824,450.36 544.145,450.36C545.826,450.36 546.576,451.531 546.576,452.822C546.576,454.413 545.285,455.074 544.054,455.074Z" style="fill:white;fill-rule:nonzero;"/>
            <path d="M553.683,455.704L553.683,450.064L553.056,450.064L549.216,455.763L549.216,456.12L553.206,456.12L553.206,458.97L553.683,458.97L553.683,456.12L555.303,456.12L555.303,455.704L553.683,455.704ZM553.206,455.704L549.786,455.704L553.206,450.6L553.206,455.704Z" style="fill:white;fill-rule:nonzero;"/>
            <path d="M558.303,456.962C558.303,456.693 558.093,456.484 557.825,456.484C557.556,456.484 557.346,456.693 557.346,456.962C557.346,457.231 557.556,457.44 557.825,457.44C558.093,457.44 558.303,457.231 558.303,456.962Z" style="fill:white;fill-rule:nonzero;"/>
            <path d="M564.093,450.27C565.293,450.27 565.923,450.66 566.613,451.411L566.913,451.111C566.343,450.36 565.593,449.884 564.123,449.884C562.113,449.884 560.376,451.201 560.376,453.782C560.376,456.033 561.933,457.44 563.973,457.44C565.353,457.44 566.133,457.024 566.853,456.183L566.583,455.913C565.833,456.724 565.173,457.054 564.123,457.054C562.293,457.054 560.883,455.763 560.883,453.602C560.883,451.561 562.383,450.27 564.093,450.27Z" style="fill:white;fill-rule:nonzero;"/>
            <path d="M572.735,449.884C570.723,449.884 569.046,451.171 569.046,453.662C569.046,456.153 570.723,457.44 572.735,457.44C574.746,457.44 576.423,456.153 576.423,453.662C576.423,451.171 574.746,449.884 572.735,449.884ZM572.735,457.054C570.813,457.054 569.553,455.703 569.553,453.662C569.553,451.621 570.813,450.27 572.735,450.27C574.656,450.27 575.916,451.621 575.916,453.662C575.916,455.703 574.656,457.054 572.735,457.054Z" style="fill:white;fill-rule:nonzero;"/>
            <path d="M585.666,452.37L585.666,454.47C585.666,455.64 585.606,456.63 585.426,457.29L585.875,457.41C587.313,452.61 588.724,450.36 590.225,450.36C591.366,450.36 591.966,451.2 591.966,452.37L591.966,457.2L592.443,457.2L592.443,452.13C592.443,450.93 591.636,449.884 590.345,449.884C589.475,449.884 588.754,450.36 588.064,451.32C587.403,452.22 586.593,453.84 585.994,455.94C586.083,455.34 586.143,454.68 586.143,453.66L586.143,452.13C586.143,450.93 585.336,449.884 584.045,449.884C583.175,449.884 582.454,450.36 581.764,451.32C581.103,452.22 580.293,453.84 579.694,455.94C579.783,455.34 579.843,454.68 579.843,453.66L579.843,450.064L579.366,450.064L579.366,454.471C579.366,455.641 579.306,456.63 579.126,457.29L579.575,457.41C581.013,452.61 582.424,450.36 583.925,450.36C585.066,450.36 585.666,451.2 585.666,452.37Z" style="fill:white;fill-rule:nonzero;"/>
        </g>
    </g>
</svg>
