<?xml version="1.0" encoding="UTF-8" standalone="no"?>
<!DOCTYPE svg PUBLIC "-//W3C//DTD SVG 1.1//EN" "http://www.w3.org/Graphics/SVG/1.1/DTD/svg11.dtd">
<svg width="100%" height="100%" viewBox="0 0 415 415" version="1.1" xmlns="http://www.w3.org/2000/svg" xmlns:xlink="http://www.w3.org/1999/xlink" xml:space="preserve" style="fill-rule:evenodd;clip-rule:evenodd;stroke-linecap:round;stroke-linejoin:round;stroke-miterlimit:1.5;">
	<path d="M55,111.985c0,0 -2.455,-2.04 -4.224,-3.51c-1.184,-0.983 -2.392,-1.937 -3.623,-2.86c-1.437,-1.078 -3.401,-2.551 -4.721,-3.541c-0.955,-0.716 -1.898,-1.447 -2.83,-2.192c-1.685,-1.348 -4.532,-3.626 -6.486,-5.189c-1.41,-1.128 -2.796,-2.288 -4.156,-3.478c-0.855,-0.748 -1.869,-1.636 -2.816,-2.464c-2.096,-1.834 -4.129,-3.736 -6.098,-5.705c-2.279,-2.279 -5.046,-5.046 -5.046,-5.046l-8,-8l-7,-7l0,-63l144,0l0,111.985l-89,0" style="fill:#31313c;"/>
	<path d="M44.463,188.774c-0.308,-1.909 -0.463,-3.839 -0.463,-5.773c0,0 0,0 0,0c0,-1.998 0.142,-3.994 0.424,-5.972c0.273,-1.907 0.576,-4.029 0.576,-4.029c0,0 -0.422,0.422 -0.949,0.949c-1.361,1.361 -2.898,2.535 -4.569,3.49c0,0 0,0 0,0c-2.983,1.705 -6.098,3.167 -9.316,4.374c-0.678,0.254 -1.323,0.496 -1.852,0.694c-0.876,0.329 -1.758,0.641 -2.645,0.937c-1.259,0.419 -3.188,1.062 -4.797,1.599c-1.914,0.638 -3.852,1.202 -5.809,1.691c-0.075,0.019 -0.151,0.038 -0.228,0.057c-3.219,0.805 -6.492,1.375 -9.794,1.705l-5.041,0.504l0,-5l3.918,-1.567c0.721,-0.289 1.43,-0.607 2.124,-0.954c1.185,-0.593 2.958,-1.479 2.958,-1.479c0,0 1.434,-0.717 2.585,-1.292c0.942,-0.472 1.855,-1.001 2.732,-1.586c0.376,-0.251 0.769,-0.513 1.08,-0.72c0.402,-0.268 0.796,-0.547 1.183,-0.837c0.445,-0.334 1.086,-0.814 1.692,-1.269c1.151,-0.863 2.238,-1.806 3.255,-2.823c0.741,-0.741 1.473,-1.473 1.473,-1.473l4,-4c0,0 0.683,-0.683 1.397,-1.397c1.067,-1.067 2.058,-2.209 2.963,-3.417c0.153,-0.203 0.307,-0.408 0.457,-0.608c0.788,-1.051 1.51,-2.15 2.162,-3.29c0.846,-1.481 2.025,-3.545 2.629,-4.603c0.261,-0.456 0.51,-0.92 0.745,-1.391c0,0 0,0 0,0c1.097,-2.193 2.036,-4.462 2.812,-6.788l4.588,-13.764c0.165,-0.495 0.319,-0.993 0.462,-1.494c0.392,-1.372 1.216,-4.258 1.592,-5.571c0.129,-0.451 0.267,-0.9 0.416,-1.345c0.694,-2.084 2.777,-8.332 2.777,-8.332l2,-6l1.876,-5.629c1.416,-4.246 2.986,-8.439 4.707,-12.57c0.383,-0.918 0.762,-1.83 1.104,-2.65c0.875,-2.1 1.822,-4.169 2.84,-6.205c0,0 0,0 0,0c2.314,-4.627 4.865,-9.133 7.642,-13.498c0.269,-0.422 0.533,-0.836 0.784,-1.231c1.364,-2.144 2.776,-4.259 4.234,-6.341c1.578,-2.255 3.574,-5.106 4.413,-6.304c0.267,-0.381 0.537,-0.76 0.811,-1.136c0.241,-0.333 0.577,-0.795 0.975,-1.341c4.406,-6.059 9.139,-11.873 14.179,-17.416c0.181,-0.199 0.356,-0.392 0.523,-0.576c1.275,-1.402 2.582,-2.773 3.921,-4.112c0.346,-0.346 0.718,-0.718 1.102,-1.102c3.257,-3.257 6.67,-6.356 10.226,-9.284c0,-0.001 0,-0.001 0,-0.001c2.108,-1.735 4.279,-3.392 6.51,-4.967c1.344,-0.949 2.815,-1.987 3.84,-2.71c0.875,-0.618 1.759,-1.224 2.65,-1.819c0.281,-0.187 0.596,-0.396 0.932,-0.621c4.483,-2.988 9.148,-5.695 13.967,-8.105c0.472,-0.236 0.764,-0.382 0.764,-0.382l275,0l0,243l-127.93,1.586l-48.781,-95.801l-107.518,-37.78l-76.771,107.495c0,0 0,4.188 0,7.12c0,4.916 0.258,9.83 0.773,14.72c0.563,5.348 1.227,11.66 1.227,11.66c0,0 -0.67,-1.657 -1.377,-3.404c-1.082,-2.672 -2.042,-5.392 -2.88,-8.15c0,0 0,0 0,0c-0.495,-1.63 -0.95,-3.273 -1.363,-4.926l-2.326,-9.304c-0.702,-2.809 -1.292,-5.646 -1.769,-8.503c0,0 0,0 0,0c-0.19,-1.142 -0.353,-2.288 -0.488,-3.438c-0.209,-1.779 -0.528,-4.485 -0.691,-5.877c-0.071,-0.599 -0.138,-1.198 -0.201,-1.797c0,0 0,0 0,0c-0.602,-5.725 -0.748,-11.489 -0.434,-17.237c0.014,-0.258 0.022,-0.406 0.022,-0.406l-0.03,-0.184Z" style="fill:#a1ced5;"/>
	<path d="M109,365l-11,-9c0,0 -4.925,-4.104 -5.851,-4.876c-0.099,-0.083 -0.2,-0.164 -0.301,-0.245c-0.208,-0.167 -0.614,-0.492 -1.107,-0.886c-2.487,-1.99 -5.178,-3.711 -8.027,-5.136c0,0 0,0 0,0c-1.139,-0.57 -2.338,-1.013 -3.573,-1.322c-0.049,-0.012 -0.098,-0.024 -0.147,-0.037c-1.309,-0.327 -2.679,-0.327 -3.988,0c0,0 0,0 0,0c-1.336,0.334 -2.647,0.759 -3.926,1.27c-1.41,0.564 -3.08,1.232 -3.08,1.232c0,0 -0.98,-0.392 -2.072,-0.829c-1.934,-0.774 -3.998,-1.171 -6.081,-1.171c-0.012,0 -0.023,0 -0.034,0c-0.541,0 -1.08,0.053 -1.61,0.159c-0.568,0.114 -1.36,0.272 -2.104,0.421c-1.356,0.271 -2.572,1.012 -3.436,2.091c-0.221,0.277 -0.454,0.568 -0.687,0.859c-1.307,1.634 -2.315,3.486 -2.976,5.471c0,0 0,0 0,0c-0.662,1.986 -1,4.066 -1,6.16c0,2.441 0,5.696 0,7.497c0,0.887 -0.169,1.765 -0.498,2.588c0,0 0,0 0,0c-0.333,0.83 -0.799,1.6 -1.381,2.279c-0.885,1.033 -2.121,2.475 -2.121,2.475c0,0 -1.273,1.273 -2.161,2.161c-0.559,0.559 -1.077,1.156 -1.551,1.788c-0.316,0.422 -0.698,0.931 -1.058,1.411c-0.816,1.088 -1.486,2.28 -1.992,3.544c0,0 0,0 0,0c-0.818,2.045 -1.238,4.228 -1.238,6.43c0,1.58 0,3.443 0,4.937c0,1.812 0.222,3.618 0.662,5.377c0,0 0,0 0,0c0.224,0.895 0.599,1.744 1.111,2.511c0.326,0.489 0.685,1.028 0.93,1.396c0.198,0.296 0.377,0.605 0.536,0.923c0.144,0.288 0.339,0.678 0.547,1.095c0.784,1.566 0.981,3.361 0.556,5.06c0,0 0,0 0,0c-0.226,0.905 -0.606,1.764 -1.124,2.539c-0.561,0.842 -1.218,1.828 -1.218,1.828l71,0l0,-50" style="fill:#4f5966;"/>
	<path d="M190,370.5c0,0 -0.104,-0.091 -0.28,-0.245c-2.475,-2.166 -5.139,-4.106 -7.959,-5.798c0,0 0,0 0,0c-0.507,-0.305 -1.007,-0.621 -1.499,-0.949c-0.186,-0.124 -0.4,-0.267 -0.633,-0.422c-3.083,-2.055 -6.291,-3.917 -9.605,-5.574c-0.61,-0.305 -1.024,-0.512 -1.024,-0.512c0,0 -1.003,-0.143 -2.249,-0.321c-3.124,-0.447 -6.31,-0.159 -9.304,0.839c0,0 0,0 0,0c-0.964,0.321 -1.903,0.71 -2.811,1.164c-1.159,0.58 -2.636,1.318 -2.636,1.318c0,0 -1.396,0.698 -2.842,1.421c-2.092,1.046 -4.001,2.422 -5.655,4.076c0,0 0,0 0,0c-0.333,0.333 -0.61,0.718 -0.821,1.139c-0.293,0.586 -0.682,1.364 -0.682,1.364l0,6l48,0l0,-3.5" style="fill:#3a605d;"/>
	<path d="M179,353c0,0 1.175,1.175 2.251,2.251c1.162,1.162 2.176,2.461 3.022,3.87c0,0 0,0 0,0c1.148,1.914 2.083,3.947 2.789,6.064c0.478,1.436 0.938,2.815 0.938,2.815c0,0 -1.134,1.512 -2.008,2.677c-0.624,0.833 -1.605,1.323 -2.646,1.323c0,0 0,0 -0.001,0c-4.228,0 -8.454,-0.192 -12.664,-0.574c-1.973,-0.18 -3.803,-0.346 -4.441,-0.404c-0.16,-0.015 -0.32,-0.03 -0.479,-0.046c-1.52,-0.152 -9.761,-0.976 -9.761,-0.976l-21,31l-2,14l166,0l-5,-14c0,0 -2.079,-0.693 -3.789,-1.263c-1.461,-0.487 -2.818,-1.243 -4.001,-2.229c0,0 0,0 0,0c-2.795,-2.329 -5.28,-5.007 -7.395,-7.967c-0.139,-0.194 -0.274,-0.384 -0.405,-0.567c-0.939,-1.315 -1.812,-2.677 -2.614,-4.08c-0.357,-0.626 -0.755,-1.322 -1.136,-1.989c-1.098,-1.921 -1.846,-4.022 -2.21,-6.205c0,0 0,0 0,0c-0.3,-1.797 -0.45,-3.615 -0.45,-5.437c0,-1.582 0,-3.263 0,-3.263l0,-3l-6,-39l-52,11l-35,16Z" style="fill:#fff4e4;"/>
	<path d="M278.818,389.546c0,0 2.816,0.662 4.647,1.093c1.023,0.241 2.05,0.464 3.081,0.67c0,0 0,0 0,0c2.299,0.46 4.557,1.105 6.752,1.928c0.072,0.027 0.144,0.054 0.217,0.081c2.985,1.12 6.056,1.996 9.182,2.621c0,0 0,0 0,0c0.202,0.041 0.403,0.086 0.602,0.136c0.662,0.165 2.258,0.564 3.122,0.78c0.386,0.097 0.768,0.208 1.145,0.334c0.286,0.095 0.648,0.216 1.004,0.334c0.952,0.318 1.88,0.702 2.778,1.151c0.241,0.121 0.497,0.248 0.75,0.375c1.26,0.63 2.41,1.459 3.406,2.455c0,0 0,0 0,0c0.994,0.994 1.862,2.105 2.585,3.31c0.299,0.5 0.623,1.039 0.917,1.529c0.662,1.104 1.282,2.233 1.858,3.385c0,0 0,0 0,0c0.756,1.513 1.404,3.077 1.939,4.682c0.116,0.347 0.197,0.59 0.197,0.59l-41,0c0,0 2.933,-2.346 5.622,-4.498c2.858,-2.286 4.994,-5.349 6.151,-8.821c0.139,-0.417 0.227,-0.681 0.227,-0.681c0,0 -2.132,-0.609 -4.043,-1.155c-1.944,-0.556 -3.729,-1.562 -5.21,-2.938c-0.107,-0.099 -0.215,-0.2 -0.324,-0.3c-1.908,-1.772 -3.571,-3.791 -4.946,-6.002c-0.38,-0.611 -0.659,-1.059 -0.659,-1.059" style="fill:#3a605d;"/>
	<path d="M179,353c0,0 1.175,1.175 2.251,2.251c1.162,1.162 2.176,2.461 3.022,3.87c0,0 0,0 0,0c1.148,1.914 2.083,3.947 2.789,6.064c0.235,0.705 0.465,1.397 0.639,1.918c0.199,0.598 0.386,1.2 0.559,1.806c0.249,0.872 0.637,2.232 0.984,3.446c0.502,1.755 0.756,3.571 0.756,5.396c0,0 0,0 0,0c0,2.164 -0.12,4.327 -0.359,6.478c-0.105,0.944 -0.218,1.968 -0.321,2.888c-0.213,1.921 -0.51,3.832 -0.889,5.727c-0.225,1.126 -0.431,2.156 -0.431,2.156" style="fill:none;"/>
	<path d="M59,415c0,0 0.435,-1.885 0.974,-4.219c1.349,-5.847 3.107,-11.592 5.261,-17.192c0,0 0,0 0,0c1.176,-3.058 2.499,-6.056 3.964,-8.986c0.461,-0.922 0.957,-1.915 1.449,-2.9c2.23,-4.46 4.857,-8.71 7.849,-12.699c0,0 0,0 0,0c0.995,-1.326 2.208,-2.474 3.587,-3.394c0.61,-0.406 1.275,-0.85 1.882,-1.254c1.35,-0.9 2.814,-1.616 4.353,-2.129c0.225,-0.075 0.455,-0.152 0.685,-0.228c1.985,-0.662 4.062,-0.999 6.154,-0.999c1.451,0 3.209,0 4.835,0c3.331,0 6.656,0.3 9.934,0.896c1.435,0.261 2.924,0.531 4.068,0.739c1.336,0.243 2.664,0.53 3.982,0.859c0.992,0.248 2.21,0.553 3.29,0.823c1.82,0.455 3.667,0.8 5.529,1.032c0.945,0.119 1.989,0.249 2.892,0.362c1.54,0.192 3.09,0.289 4.642,0.289l30.67,0c0,0 -2.232,1.488 -3.974,2.649c-1.347,0.898 -2.603,1.928 -3.748,3.073c0,0 0,0 0,0c-2.838,2.838 -5.267,6.058 -7.216,9.566c-0.208,0.374 -0.411,0.741 -0.605,1.089c-0.971,1.747 -1.852,3.544 -2.639,5.381c-0.159,0.371 -0.323,0.753 -0.484,1.128c-0.889,2.075 -1.691,4.186 -2.405,6.328c-0.499,1.495 -1.066,3.197 -1.456,4.366c-0.315,0.946 -0.648,1.887 -0.999,2.822c-0.348,0.93 -0.821,2.189 -1.259,3.359c-0.81,2.158 -1.731,4.272 -2.762,6.333c-0.734,1.468 -1.453,2.906 -1.453,2.906l-77,0" style="fill:#3a605d;"/>
	<path d="M91,267c0,0 0.994,5.964 1.838,11.026c0.77,4.62 2.269,9.088 4.443,13.237c0.927,1.771 1.956,3.735 2.952,5.636c3.156,6.026 7.287,11.488 12.225,16.167c4.495,4.258 9.63,9.123 11.118,10.532c0.283,0.268 0.568,0.533 0.857,0.794c2.474,2.238 14.853,13.438 19.119,17.298c0.965,0.873 1.956,1.717 2.973,2.53c3.288,2.63 10.915,8.732 12.962,10.369c0.341,0.274 0.704,0.52 1.084,0.737c0,0 0,0 0,0c4.126,2.358 9.003,3.031 13.612,1.878l24.512,-6.128c0.203,-0.051 0.406,-0.103 0.609,-0.158c2.905,-0.782 25.696,-6.918 25.696,-6.918c0,0 14.471,-4.201 23.639,-6.863c4.837,-1.404 9.269,-3.944 12.926,-7.409c1.635,-1.549 3.459,-3.277 5.223,-4.948c5.36,-5.078 9.139,-11.597 10.882,-18.773c2.636,-10.853 6.715,-27.651 9.848,-40.552c2.968,-12.22 3.908,-24.845 2.782,-37.37c-0.086,-0.957 -0.175,-1.939 -0.265,-2.941c-3.798,-42.256 -27.317,-80.24 -63.449,-102.476c0,0 0,0 0,0c-5.035,-3.098 -10.461,-5.509 -16.134,-7.17c-21.006,-6.148 -73.452,-21.498 -73.452,-21.498l-55,15l-12,51l1,31l2,10c0,0 5.693,7.246 8.888,11.312c1.396,1.777 2.461,3.792 3.141,5.948c0.978,3.094 2.455,7.771 3.545,11.224c0.945,2.993 1.426,6.113 1.426,9.252c0,3.17 0,7.035 0,8.579c0,0.457 0.012,0.913 0.036,1.369c0.179,3.399 0.964,18.316 0.964,18.316" style="fill:#fff4e4;"/>
	<path d="M149,299c0,0 4.171,0.782 8.254,1.548c5.162,0.968 10.361,1.727 15.583,2.277c1.059,0.111 2.146,0.226 3.207,0.338c5.3,0.557 10.626,0.837 15.956,0.837c0,0 0,0 0,0c0,0 1.192,1.907 2.411,3.858c1.722,2.755 3.163,5.674 4.304,8.715c0,0 0,0 0,0c0.85,2.266 1.285,4.667 1.285,7.087c0,0.162 0,0.322 0,0.477c0,1.209 -0.392,2.386 -1.118,3.353c-0.207,0.276 -0.424,0.567 -0.635,0.848c-0.82,1.093 -1.883,1.98 -3.106,2.591c0,0 0,0 0,0c-2.723,1.362 -5.726,2.071 -8.771,2.071c-0.293,0 -0.591,0 -0.892,0c-4.945,0 -9.85,-0.889 -14.479,-2.626c-0.609,-0.228 -0.999,-0.374 -0.999,-0.374c0,0 -0.816,-0.306 -1.928,-0.723c-4.001,-1.501 -7.636,-3.841 -10.658,-6.863c0,0 0,0 0,0c-0.939,-0.939 -1.76,-1.99 -2.443,-3.129c-0.151,-0.252 -0.31,-0.516 -0.468,-0.781c-0.999,-1.664 -1.813,-3.433 -2.427,-5.275c-0.23,-0.69 -0.481,-1.445 -0.727,-2.183c-0.897,-2.691 -1.526,-5.464 -1.878,-8.278c-0.24,-1.92 -0.471,-3.768 -0.471,-3.768Z" style="fill:#ec7e80;"/>
	<path d="M144,218l1,2.757l0,13.303c0,2.591 -0.603,5.147 -1.762,7.464c-0.138,0.277 -0.274,0.547 -0.401,0.802c-0.557,1.114 -1.213,2.175 -1.96,3.172c0,0 0,0 0,0c-1.182,1.575 -3.036,2.502 -5.005,2.502c-0.508,0 -0.872,0 -0.872,0c0,0 -0.151,0 -0.395,0c-2.35,0 -4.649,-0.696 -6.605,-2c0,0 0,0 0,0c0,0 0,0 0,0c-1.98,-1.32 -3.68,-3.02 -5,-5c0,0 0,0 0,0l-1,-2c0,0 0.29,-0.145 0.649,-0.324c0.828,-0.414 1.351,-1.261 1.351,-2.186c0,-0.001 0,-0.001 0,-0.001c0,-0.313 -0.124,-0.613 -0.346,-0.835c-0.289,-0.289 -0.654,-0.654 -0.654,-0.654c0,0 0,0 0,0c-0.64,-0.64 -1.509,-1 -2.414,-1c-0.329,0 -0.586,0 -0.586,0l-1,0l-1,-3c0,0 0,0 0,0c-0.662,-1.987 -1,-4.068 -1,-6.162c0,-0.994 0,-1.838 0,-1.838l0,-7l0,-2c0,0 0.849,0 1.764,0c1.37,0 2.623,-0.774 3.236,-2c0,0 0,0 0,0c0,0 0,0 0,0c0.658,-1.315 1,-2.766 1,-4.236c0,-0.162 0,-0.264 0,-0.264c0,0 0,-0.712 0,-1.376c0,-0.739 -0.172,-1.468 -0.503,-2.129c0,-0.001 0,-0.001 0,-0.001c-0.329,-0.658 -0.762,-1.259 -1.283,-1.78c-0.07,-0.07 -0.142,-0.142 -0.214,-0.214c-0.662,-0.662 -1.427,-1.214 -2.265,-1.632c-0.398,-0.199 -0.735,-0.368 -0.735,-0.368c0,0 0.408,-1.223 0.703,-2.108c0.198,-0.594 0.438,-1.173 0.718,-1.733c0,0 0,0 0,0c0.383,-0.768 0.888,-1.468 1.495,-2.075c0.052,-0.052 0.084,-0.084 0.084,-0.084l3,0l5,3l8,7l5,7l2,7Z" style="fill:#6595be;"/>
	<path d="M147,227c0,0 -2.663,-9.766 -2.971,-10.894c-0.019,-0.071 -0.039,-0.141 -0.059,-0.211c-0.189,-0.66 -1.212,-4.244 -1.705,-5.968c-0.177,-0.618 -0.367,-1.232 -0.57,-1.842c-0.381,-1.143 -1.029,-3.086 -1.403,-4.21c-0.195,-0.583 -0.43,-1.151 -0.704,-1.7c-0.034,-0.068 -0.07,-0.139 -0.107,-0.213c-1.643,-3.287 -3.806,-6.287 -6.404,-8.885c0,0 0,0 0,0c-0.717,-0.717 -1.474,-1.395 -2.267,-2.029c-0.667,-0.534 -1.509,-1.207 -2.231,-1.785c-1.052,-0.842 -2.14,-1.637 -3.261,-2.385c-1.211,-0.807 -2.779,-1.852 -3.654,-2.435c-0.442,-0.295 -0.902,-0.562 -1.378,-0.8c0,0 0,0 0,0c-2.161,-1.081 -4.544,-1.643 -6.96,-1.643c-1.244,0 -2.326,0 -2.326,0c0,0 -2.34,0 -4.314,0c-1.766,0 -3.509,0.411 -5.089,1.201c0,0 0,0.001 0,0.001c-1.058,0.528 -2.023,1.224 -2.859,2.06c-0.236,0.236 -0.479,0.479 -0.706,0.706c-0.687,0.687 -1.325,1.422 -1.908,2.2c-0.885,1.181 -2.124,2.832 -2.124,2.832l-3,4l5.636,11.272c0.243,0.485 0.465,0.98 0.666,1.484c0.408,1.02 1.126,2.814 1.483,3.707c0.143,0.358 0.301,0.71 0.474,1.054c0.54,1.082 1.741,3.483 1.741,3.483c0,0 -0.507,-3.041 -0.799,-4.793c-0.134,-0.803 -0.201,-1.616 -0.201,-2.431c0,-0.83 0,-1.776 0,-1.776l0,-4l0,-3c0,0 0,-0.076 0,-0.199c0,-1.153 0.458,-2.259 1.273,-3.074c0.001,-0.001 0.001,-0.001 0.001,-0.001c0.479,-0.479 1.05,-0.856 1.679,-1.107c0.367,-0.147 0.808,-0.324 1.262,-0.505c1.84,-0.736 3.803,-1.114 5.785,-1.114l7,0c1.973,0 3.919,0.459 5.683,1.342c0.727,0.363 1.317,0.658 1.317,0.658c0,0 0.962,0.721 1.942,1.457c1.37,1.027 2.666,2.151 3.877,3.362l5.604,5.604c1.05,1.05 2.024,2.173 2.915,3.361c0,0 0,0 0,0c1.106,1.474 2.077,3.045 2.901,4.694c0.281,0.563 0.536,1.072 0.667,1.335c0.063,0.125 0.123,0.251 0.181,0.378c0.663,1.459 4.913,10.809 4.913,10.809" style="fill:#3f7993;"/>
	<path d="M164,186c0,0 -1.798,-3.236 -3.237,-5.827c-1.174,-2.113 -2.491,-4.143 -3.941,-6.077c-0.216,-0.288 -0.438,-0.584 -0.662,-0.882c-2.1,-2.801 -4.501,-5.363 -7.159,-7.642c0,0 0,0 0,0c-1.996,-1.711 -4.15,-3.229 -6.432,-4.533c-0.894,-0.51 -1.793,-1.024 -2.465,-1.408c-0.736,-0.421 -1.483,-0.821 -2.241,-1.2c-0.497,-0.248 -1.081,-0.54 -1.592,-0.795c-0.847,-0.424 -1.707,-0.823 -2.577,-1.196c-2.026,-0.868 -5.694,-2.44 -5.694,-2.44c0,0 -1.037,-0.445 -2.313,-0.991c-3.116,-1.336 -6.363,-2.344 -9.687,-3.009c0,0 0,0 0,0l-5,-1c0,0 1.671,0 3.486,0c3.004,0 6.003,0.248 8.967,0.742c0.259,0.043 0.498,0.083 0.708,0.118c0.559,0.093 1.117,0.196 1.673,0.307c0.453,0.09 1.04,0.208 1.629,0.326c1.69,0.338 3.357,0.78 4.991,1.325l5.557,1.852c0.659,0.22 1.312,0.459 1.957,0.717c0.489,0.196 1.104,0.442 1.706,0.683c1.544,0.617 3,1.435 4.33,2.433c0,0 0,0 0,0c1.329,0.997 2.585,2.086 3.76,3.261c0.27,0.27 0.545,0.545 0.806,0.806c0.953,0.953 1.852,1.957 2.693,3.009c0.779,0.973 1.73,2.163 2.282,2.852c0.303,0.379 0.59,0.771 0.859,1.175c0,0 0,0 0,0c2.387,3.58 4.285,7.462 5.646,11.544c0.983,2.949 1.95,5.85 1.95,5.85" style="fill:#97c5ca;"/>
	<path d="M205,256c0,0 2.344,-1.674 4.319,-3.085c1.785,-1.275 3.666,-2.408 5.627,-3.388c0.765,-0.382 1.584,-0.792 2.336,-1.168c1.802,-0.901 3.728,-1.527 5.716,-1.859c0,0 0,0 0,0c1.998,-0.333 4.02,-0.5 6.046,-0.5c0.424,0 0.87,0 1.324,0c3.736,0 7.455,0.521 11.047,1.547c0.401,0.115 0.753,0.215 1.023,0.292c0.375,0.107 0.747,0.223 1.117,0.346l10.613,3.538c0.554,0.184 1.104,0.386 1.646,0.603c0,0 0.001,0 0.001,0c2.786,1.115 5.493,2.421 8.099,3.911c1.602,0.915 3.086,1.763 3.086,1.763l5,4l5,5l1,3l-5,-2l-4,-2c0,0 -0.623,-0.415 -1.301,-0.867c-1.131,-0.755 -2.309,-1.438 -3.526,-2.046c0,0 0,0 0,0c-1.448,-0.724 -2.926,-1.388 -4.429,-1.989c-1.326,-0.531 -2.744,-1.098 -2.744,-1.098c0,0 -1.037,-0.445 -2.313,-0.991c-3.116,-1.336 -6.363,-2.344 -9.687,-3.009c0,0 0,0 0,0c0,0 -4.41,-0.735 -5.668,-0.945c-0.221,-0.037 -0.443,-0.071 -0.665,-0.103c-1.146,-0.163 -4.932,-0.704 -6.228,-0.889c-0.292,-0.042 -0.586,-0.079 -0.88,-0.112c-1.257,-0.14 -4.901,-0.545 -7.007,-0.779c-1.034,-0.114 -2.073,-0.172 -3.114,-0.172c-1.122,0 -2.438,0 -2.438,0c0,0 -0.348,0 -0.838,0c-2.094,0 -4.175,0.338 -6.162,1c0,0 0,0 0,0c0,0 0,0 0,0c-1.999,0.666 -4.023,1.256 -6.068,1.767c-0.539,0.135 -0.932,0.233 -0.932,0.233" style="fill:#3f7993;"/>
	<path d="M211,211l6,-6c0,0 0.794,-0.53 1.805,-1.204c2.784,-1.856 5.803,-3.332 8.978,-4.39c0.024,-0.008 0.049,-0.017 0.073,-0.025c0.763,-0.254 1.517,-0.53 2.263,-0.829c0.055,-0.022 0.11,-0.044 0.167,-0.066c2.454,-0.982 5.072,-1.486 7.714,-1.486l13.256,0c1.162,0 2.322,0.072 3.474,0.216c1.058,0.132 2.432,0.304 3.624,0.453c1.76,0.22 3.493,0.613 5.175,1.174c0,0 0,0 0.001,0c0.313,0.105 0.629,0.202 0.947,0.293c0.784,0.224 2.403,0.687 3.832,1.095c1.79,0.512 3.529,1.188 5.195,2.021c1.645,0.823 3.496,1.748 3.496,1.748l8,5l-10,-4c0,0 -4.031,-1.344 -6.697,-2.232c-1.532,-0.511 -3.107,-0.883 -4.706,-1.111c-0.95,-0.136 -2.021,-0.289 -2.89,-0.413c-1.137,-0.163 -2.283,-0.244 -3.431,-0.244c-1.773,0 -4.276,0 -4.276,0l-16,0c0,0 -3.125,0.625 -4.434,0.887c-0.377,0.075 -0.753,0.16 -1.126,0.253c-1.101,0.275 -3.44,0.86 -3.44,0.86c0,0 -1.107,0.221 -2.279,0.456c-1.797,0.359 -3.505,1.067 -5.03,2.083c0,0 0,0 0,0c-0.46,0.307 -0.939,0.585 -1.434,0.832c-0.428,0.215 -0.968,0.485 -1.413,0.707c-0.563,0.281 -1.116,0.581 -1.659,0.897c-1.64,0.957 -5.185,3.025 -5.185,3.025" style="fill:#97c5ca;"/>
	<path d="M148,268l-3,5l0,6" style="fill:none;stroke:#000;stroke-width:0.5px;"/>
	<path d="M170.923,97l17.077,0l0,2l72,0l0,16l10,0l0,40l21,0l2.402,11.208c0.398,1.861 0.739,3.734 1.022,5.616c0.504,3.36 1.35,9.002 1.934,12.898c0.428,2.85 0.72,5.719 0.875,8.597c0.199,3.669 0.476,8.798 0.637,11.777c0.087,1.602 0.13,3.207 0.13,4.811c0,2.429 0,6.22 0,9.099c0,2.661 -0.121,5.321 -0.362,7.972c-0.211,2.323 -0.458,5.041 -0.573,6.306c-0.043,0.477 -0.081,0.955 -0.113,1.433l-0.085,1.283l42.133,0l27,34c0,0 0,0 0,0c-2.658,4.652 -4.777,9.591 -6.317,14.722l-0.914,3.048c-1.844,6.147 -3.298,12.405 -4.353,18.735c-0.097,0.579 -0.182,1.091 -0.25,1.497c-0.111,0.665 -0.232,1.329 -0.364,1.99c0,0 0,0 0,0c-1.199,5.991 -1.802,12.085 -1.802,18.195c0,2.969 0,6.152 0,8.714c0,3.391 0.335,6.774 1,10.099c0,0 0,0 0,0c0.665,3.325 1.657,6.577 2.961,9.707c1.037,2.489 2.204,5.289 2.74,6.576c0.199,0.478 0.401,0.955 0.605,1.431c0,0 0,0 0,0c1.78,4.153 4.335,7.927 7.53,11.122l6.164,6.164c0,0 -2.714,-0.987 -5.446,-1.98c-3.697,-1.345 -7.288,-2.966 -10.742,-4.85c-0.001,0 -0.001,0 -0.001,0c-3.861,-2.107 -7.471,-4.645 -10.759,-7.568c-0.16,-0.143 -0.32,-0.285 -0.479,-0.426c-2.377,-2.113 -4.555,-4.439 -6.508,-6.95c-0.187,-0.24 -0.376,-0.483 -0.565,-0.726c-2.326,-2.99 -4.302,-6.237 -5.889,-9.676c-0.277,-0.601 -0.562,-1.218 -0.844,-1.829c-1.842,-3.992 -3.401,-8.108 -4.664,-12.319c-0.239,-0.794 -0.462,-1.54 -0.645,-2.15c-0.292,-0.973 -0.54,-1.959 -0.743,-2.955l-0.731,1.46c-1.322,2.645 -2.553,5.335 -3.691,8.065c-1.448,3.476 -3.293,7.904 -3.293,7.904c0,0 -1.017,2.204 -2.214,4.796c-2.521,5.463 -4.674,11.089 -6.443,16.84c-0.371,1.204 -0.707,2.298 -0.951,3.089c-0.261,0.85 -0.514,1.702 -0.758,2.557c-0.339,1.187 -0.873,3.056 -1.429,5c-1.467,5.135 -2.472,10.391 -3.004,15.705c0,0 0,0 0,0c-0.134,1.341 -0.201,2.688 -0.201,4.036c0,0.966 0,2.174 0,3.388c0,3.702 0.597,7.379 1.767,10.891l0.233,0.698l-8,0c0,0 0,0 0,0c-1.332,-1.998 -2.539,-4.077 -3.612,-6.225c-0.711,-1.421 -1.388,-2.775 -1.388,-2.775c0,0 -0.999,-1.665 -1.844,-3.073c-0.77,-1.284 -1.491,-2.597 -2.161,-3.937c-0.25,-0.5 -0.52,-1.041 -0.779,-1.558c-0.809,-1.618 -1.466,-3.307 -1.963,-5.046c0,0 0,0 0,0c-0.831,-2.91 -1.253,-5.921 -1.253,-8.947c0,-2.543 0,-5.716 0,-8.34c0,-3.391 0.335,-6.774 1,-10.099c0,0 0,0 0,0c0,0 0,0 0,0c0.504,-2.522 1.263,-4.984 2.262,-7.35c-1.185,0.781 -2.379,1.548 -3.582,2.3c-0.824,0.515 -1.673,1.046 -2.51,1.569c-4.777,2.986 -9.694,5.743 -14.732,8.262c-0.047,0.023 -0.093,0.047 -0.14,0.07c-5.525,2.762 -11.239,5.129 -17.1,7.083c-2.234,0.745 -4.485,1.495 -6.2,2.067c-1.999,0.666 -4.011,1.288 -6.036,1.867c-2.716,0.776 -6.617,1.891 -8.959,2.56c-1.335,0.381 -2.677,0.74 -4.024,1.077c-4.303,1.076 -13.979,3.495 -13.979,3.495c0,0 4.284,-1.648 7.934,-3.051c3.361,-1.293 6.527,-3.045 9.409,-5.206c0,0 0,0 0,0c2.435,-1.826 4.737,-3.823 6.89,-5.976l10.392,-10.392c0.916,-0.916 1.802,-1.863 2.655,-2.838c0,0 0,0 0,0c3.808,-4.352 7.279,-8.987 10.383,-13.865c0.82,-1.288 1.543,-2.425 1.961,-3.081c0.123,-0.194 0.245,-0.388 0.366,-0.583c-2.661,1.994 -5.454,3.805 -8.361,5.42c-0.282,0.157 -0.565,0.314 -0.845,0.47c-2.522,1.401 -5.092,2.713 -7.707,3.933c-2.251,1.05 -5.064,2.363 -7.292,3.403c-2.523,1.177 -5.085,2.266 -7.683,3.265c-0.157,0.061 -0.316,0.122 -0.476,0.183c-5.74,2.208 -11.658,3.924 -17.688,5.13c-0.58,0.116 -0.938,0.188 -0.938,0.188c0,0 4.666,-3.11 7.278,-4.852c1.148,-0.765 2.267,-1.572 3.355,-2.418c0,0 0,0 0,0c4.901,-3.812 9.442,-8.065 13.567,-12.705c0.044,-0.05 0.088,-0.099 0.131,-0.147c1.112,-1.252 2.2,-2.526 3.26,-3.823c1.149,-1.404 2.74,-3.349 4.154,-5.076c2.169,-2.652 4.252,-5.374 6.243,-8.162c0.183,-0.257 0.363,-0.509 0.535,-0.749c0.984,-1.378 1.926,-2.787 2.824,-4.223c0.177,-0.283 0.364,-0.583 0.556,-0.89c2.06,-3.296 3.799,-6.781 5.195,-10.409c0,0 0,0 0,0c1.933,-5.027 3.612,-10.149 5.029,-15.346c0.049,-0.179 0.097,-0.353 0.143,-0.523c0.486,-1.782 0.845,-3.597 1.074,-5.431c0.22,-1.759 0.485,-3.876 0.599,-4.789c0.038,-0.305 0.074,-0.609 0.108,-0.914c0.005,-0.047 0.01,-0.096 0.016,-0.148c0.622,-5.592 0.933,-11.215 0.933,-16.842l0,-6.98c-0.272,-0.573 -0.533,-1.151 -0.783,-1.734c0,0 0,0 0,0c-0.811,-1.892 -1.678,-3.76 -2.598,-5.602c-0.118,-0.234 -0.236,-0.47 -0.352,-0.703c-0.844,-1.688 -1.599,-3.42 -2.262,-5.187c-0.397,-1.06 -0.849,-2.263 -1.222,-3.259c-0.522,-1.392 -1.076,-2.771 -1.661,-4.138c-0.372,-0.866 -0.805,-1.877 -1.183,-2.758c-0.626,-1.461 -1.191,-2.947 -1.693,-4.454c-0.142,-0.425 -0.29,-0.87 -0.433,-1.3c-0.542,-1.625 -1.131,-3.234 -1.767,-4.824c-0.241,-0.602 -0.51,-1.274 -0.786,-1.963c-1.501,-3.754 -2.549,-7.674 -3.121,-11.676c0,0 0,0 0,-0.001c-0.093,-0.649 -0.21,-1.295 -0.353,-1.935c-0.293,-1.322 -0.786,-3.539 -0.786,-3.539c0,0 -1.087,-4.078 -1.659,-6.22c-0.227,-0.853 -0.437,-1.711 -0.628,-2.573c-0.554,-2.49 -1.713,-7.707 -1.713,-7.707c0,0 -0.274,1.096 -0.619,2.477c-0.92,3.679 -2.03,7.309 -3.327,10.874c-0.269,0.741 -0.54,1.485 -0.792,2.179c-0.841,2.313 -1.762,4.595 -2.761,6.844c-0.631,1.42 -1.334,2.999 -1.833,4.123c-0.445,1.002 -0.913,1.994 -1.404,2.974c-2.173,4.346 -4.683,8.515 -7.507,12.469c-0.09,0.126 -0.174,0.243 -0.25,0.351c-0.338,0.473 -0.668,0.951 -0.99,1.434c-1.065,1.597 -3.517,5.275 -3.517,5.275l1,-4c0,0 0.915,-4.115 1.507,-6.78c0.329,-1.48 0.618,-2.968 0.867,-4.463c0.219,-1.317 0.473,-2.842 0.578,-3.467c0.032,-0.193 0.067,-0.386 0.106,-0.578c0,0 0,0 0,0c0.626,-3.134 0.942,-6.321 0.942,-9.517l0,-12.195c0,0 -0.278,2.362 -0.541,4.596c-0.306,2.601 -0.729,5.188 -1.269,7.751c-0.554,2.634 -1.19,5.653 -1.19,5.653c0,0 -0.084,0.585 -0.202,1.417c-0.532,3.718 -1.316,7.395 -2.347,11.006c0,0 0,0 0,0c-0.301,1.051 -0.624,2.096 -0.97,3.133c-0.858,2.575 -2.481,7.444 -2.481,7.444c0,0 -0.067,0.2 -0.176,0.528c-1.213,3.64 -2.771,7.155 -4.652,10.499c0,0 0,0 0,0c-1.114,1.981 -2.325,3.906 -3.628,5.767c-0.801,1.145 -1.544,2.206 -1.544,2.206c0,0 -0.049,-0.041 -0.139,-0.116c-3.899,-3.249 -7.496,-6.846 -10.745,-10.745c0,0 0,0 0,0c-0.077,-0.093 -0.154,-0.186 -0.229,-0.28c-0.415,-0.519 -1.886,-2.358 -2.894,-3.618c-0.662,-0.827 -1.301,-1.672 -1.917,-2.534c-0.367,-0.515 -0.812,-1.137 -1.27,-1.779c-1.868,-2.615 -3.528,-5.372 -4.965,-8.246c-0.406,-0.811 -0.803,-1.605 -1.123,-2.247c-0.479,-0.956 -0.929,-1.927 -1.35,-2.91c-0.88,-2.053 -2.368,-5.525 -2.368,-5.525c0,0 -0.98,-1.961 -1.82,-3.641c-0.786,-1.572 -1.507,-3.176 -2.16,-4.808c-0.875,-2.188 -2.02,-5.051 -2.02,-5.051l0,-2.5l-0.42,0c0.094,0.643 0.199,1.282 0.314,1.919c0.065,0.357 0.106,0.581 0.106,0.581c0,0 0.733,4.764 0.944,6.135c0.037,0.243 0.076,0.486 0.117,0.729c0.133,0.8 0.457,2.746 0.688,4.127c0.167,1.006 0.362,2.007 0.583,3.002c0.349,1.571 0.898,4.043 1.27,5.717c0.265,1.193 0.574,2.376 0.925,3.546c0.544,1.814 1.389,4.632 1.937,6.457c0.357,1.191 0.767,2.365 1.229,3.519c0,0.001 0.001,0.003 0.001,0.004c0.87,2.173 1.889,4.284 3.05,6.316c0,0 0,0 0,0c1.5,2.626 3.259,5.094 5.25,7.37c1.901,2.173 4.006,4.578 4.006,4.578c0,0 -3.646,-2.431 -5.254,-3.503c-0.497,-0.331 -0.985,-0.676 -1.463,-1.035c0,0 -0.001,0 -0.001,0c-2.185,-1.639 -4.252,-3.432 -6.183,-5.363l-2.48,-2.48c-1.745,-1.745 -3.391,-3.585 -4.933,-5.511c-0.152,-0.19 -0.301,-0.377 -0.444,-0.556c-0.828,-1.034 -1.627,-2.091 -2.398,-3.17c-0.566,-0.792 -1.263,-1.769 -1.908,-2.671c-1.29,-1.806 -2.488,-3.676 -3.589,-5.604l-3.95,-6.913c-1.596,-2.791 -2.964,-5.707 -4.093,-8.717c-0.167,-0.445 -0.331,-0.882 -0.483,-1.286c-0.547,-1.46 -1.035,-2.941 -1.464,-4.44c-0.307,-1.077 -0.667,-2.335 -0.938,-3.286c-0.279,-0.977 -0.58,-1.947 -0.901,-2.91c-0.468,-1.406 -1.188,-3.565 -1.738,-5.215c-0.52,-1.559 -0.959,-3.144 -1.315,-4.748c-0.305,-1.372 -0.684,-3.079 -0.98,-4.412c-0.323,-1.452 -0.577,-2.92 -0.762,-4.396c-0.296,-2.368 -0.723,-5.784 -0.723,-5.784c0,0 -0.541,-3.789 -0.827,-5.792c-0.115,-0.805 -0.21,-1.613 -0.284,-2.424c-0.166,-1.833 -0.484,-5.334 -0.692,-7.613c-0.131,-1.447 -0.197,-2.898 -0.197,-4.351l0,-33.82c0,0 -0.398,1.594 -0.692,2.769c-0.205,0.821 -0.391,1.646 -0.557,2.475c-0.242,1.209 -0.622,3.111 -0.967,4.834c-0.521,2.608 -0.784,5.262 -0.784,7.922l0,26.406c0,2.393 0.17,4.783 0.508,7.152c0.247,1.73 0.492,3.442 0.492,3.442c0,0 0.609,4.871 0.876,7.012c0.083,0.658 0.179,1.316 0.288,1.971c0.24,1.443 0.675,4.049 0.801,4.806c0.023,0.141 0.049,0.281 0.077,0.421c0,0 0,0 0,0c0.636,3.179 1.693,6.259 3.142,9.159c0.464,0.926 0.816,1.631 0.816,1.631l-2,-2c0,0 -0.122,-0.163 -0.317,-0.422c-1.785,-2.381 -3.352,-4.917 -4.683,-7.578l-0.695,-1.389c-0.87,-1.74 -1.688,-3.506 -2.455,-5.294c-0.846,-1.975 -1.85,-4.317 -1.85,-4.317c0,0 -0.808,-1.617 -1.586,-3.172c-0.941,-1.883 -1.748,-3.831 -2.414,-5.828c0,0 0,0 0,0c-0.666,-1.997 -1.174,-4.043 -1.52,-6.119c-0.422,-2.531 -0.993,-5.96 -1.287,-7.725c-0.129,-0.771 -0.248,-1.543 -0.359,-2.316c-0.112,-0.783 -0.265,-1.854 -0.409,-2.866c-0.283,-1.98 -0.425,-3.978 -0.425,-5.978l0,-27.996c0,0 0,0 0,0c-0.666,2.664 -1.512,5.279 -2.531,7.828c-0.271,0.678 -0.469,1.172 -0.469,1.172l-2,6c0,0 -0.317,0.952 -0.699,2.097c-0.867,2.601 -1.842,5.165 -2.922,7.684c-0.097,0.228 -0.194,0.454 -0.288,0.674c-0.727,1.696 -1.504,3.371 -2.329,5.022c-0.826,1.652 -1.762,3.523 -1.762,3.523l-4,9c0,0 -1.136,2.556 -2.197,4.943c-1.201,2.703 -2.538,5.343 -4.006,7.912c-0.492,0.86 -0.967,1.692 -1.305,2.284c-0.328,0.574 -0.662,1.144 -1.002,1.711c-0.47,0.783 -1.173,1.956 -1.713,2.855c-0.518,0.863 -1.056,1.714 -1.615,2.552c0,0 0,0 0,0c-2.106,3.159 -4.401,6.188 -6.872,9.071c-1.229,1.434 -2.29,2.672 -2.29,2.672c0,0 -0.274,0.329 -0.694,0.832c-2.867,3.441 -5.977,6.672 -9.306,9.668c0,0 0,0 0,0c0,0 -0.324,0.292 -0.807,0.727c-2.792,2.512 -5.761,4.819 -8.886,6.902c-0.004,0.002 -0.008,0.005 -0.012,0.008c-2.857,1.904 -5.883,3.544 -9.04,4.896c0,0.001 0,0.001 0,0.001c-1.502,0.643 -3.043,1.191 -4.614,1.64c-0.067,0.019 -0.135,0.039 -0.203,0.058c-2.943,0.841 -5.989,1.268 -9.053,1.268l-8.385,0c0,0 2.824,-0.471 4.597,-0.766c0.93,-0.155 1.832,-0.448 2.675,-0.87c0,0 0.001,0 0.001,0c1.811,-0.906 3.505,-2.03 5.042,-3.348c0.693,-0.594 1.455,-1.248 2.161,-1.852c1.678,-1.439 3.203,-3.047 4.551,-4.799c1.07,-1.391 2.26,-2.938 2.747,-3.571c0.151,-0.196 0.299,-0.394 0.444,-0.594c0,0 0,0 0.001,0c2.513,-3.456 4.63,-7.182 6.314,-11.109c0.28,-0.655 0.467,-1.091 0.467,-1.091c0,0 0.399,-0.932 0.906,-2.115c0.715,-1.667 1.381,-3.355 1.997,-5.06l-4.903,-8.825l-2,-19l11,-71l97,0l-0.077,8Zm110.077,189l0.025,0l-0.025,-0.026l0,0.026Zm-211.097,-98.175l0.097,0.175l3,-10c0,0 -0.732,2.44 -1.473,4.909c-0.496,1.654 -1.038,3.293 -1.624,4.916Z" style="fill:#a1ced5;"/>
	<path d="M321,159c0,0 -0.762,-0.953 -1.816,-2.27c-4.119,-5.149 -8.521,-10.067 -13.184,-14.73l-7.598,-7.598c-2.268,-2.268 -4.494,-4.578 -6.676,-6.928c-2.048,-2.205 -4.668,-5.027 -6.672,-7.185c-2.036,-2.193 -4.034,-4.42 -5.993,-6.68c-3.202,-3.694 -8.07,-9.312 -9.591,-11.066c-0.313,-0.362 -0.626,-0.725 -0.937,-1.088c-0.842,-0.982 -2.71,-3.162 -4.703,-5.486c-4.552,-5.311 -9.306,-10.445 -14.251,-15.39c-1.79,-1.79 -3.586,-3.586 -4.98,-4.98c-1.733,-1.733 -3.44,-3.49 -5.123,-5.271c-3.873,-4.101 -11.099,-11.752 -13.598,-14.399c-0.585,-0.619 -1.168,-1.241 -1.748,-1.866c-1.224,-1.318 -3.563,-3.837 -5.863,-6.314c-4.176,-4.497 -8.532,-8.825 -13.056,-12.973c-0.157,-0.144 -0.314,-0.287 -0.469,-0.429c-3.161,-2.898 -6.259,-5.864 -9.291,-8.896c-1.54,-1.54 -3.217,-3.217 -4.588,-4.588c-1.909,-1.909 -3.852,-3.781 -5.83,-5.618c-1.944,-1.805 -4.519,-4.196 -6.692,-6.214c-2.894,-2.687 -5.858,-5.295 -8.891,-7.823c-0.836,-0.696 -1.45,-1.208 -1.45,-1.208l0,-6l212,0l0,165l-59,0" style="fill:#31313c;"/>
	<path d="M351,212c0,0 -3.217,1.93 -4.49,2.694c-0.34,0.204 -0.669,0.425 -0.985,0.663c0,0 0,0 0,0c-2.342,1.756 -4.472,3.779 -6.345,6.028c-0.622,0.746 -1.217,1.459 -1.628,1.952c-0.368,0.442 -0.729,0.89 -1.082,1.344c-1.362,1.752 -4.961,6.379 -6.111,7.858c-0.239,0.307 -0.476,0.617 -0.709,0.928c-0.878,1.171 -3.2,4.267 -4.579,6.105c-0.714,0.952 -1.412,1.916 -2.095,2.89c-0.549,0.786 -1.266,1.809 -2.011,2.874c-2.641,3.773 -5.07,7.69 -7.276,11.734c-0.842,1.543 -1.651,3.026 -2.158,3.956c-0.354,0.649 -0.727,1.288 -1.119,1.915c-0.457,0.731 -1.124,1.798 -1.802,2.883c-1.739,2.783 -3.345,5.646 -4.812,8.58c0,0 0,0 0,0c-0.532,1.064 -1.032,2.143 -1.501,3.236c-0.151,0.353 -0.318,0.741 -0.49,1.143c-1.199,2.799 -2.771,5.422 -4.673,7.799c-0.149,0.187 -0.291,0.364 -0.42,0.525c-0.476,0.595 -0.984,1.163 -1.523,1.702c-0.888,0.888 -2.191,2.191 -2.191,2.191c0,0 -1.954,1.954 -3.419,3.419c-1.047,1.047 -2.256,1.919 -3.581,2.581c0,0 0,0 0,0c0,0 5.344,0 10.879,0c8.054,0 16.08,-0.932 23.919,-2.776c0,0 0.001,0 0.001,0c3.464,-0.815 6.881,-1.824 10.233,-3.021c0.708,-0.253 1.446,-0.517 2.18,-0.779c4.521,-1.614 8.941,-3.5 13.235,-5.647c1.093,-0.547 2.167,-1.084 3.075,-1.538c1.652,-0.826 3.32,-1.62 5.002,-2.382c2.08,-0.941 4.975,-2.252 6.798,-3.077c1.148,-0.52 2.286,-1.063 3.413,-1.629c1.365,-0.685 3.327,-1.671 4.997,-2.51c2.178,-1.094 4.382,-2.136 6.61,-3.126c1.056,-0.47 2.203,-0.979 3.187,-1.417c1.647,-0.732 3.315,-1.415 5.003,-2.048c0,0 0,0 0,0c3.642,-1.365 7.359,-2.523 11.133,-3.466l2.335,-0.584c5.313,-1.328 10.769,-2 16.246,-2l5.843,0l0,-53.5l-69.089,0l0,4.5" style="fill:#ffe6c2;"/>
	<path d="M345,66c0,0 0,0 0,0c-2.655,-4.646 -5.917,-8.917 -9.701,-12.701c-0.769,-0.769 -1.299,-1.299 -1.299,-1.299l-7,-7c0,0 0,0 0,0c-4.662,-4.662 -9.61,-9.03 -14.814,-13.078c-0.72,-0.56 -1.186,-0.922 -1.186,-0.922c0,0 -5.284,-4.11 -7.755,-6.032c-0.83,-0.645 -1.666,-1.284 -2.507,-1.915c-2.254,-1.69 -6.738,-5.053 -6.738,-5.053c0,0 -3.64,-2.73 -6.009,-4.507c-1.327,-0.995 -2.695,-1.933 -4.101,-2.812c-1.603,-1.002 -3.732,-2.332 -4.942,-3.089c-0.632,-0.395 -1.271,-0.777 -1.918,-1.146c-1.466,-0.838 -4.203,-2.402 -5.42,-3.097c-0.407,-0.233 -0.811,-0.47 -1.213,-0.711c-1.329,-0.797 -4.397,-2.638 -4.397,-2.638l0,-2.03l43,0c0,0 1.155,0.781 2.032,1.375c0.645,0.436 1.273,0.899 1.881,1.385c0,0 0,0 0,0c2.723,2.178 5.322,4.505 7.788,6.971l30.299,30.299l0,28l-6,0" style="fill:#ffe6c2;"/>
	<path d="M365,0c0,0 -3.848,9.235 -4.793,11.502c-0.138,0.332 -0.274,0.665 -0.407,0.999c-0.901,2.251 -4.572,11.43 -5.556,13.89c-0.163,0.406 -0.322,0.813 -0.479,1.221c-0.991,2.574 -4.765,12.388 -4.765,12.388c0,0 -2.516,6.039 -3.979,9.548c-0.68,1.635 -1.319,3.286 -1.914,4.953c-1.438,4.027 -4.107,11.499 -4.107,11.499c0,0 -2.072,5.387 -3.548,9.225c-0.968,2.516 -1.84,5.067 -2.614,7.649c-0.844,2.812 -1.838,6.126 -1.838,6.126c0,0 -0.972,2.915 -1.809,5.427c-0.793,2.38 -1.464,4.8 -2.008,7.249c0,0 0,0 0,0c-0.784,3.527 -1,7.156 -0.64,10.75c0.139,1.396 0.274,2.746 0.361,3.614c0.064,0.639 0.096,1.282 0.096,1.925c0,1.535 0,4.551 0,6.42c0,1.075 -0.067,2.15 -0.2,3.218c-0.173,1.383 -0.422,3.372 -0.596,4.764c-0.136,1.088 -0.323,2.169 -0.561,3.24c-0.177,0.796 -0.4,1.801 -0.625,2.813c-0.676,3.042 -1.723,5.989 -3.116,8.777c-0.296,0.591 -0.588,1.175 -0.852,1.703c-0.7,1.399 -1.465,2.764 -2.294,4.091c-1.17,1.872 -2.835,4.536 -3.483,5.573c-0.182,0.29 -0.373,0.576 -0.572,0.855c-0.1,0.14 -0.222,0.31 -0.36,0.504c-2.878,4.029 -5.137,8.465 -6.703,13.162c-0.02,0.062 -0.041,0.123 -0.061,0.183c-0.384,1.152 -0.663,2.337 -0.835,3.539c-0.003,0.023 -0.007,0.046 -0.01,0.069c-0.481,3.37 -0.172,6.805 0.905,10.034c0,0.001 0,0.001 0,0.001c0.241,0.724 0.554,1.423 0.933,2.086c0.065,0.114 0.134,0.236 0.207,0.364c2.132,3.729 4.913,7.047 8.213,9.797c0.438,0.365 0.773,0.644 0.923,0.77c0.058,0.048 0.116,0.096 0.175,0.143c0.096,0.076 0.263,0.21 0.481,0.384c2.941,2.353 6.179,4.31 9.629,5.819c1.53,0.67 2.802,1.226 2.802,1.226l12.915,6.457c1.389,0.695 2.814,1.316 4.268,1.862l21.369,8.013c0.299,0.112 0.599,0.218 0.902,0.319c0.184,0.062 0.415,0.139 0.679,0.227c3.196,1.065 6.604,1.332 9.928,0.779c0,0 0,0 0,0c0.624,-0.105 1.238,-0.269 1.83,-0.491c2.086,-0.782 7.109,-2.666 7.109,-2.666c0,0 2.565,-0.855 4.956,-1.652c2.689,-0.896 5.284,-2.056 7.745,-3.463c1.681,-0.96 3.299,-1.885 3.299,-1.885l9,-4l5.089,0.106l-0.089,-213.106l-54.295,-0.03l-0.705,2.03" style="fill:#ffe6c2;"/>
	<clipPath id="_clip1">
		<path d="M149,299c0,0 4.171,0.782 8.254,1.548c5.162,0.968 10.361,1.727 15.583,2.277c1.059,0.111 2.146,0.226 3.207,0.338c5.3,0.557 10.626,0.837 15.956,0.837c0,0 0,0 0,0c0,0 1.192,1.907 2.411,3.858c1.722,2.755 3.163,5.674 4.304,8.715c0,0 0,0 0,0c0.85,2.266 1.285,4.667 1.285,7.087c0,0.162 0,0.322 0,0.477c0,1.209 -0.392,2.386 -1.118,3.353c-0.207,0.276 -0.424,0.567 -0.635,0.848c-0.82,1.093 -1.883,1.98 -3.106,2.591c0,0 0,0 0,0c-2.723,1.362 -5.726,2.071 -8.771,2.071c-0.293,0 -0.591,0 -0.892,0c-4.945,0 -9.85,-0.889 -14.479,-2.626c-0.609,-0.228 -0.999,-0.374 -0.999,-0.374c0,0 -0.816,-0.306 -1.928,-0.723c-4.001,-1.501 -7.636,-3.841 -10.658,-6.863c0,0 0,0 0,0c-0.939,-0.939 -1.76,-1.99 -2.443,-3.129c-0.151,-0.252 -0.31,-0.516 -0.468,-0.781c-0.999,-1.664 -1.813,-3.433 -2.427,-5.275c-0.23,-0.69 -0.481,-1.445 -0.727,-2.183c-0.897,-2.691 -1.526,-5.464 -1.878,-8.278c-0.24,-1.92 -0.471,-3.768 -0.471,-3.768Z"/>
	</clipPath>
	<g clip-path="url(#_clip1)">
		<path d="M157,322c0,0 0,-1.256 0,-2.509c0,-1.617 0.525,-3.19 1.495,-4.484c0,0 0,0 0,0c0.998,-1.331 2.181,-2.514 3.512,-3.512c0.332,-0.249 0.665,-0.499 0.96,-0.72c0.687,-0.516 1.42,-0.968 2.188,-1.353c0.019,-0.009 0.039,-0.019 0.058,-0.028c1.833,-0.917 3.854,-1.394 5.903,-1.394l22.884,0l2,2l5,1l0,24l-44,0l0,-13" style="fill:#ffbcc3;"/>
		<path d="M157,300c0,0 1.707,1.422 3.3,2.75c1.79,1.492 3.788,2.716 5.931,3.635c0.24,0.102 0.482,0.206 0.721,0.309c2.022,0.866 4.156,1.444 6.339,1.717c1.151,0.144 2.384,0.298 3.299,0.413c0.939,0.117 1.885,0.176 2.831,0.176c1.501,0 3.946,0 6.107,0c2.941,0 5.841,-0.685 8.472,-2c0,0 0,0 0,0l0,-7l-37,0Z" style="fill:#fff;"/>
	</g>
	<clipPath id="_clip2">
		<path d="M144,218l1,2.757l0,13.303c0,2.591 -0.603,5.147 -1.762,7.464c-0.138,0.277 -0.274,0.547 -0.401,0.802c-0.557,1.114 -1.213,2.175 -1.96,3.172c0,0 0,0 0,0c-1.182,1.575 -3.036,2.502 -5.005,2.502c-0.508,0 -0.872,0 -0.872,0c0,0 -0.151,0 -0.395,0c-2.35,0 -4.649,-0.696 -6.605,-2c0,0 0,0 0,0c0,0 0,0 0,0c-1.98,-1.32 -3.68,-3.02 -5,-5c0,0 0,0 0,0l-1,-2c0,0 0.29,-0.145 0.649,-0.324c0.828,-0.414 1.351,-1.261 1.351,-2.186c0,-0.001 0,-0.001 0,-0.001c0,-0.313 -0.124,-0.613 -0.346,-0.835c-0.289,-0.289 -0.654,-0.654 -0.654,-0.654c0,0 0,0 0,0c-0.64,-0.64 -1.509,-1 -2.414,-1c-0.329,0 -0.586,0 -0.586,0l-1,0l-1,-3c0,0 0,0 0,0c-0.662,-1.987 -1,-4.068 -1,-6.162c0,-0.994 0,-1.838 0,-1.838l0,-7l0,-2c0,0 0.849,0 1.764,0c1.37,0 2.623,-0.774 3.236,-2c0,0 0,0 0,0c0,0 0,0 0,0c0.658,-1.315 1,-2.766 1,-4.236c0,-0.162 0,-0.264 0,-0.264c0,0 0,-0.712 0,-1.376c0,-0.739 -0.172,-1.468 -0.503,-2.129c0,-0.001 0,-0.001 0,-0.001c-0.329,-0.658 -0.762,-1.259 -1.283,-1.78c-0.07,-0.07 -0.142,-0.142 -0.214,-0.214c-0.662,-0.662 -1.427,-1.214 -2.265,-1.632c-0.398,-0.199 -0.735,-0.368 -0.735,-0.368c0,0 0.408,-1.223 0.703,-2.108c0.198,-0.594 0.438,-1.173 0.718,-1.733c0,0 0,0 0,0c0.383,-0.768 0.888,-1.468 1.495,-2.075c0.052,-0.052 0.084,-0.084 0.084,-0.084l3,0l5,3l8,7l5,7l2,7Z"/>
	</clipPath>
	<g clip-path="url(#_clip2)">
		<path d="M117,224c0,0 1.989,-1.989 2.728,-2.728c0.181,-0.181 0.379,-0.343 0.592,-0.485c0,-0.001 0,-0.001 0.001,-0.001c1.747,-1.164 3.8,-1.786 5.899,-1.786l0.78,0c1.956,0 3.869,0.579 5.496,1.664l0.504,0.336c1.986,1.324 3.731,2.975 5.163,4.884c0.474,0.632 0.837,1.116 0.837,1.116l2.618,3.927c0.917,1.376 1.647,2.868 2.17,4.436c0,0 0,0 0,0.001c0.14,0.421 0.212,0.863 0.212,1.307l0,1.329c0,1.331 -0.11,2.66 -0.329,3.973c-0.291,1.748 -0.671,4.027 -0.671,4.027l-5,3l-9,0l-6,-4l-3,-6l-2,-5l-1,-6l0,-4" style="fill:#aeffff;"/>
		<path d="M131.119,219.406c-0.079,0.395 -0.119,0.797 -0.119,1.2l0,3.443c0,1.296 0.159,2.587 0.473,3.844c0.013,0.053 0.027,0.106 0.04,0.159c0.319,1.275 0.978,2.439 1.907,3.368c0,0 0,0 0,0c0.384,0.384 0.828,0.704 1.314,0.947c0.181,0.091 0.376,0.188 0.556,0.278c0.467,0.233 0.982,0.355 1.504,0.355c0.137,0 0.28,0 0.417,0c0.519,0 1.031,-0.121 1.495,-0.353c0,0 0,0 0.001,0c0.839,-0.42 1.52,-1.101 1.94,-1.94c0,-0.001 0,-0.001 0,-0.001c0.232,-0.464 0.353,-0.976 0.353,-1.495c0,-0.56 0,-1.211 0,-1.211l0,-5c0,0 0,0 0,0c0,-1.315 -0.306,-2.612 -0.894,-3.789c-0.065,-0.13 -0.106,-0.211 -0.106,-0.211c0,0 -0.292,-0.583 -0.56,-1.12c-0.291,-0.583 -0.675,-1.115 -1.136,-1.576c0,0 0,0 -0.001,-0.001c-0.834,-0.834 -1.966,-1.303 -3.146,-1.303c-0.098,0 -0.157,0 -0.157,0c0,0 0,0 0,0c-0.64,0 -1.254,0.254 -1.707,0.707c-0.182,0.182 -0.379,0.379 -0.562,0.562c-0.484,0.484 -0.887,1.043 -1.193,1.656c0,0 0,0 0,0c-0.137,0.272 -0.236,0.562 -0.296,0.86c-0.038,0.191 -0.083,0.417 -0.123,0.621Z" style="fill:#6badca;"/>
	</g>
</svg>
