<?xml version="1.0" encoding="UTF-8" standalone="no"?>
<!DOCTYPE svg PUBLIC "-//W3C//DTD SVG 1.1//EN" "http://www.w3.org/Graphics/SVG/1.1/DTD/svg11.dtd">
<svg width="100%" height="100%" viewBox="0 0 400 400" version="1.1" xmlns="http://www.w3.org/2000/svg" xmlns:xlink="http://www.w3.org/1999/xlink" xml:space="preserve" style="fill-rule:evenodd;clip-rule:evenodd;stroke-linejoin:round;stroke-miterlimit:1.41421;">
    <g id="complete">
        <path id="body" d="M126,218c0,0 -0.506,-0.169 -1.103,-0.368c-1.256,-0.418 -2.572,-0.632 -3.897,-0.632c0,0 0,0 0,0l-11,-10c0,0 -0.575,1.439 -1.29,3.225c-1.804,4.509 -3.239,9.157 -4.293,13.899c-0.244,1.098 -0.417,1.876 -0.417,1.876c0,0 -0.558,2.51 -1.084,4.879c-0.61,2.746 -1.091,5.519 -1.44,8.31c-0.157,1.259 -0.311,2.493 -0.4,3.201c-0.051,0.407 -0.099,0.814 -0.144,1.221c-0.085,0.767 -0.24,2.157 -0.398,3.587c-0.356,3.199 -0.534,6.415 -0.534,9.633c0,1.118 0,2.248 0,3.164c0,1.336 0.067,2.671 0.199,4c0.024,0.233 0.048,0.48 0.074,0.737c0.483,4.83 1.502,9.592 3.037,14.198c0,0 0,0 0,0c1.124,3.373 2.546,6.64 4.249,9.762c0.438,0.803 0.889,1.629 1.314,2.408c1.417,2.598 2.971,5.119 4.656,7.553c0.748,1.08 1.587,2.292 2.406,3.475c2.705,3.907 5.755,7.562 9.115,10.922c0.525,0.525 1.05,1.05 1.551,1.551c2.264,2.264 4.666,4.384 7.193,6.35c0.908,0.706 1.855,1.442 2.688,2.091c1.678,1.305 3.413,2.534 5.201,3.683c1.779,1.143 4.168,2.679 6.293,4.045c3.343,2.149 6.869,3.999 10.538,5.527c0.962,0.401 1.941,0.809 2.837,1.183c2.43,1.012 4.923,1.867 7.463,2.56c1.959,0.535 4.235,1.155 5.692,1.552c0.996,0.272 1.989,0.556 2.978,0.853c1.534,0.46 3.962,1.189 5.834,1.75c1.787,0.536 3.602,0.972 5.437,1.306c1.903,0.346 4.397,0.799 6.141,1.116c1.402,0.255 2.815,0.445 4.234,0.568c1.471,0.128 3.473,0.302 5.249,0.457c2.727,0.237 5.473,-0.003 8.117,-0.708c0.001,0 0.001,0 0.001,0c2.32,-0.618 4.522,-1.613 6.52,-2.945c1.052,-0.702 2.226,-1.484 3.253,-2.169c1.818,-1.212 3.555,-2.542 5.199,-3.98c0.259,-0.227 0.528,-0.462 0.801,-0.701c3.145,-2.752 5.994,-5.824 8.501,-9.167c0.447,-0.596 0.869,-1.159 1.224,-1.632c0.67,-0.893 1.315,-1.805 1.934,-2.734c0.294,-0.44 0.631,-0.946 0.972,-1.457c1.398,-2.097 2.664,-4.279 3.791,-6.534c0.1,-0.2 0.202,-0.402 0.303,-0.604c1.335,-2.671 2.479,-5.433 3.423,-8.265c0,0 0,0 0,0c1.053,-3.16 1.881,-6.391 2.477,-9.668c0.211,-1.163 0.429,-2.361 0.615,-3.383c0.327,-1.796 0.591,-3.603 0.793,-5.418c0.064,-0.581 0.134,-1.209 0.204,-1.836c0.328,-2.958 0.493,-5.933 0.493,-8.91c0,-3.761 0,-8.531 0,-8.531l0,-65l-127,0l0,14" style="fill:#fff;"/>
        <clipPath id="_clip1">
            <path id="body1" d="M126,218c0,0 -0.506,-0.169 -1.103,-0.368c-1.256,-0.418 -2.572,-0.632 -3.897,-0.632c0,0 0,0 0,0l-11,-10c0,0 -0.575,1.439 -1.29,3.225c-1.804,4.509 -3.239,9.157 -4.293,13.899c-0.244,1.098 -0.417,1.876 -0.417,1.876c0,0 -0.558,2.51 -1.084,4.879c-0.61,2.746 -1.091,5.519 -1.44,8.31c-0.157,1.259 -0.311,2.493 -0.4,3.201c-0.051,0.407 -0.099,0.814 -0.144,1.221c-0.085,0.767 -0.24,2.157 -0.398,3.587c-0.356,3.199 -0.534,6.415 -0.534,9.633c0,1.118 0,2.248 0,3.164c0,1.336 0.067,2.671 0.199,4c0.024,0.233 0.048,0.48 0.074,0.737c0.483,4.83 1.502,9.592 3.037,14.198c0,0 0,0 0,0c1.124,3.373 2.546,6.64 4.249,9.762c0.438,0.803 0.889,1.629 1.314,2.408c1.417,2.598 2.971,5.119 4.656,7.553c0.748,1.08 1.587,2.292 2.406,3.475c2.705,3.907 5.755,7.562 9.115,10.922c0.525,0.525 1.05,1.05 1.551,1.551c2.264,2.264 4.666,4.384 7.193,6.35c0.908,0.706 1.855,1.442 2.688,2.091c1.678,1.305 3.413,2.534 5.201,3.683c1.779,1.143 4.168,2.679 6.293,4.045c3.343,2.149 6.869,3.999 10.538,5.527c0.962,0.401 1.941,0.809 2.837,1.183c2.43,1.012 4.923,1.867 7.463,2.56c1.959,0.535 4.235,1.155 5.692,1.552c0.996,0.272 1.989,0.556 2.978,0.853c1.534,0.46 3.962,1.189 5.834,1.75c1.787,0.536 3.602,0.972 5.437,1.306c1.903,0.346 4.397,0.799 6.141,1.116c1.402,0.255 2.815,0.445 4.234,0.568c1.471,0.128 3.473,0.302 5.249,0.457c2.727,0.237 5.473,-0.003 8.117,-0.708c0.001,0 0.001,0 0.001,0c2.32,-0.618 4.522,-1.613 6.52,-2.945c1.052,-0.702 2.226,-1.484 3.253,-2.169c1.818,-1.212 3.555,-2.542 5.199,-3.98c0.259,-0.227 0.528,-0.462 0.801,-0.701c3.145,-2.752 5.994,-5.824 8.501,-9.167c0.447,-0.596 0.869,-1.159 1.224,-1.632c0.67,-0.893 1.315,-1.805 1.934,-2.734c0.294,-0.44 0.631,-0.946 0.972,-1.457c1.398,-2.097 2.664,-4.279 3.791,-6.534c0.1,-0.2 0.202,-0.402 0.303,-0.604c1.335,-2.671 2.479,-5.433 3.423,-8.265c0,0 0,0 0,0c1.053,-3.16 1.881,-6.391 2.477,-9.668c0.211,-1.163 0.429,-2.361 0.615,-3.383c0.327,-1.796 0.591,-3.603 0.793,-5.418c0.064,-0.581 0.134,-1.209 0.204,-1.836c0.328,-2.958 0.493,-5.933 0.493,-8.91c0,-3.761 0,-8.531 0,-8.531l0,-65l-127,0l0,14"/>
        </clipPath>
        <g clip-path="url(#_clip1)">
            <path d="M126,218c0,0 -0.506,-0.169 -1.103,-0.368c-1.256,-0.418 -2.572,-0.632 -3.897,-0.632c0,0 0,0 0,0l-11,-10c0,0 -0.575,1.439 -1.29,3.225c-1.804,4.509 -3.239,9.157 -4.293,13.899c-0.244,1.098 -0.417,1.876 -0.417,1.876c0,0 -0.558,2.51 -1.084,4.879c-0.61,2.746 -1.091,5.519 -1.44,8.31c-0.157,1.259 -0.311,2.493 -0.4,3.201c-0.051,0.407 -0.099,0.814 -0.144,1.221c-0.085,0.767 -0.24,2.157 -0.398,3.587c-0.356,3.199 -0.534,6.415 -0.534,9.633c0,1.118 0,2.248 0,3.164c0,1.336 0.067,2.671 0.199,4c0.024,0.233 0.048,0.48 0.074,0.737c0.483,4.83 1.502,9.592 3.037,14.198c0,0 0,0 0,0c1.124,3.373 2.546,6.64 4.249,9.762c0.438,0.803 0.889,1.629 1.314,2.408c1.417,2.598 2.971,5.119 4.656,7.553c0.748,1.08 1.587,2.292 2.406,3.475c2.705,3.907 5.755,7.562 9.115,10.922c0.525,0.525 1.05,1.05 1.551,1.551c2.264,2.264 4.666,4.384 7.193,6.35c0.908,0.706 1.855,1.442 2.688,2.091c1.678,1.305 3.413,2.534 5.201,3.683c1.779,1.143 4.168,2.679 6.293,4.045c3.343,2.149 6.869,3.999 10.538,5.527c0.962,0.401 1.941,0.809 2.837,1.183c2.43,1.012 4.923,1.867 7.463,2.56c1.959,0.535 4.235,1.155 5.692,1.552c0.996,0.272 1.989,0.556 2.978,0.853c1.534,0.46 3.962,1.189 5.834,1.75c1.787,0.536 3.602,0.972 5.437,1.306c1.903,0.346 4.397,0.799 6.141,1.116c1.402,0.255 2.815,0.445 4.234,0.568c1.471,0.128 3.473,0.302 5.249,0.457c2.727,0.237 5.473,-0.003 8.117,-0.708c0.001,0 0.001,0 0.001,0c2.32,-0.618 4.522,-1.613 6.52,-2.945c1.052,-0.702 2.226,-1.484 3.253,-2.169c1.818,-1.212 3.555,-2.542 5.199,-3.98c0.259,-0.227 0.528,-0.462 0.801,-0.701c3.145,-2.752 5.994,-5.824 8.501,-9.167c1.203,-1.604 2.229,-2.972 2.229,-2.972l5,-7c0,0 -2.803,2.803 -5.09,5.09c-1.935,1.935 -4.057,3.675 -6.334,5.193c-0.213,0.142 -0.423,0.282 -0.626,0.417c-1.299,0.866 -2.65,1.65 -4.046,2.348c-0.194,0.097 -0.394,0.197 -0.596,0.298c-2.193,1.096 -4.538,1.859 -6.956,2.262c-0.001,0 -0.001,0 -0.001,0c-1.565,0.261 -3.148,0.392 -4.735,0.392c-1.501,0 -3.536,0 -5.574,0c-5.341,0 -10.662,-0.655 -15.844,-1.951c0,0 0,0 0,0c-2.796,-0.698 -5.54,-1.586 -8.215,-2.656c-1.68,-0.672 -3.513,-1.405 -4.702,-1.88c-0.853,-0.342 -1.687,-0.73 -2.499,-1.162c-0.105,-0.057 -0.216,-0.116 -0.33,-0.177c-3.952,-2.107 -7.618,-4.712 -10.908,-7.749c0,0 0,0 0,0c-1.029,-0.949 -2,-1.958 -2.911,-3.02c-0.875,-1.021 -2.017,-2.352 -2.947,-3.439c-1.124,-1.31 -2.204,-2.657 -3.24,-4.038c-0.045,-0.06 -0.091,-0.121 -0.136,-0.181c-0.873,-1.164 -1.776,-2.306 -2.708,-3.425c-1.062,-1.274 -2.455,-2.946 -3.157,-3.788c-0.297,-0.356 -0.584,-0.719 -0.862,-1.09c0,0 0,0 0,0c-1.714,-2.286 -3.726,-4.333 -5.981,-6.087c-0.66,-0.513 -1.353,-1.052 -2.018,-1.57c-2.387,-1.856 -4.656,-3.859 -6.794,-5.997c-0.973,-0.973 -1.79,-1.79 -1.79,-1.79c0,0 -1.287,-1.287 -2.555,-2.555c-1.629,-1.629 -3.184,-3.331 -4.658,-5.101c-0.658,-0.789 -1.342,-1.61 -1.868,-2.241c-0.612,-0.735 -1.185,-1.502 -1.715,-2.297c-0.39,-0.585 -0.878,-1.317 -1.354,-2.031c-1.226,-1.839 -2.159,-3.857 -2.766,-5.982c0,0 0,0 0,-0.001c-0.719,-2.516 -1.084,-5.12 -1.084,-7.736c0,-0.759 0,-1.56 0,-2.34c0,-3.14 0.223,-6.276 0.667,-9.384c0.049,-0.346 0.096,-0.675 0.139,-0.971c0.129,-0.907 0.284,-1.811 0.464,-2.709c0.089,-0.448 0.191,-0.959 0.29,-1.454c0.292,-1.459 0.777,-2.872 1.442,-4.203c0,0 0.001,0 0.001,0c0.642,-1.285 1.734,-2.29 3.068,-2.823c1.375,-0.55 2.929,-1.172 2.929,-1.172l0,-13l-2,0" style="fill:#2d3338;"/>
        </g>
        <g id="leg">
            <path d="M198,348c0,0 0,-0.929 0,-1.987c0,-1.965 0.582,-3.885 1.671,-5.52c0.001,0 0.001,-0.001 0.001,-0.001c0.218,-0.327 0.468,-0.632 0.746,-0.91c0.23,-0.23 0.524,-0.524 0.795,-0.795c0.47,-0.47 1.188,-0.587 1.782,-0.289c0.003,0.001 0.005,0.002 0.007,0.003c0.648,0.324 1.173,0.849 1.497,1.497c0.049,0.098 0.099,0.197 0.146,0.293c0.234,0.466 0.355,0.981 0.355,1.502c0,0.356 0,0.781 0,1.162c0,0.694 0.085,1.385 0.253,2.059c0,0 0,0 0,0c0.498,1.99 0.948,3.992 1.351,6.004c0.029,0.148 0.058,0.293 0.086,0.433c0.207,1.032 0.477,2.049 0.809,3.047c0.053,0.158 0.105,0.315 0.156,0.466c0.23,0.69 0.508,1.362 0.833,2.013c0.001,0 0.001,0 0.001,0c1.005,2.011 2.19,3.928 3.539,5.727l2.699,3.599c0.848,1.13 1.774,2.198 2.773,3.197c0,0 0,0 0,0c0.999,0.999 2.067,1.925 3.197,2.773c0.057,0.042 0.114,0.085 0.171,0.128c1.418,1.064 2.93,1.998 4.516,2.791c0.223,0.112 0.44,0.22 0.639,0.32c0.651,0.325 1.323,0.603 2.013,0.833c0.15,0.05 0.307,0.103 0.464,0.155c0.999,0.333 1.973,0.736 2.914,1.207c0.19,0.095 0.388,0.194 0.586,0.293c1.332,0.666 2.709,1.236 4.121,1.707c0.05,0.017 0.099,0.033 0.147,0.049c0.469,0.156 0.856,0.492 1.077,0.935c0.093,0.186 0.195,0.388 0.289,0.577c0.218,0.437 0.133,0.965 -0.213,1.311c0,0 0,0 0,0c-0.935,0.935 -2.074,1.639 -3.327,2.056c-0.593,0.198 -1.094,0.365 -1.094,0.365c0,0 -1.053,0.351 -1.912,0.637c-0.721,0.241 -1.475,0.363 -2.235,0.363c-0.133,0 -0.273,0 -0.415,0c-1.622,0 -3.241,-0.146 -4.837,-0.436c-0.274,-0.05 -0.554,-0.101 -0.827,-0.151c-1.516,-0.275 -3.026,-0.58 -4.53,-0.914c0,0 0,0 0,0c-1.494,-0.332 -2.958,-0.784 -4.378,-1.353c-0.396,-0.158 -0.805,-0.321 -1.185,-0.474c-1.118,-0.447 -2.186,-1.009 -3.187,-1.676c-0.152,-0.102 -0.304,-0.203 -0.45,-0.3c-0.691,-0.461 -1.299,-1.035 -1.797,-1.7c-0.239,-0.319 -0.513,-0.684 -0.785,-1.047c-0.973,-1.297 -1.827,-2.678 -2.551,-4.128c0,0 0,0 0,0c-1.273,-2.544 -2.362,-5.175 -3.262,-7.874c-0.019,-0.058 -0.039,-0.117 -0.058,-0.174c-0.394,-1.181 -0.713,-2.385 -0.958,-3.606c-0.285,-1.427 -0.633,-3.167 -0.633,-3.167c0,0 0,0 0,0c-0.665,-3.325 -1,-6.708 -1,-10.099c0,-0.542 0,-0.901 0,-0.901" style="fill:#c0cddb;"/>
            <path d="M134,305c0,0 0,0 0,0c0.665,-3.326 1.634,-6.585 2.894,-9.734c0.067,-0.168 0.106,-0.266 0.106,-0.266c0,0 0.178,-0.445 0.428,-1.069c1.047,-2.619 2.204,-5.194 3.465,-7.718c0.001,0 0.001,0 0.001,0c0.737,-1.475 1.515,-2.929 2.334,-4.361c0.441,-0.772 0.941,-1.648 1.395,-2.441c0.916,-1.605 1.957,-3.136 3.111,-4.579c0.079,-0.099 0.159,-0.198 0.238,-0.297c1.329,-1.662 3.066,-2.95 5.042,-3.741c0,0 0,0 0,0c1.296,-0.518 2.715,-0.648 4.083,-0.375c0.231,0.047 0.466,0.094 0.699,0.14c1.419,0.284 2.684,1.081 3.553,2.239c0.05,0.067 0.101,0.135 0.151,0.202c0.987,1.317 1.668,2.838 1.99,4.452c0.038,0.186 0.075,0.373 0.112,0.556c0.258,1.291 0.078,2.631 -0.511,3.809c-0.258,0.517 -0.524,1.05 -0.729,1.46c-0.241,0.482 -0.501,0.954 -0.778,1.416c-0.048,0.08 -0.098,0.164 -0.152,0.253c-1.615,2.693 -3.555,5.177 -5.775,7.397c-0.393,0.393 -0.657,0.657 -0.657,0.657c0,0 -0.897,0.897 -1.842,1.842c-1.437,1.437 -2.974,2.77 -4.6,3.989c-0.833,0.625 -1.558,1.169 -1.558,1.169l-2.612,1.959c0,0 -0.56,0.42 -0.969,0.727c-0.279,0.209 -0.576,0.392 -0.888,0.548c0,0 0,0 0,0c-2.322,1.162 -4.883,1.766 -7.479,1.766c-0.615,0 -1.052,0 -1.052,0" style="fill:#c0cddb;"/>
        </g>
        <g id="hood">
            <path d="M154,212c0,0 0.764,1.527 1.347,2.694c0.434,0.869 0.946,1.697 1.529,2.474c0.216,0.288 0.459,0.611 0.714,0.952c1.939,2.585 4.004,5.073 6.187,7.455c0,0 0,0 0,0c1.482,1.616 3.029,3.169 4.64,4.656c0.235,0.217 0.477,0.44 0.72,0.664c2.241,2.069 4.574,4.036 6.991,5.896c0.887,0.682 1.736,1.335 2.277,1.752c0.397,0.304 0.799,0.602 1.206,0.893c0.172,0.124 0.376,0.269 0.602,0.43c3.836,2.741 8.061,4.892 12.534,6.383c0,0 0,0 0,0c1.501,0.5 3.022,0.943 4.557,1.327c0.844,0.211 1.81,0.453 2.705,0.676c1.992,0.498 4.015,0.862 6.055,1.088c0,0 0,0 0,0c3.948,0.439 7.929,0.494 11.888,0.164c0.113,-0.009 0.225,-0.019 0.338,-0.028c3.799,-0.317 7.56,-0.981 11.238,-1.984c0.435,-0.118 0.869,-0.237 1.293,-0.352c2.784,-0.759 5.522,-1.677 8.201,-2.749c2.779,-1.112 5.978,-2.391 5.978,-2.391l8,0l0,-42l-72,0l0,-21l-27,0l0,33" style="fill:#f0d735;"/>
            <path d="M214,82c0,0 11.554,0.642 16.148,0.897c1.234,0.069 2.465,0.185 3.69,0.348c1.588,0.212 3.984,0.531 6.299,0.84c4.565,0.609 9.062,1.648 13.431,3.104c0,0 0.001,0.001 0.001,0.001c1.613,0.537 3.148,1.288 4.563,2.232c0.283,0.188 0.577,0.384 0.872,0.58c1.988,1.326 3.785,2.918 5.34,4.732c0.679,0.793 1.405,1.64 2.03,2.369c1.084,1.264 2.11,2.575 3.078,3.93c0.467,0.654 0.994,1.391 1.496,2.094c1.354,1.896 2.312,4.045 2.818,6.319c0.139,0.625 0.284,1.278 0.424,1.908c0.539,2.429 0.934,4.887 1.182,7.362c0,0 0,0 0,0.001c0.409,4.091 -0.442,8.209 -2.439,11.803c-0.395,0.712 -0.771,1.388 -1.084,1.951c-0.566,1.019 -1.158,2.023 -1.776,3.012c-0.714,1.143 -1.717,2.748 -2.549,4.079c-1.015,1.624 -1.953,3.296 -2.81,5.01c0,0 0,0 0,0c-1.138,2.277 -1.993,4.684 -2.545,7.169c-0.379,1.702 -0.79,3.554 -1.01,4.542c-0.106,0.478 -0.207,0.957 -0.303,1.437c-0.459,2.295 -1.856,9.28 -1.856,9.28c0,0 0.35,-0.393 0.903,-1.016c4.721,-5.311 9.92,-10.179 15.529,-14.542c0,0 0,0 0,0c0.379,-0.295 0.763,-0.581 1.153,-0.86c1.683,-1.202 6.415,-4.582 6.415,-4.582c0,0 3.263,-2.331 5.333,-3.809c1.111,-0.794 2.261,-1.53 3.445,-2.207c0.001,0 0.001,0 0.001,0c3.476,-1.987 7.087,-3.73 10.805,-5.217c0.14,-0.057 0.28,-0.113 0.419,-0.168c2.64,-1.056 5.458,-1.599 8.302,-1.599c0.296,0 0.57,0 0.809,0c0.567,0 1.111,0.225 1.513,0.627c0.122,0.122 0.252,0.252 0.383,0.383c0.6,0.6 0.785,1.501 0.47,2.29c-0.102,0.254 -0.212,0.53 -0.325,0.813c-0.769,1.921 -1.69,3.779 -2.755,5.554c0,0 0,0 0,0c-0.933,1.555 -1.903,3.088 -2.909,4.597c-0.49,0.735 -1.022,1.533 -1.468,2.202c-0.682,1.023 -1.38,2.034 -2.095,3.034c-0.128,0.18 -0.263,0.369 -0.404,0.567c-2.345,3.283 -4.958,6.367 -7.811,9.22c0,0 0,0 0,0c-0.475,0.475 -0.966,0.934 -1.472,1.377c-1.441,1.261 -4.577,4.005 -6.208,5.432c-0.689,0.603 -1.385,1.197 -2.088,1.783c-1.721,1.434 -4.945,4.121 -4.945,4.121c0,0 -0.96,0.8 -2.113,1.76c-2.59,2.159 -5.261,4.221 -8.005,6.181c-1.521,1.087 -2.882,2.059 -2.882,2.059c0,0 -3.141,2.244 -5.215,3.725c-1.19,0.85 -2.393,1.681 -3.61,2.492c-0.627,0.418 -1.175,0.783 -1.175,0.783l0,48.19c0,4.499 -0.858,8.956 -2.529,13.133c0,0 0,0.001 0,0.001c-0.98,2.448 -2.113,4.832 -3.394,7.137c-0.543,0.978 -1.125,2.025 -1.634,2.942c-0.953,1.715 -2.231,3.227 -3.763,4.453c-0.435,0.348 -0.877,0.701 -1.273,1.019c-0.369,0.295 -0.842,0.428 -1.311,0.368c-0.469,-0.059 -0.893,-0.306 -1.177,-0.684c-0.134,-0.179 -0.274,-0.365 -0.413,-0.551c-0.978,-1.303 -1.506,-2.889 -1.506,-4.518c0,-1.793 0,-4.245 0,-6.329c0,-2.771 0.162,-5.541 0.486,-8.294c0.279,-2.366 0.63,-5.352 0.924,-7.851c0.393,-3.343 0.905,-6.671 1.535,-9.977c1.183,-6.209 3.055,-16.039 3.055,-16.039l5,-28l-77,-35.5l38,-69.5" style="fill:#404444;"/>
            <clipPath id="_clip2">
                <path d="M214,82c0,0 11.554,0.642 16.148,0.897c1.234,0.069 2.465,0.185 3.69,0.348c1.588,0.212 3.984,0.531 6.299,0.84c4.565,0.609 9.062,1.648 13.431,3.104c0,0 0.001,0.001 0.001,0.001c1.613,0.537 3.148,1.288 4.563,2.232c0.283,0.188 0.577,0.384 0.872,0.58c1.988,1.326 3.785,2.918 5.34,4.732c0.679,0.793 1.405,1.64 2.03,2.369c1.084,1.264 2.11,2.575 3.078,3.93c0.467,0.654 0.994,1.391 1.496,2.094c1.354,1.896 2.312,4.045 2.818,6.319c0.139,0.625 0.284,1.278 0.424,1.908c0.539,2.429 0.934,4.887 1.182,7.362c0,0 0,0 0,0.001c0.409,4.091 -0.442,8.209 -2.439,11.803c-0.395,0.712 -0.771,1.388 -1.084,1.951c-0.566,1.019 -1.158,2.023 -1.776,3.012c-0.714,1.143 -1.717,2.748 -2.549,4.079c-1.015,1.624 -1.953,3.296 -2.81,5.01c0,0 0,0 0,0c-1.138,2.277 -1.993,4.684 -2.545,7.169c-0.379,1.702 -0.79,3.554 -1.01,4.542c-0.106,0.478 -0.207,0.957 -0.303,1.437c-0.459,2.295 -1.856,9.28 -1.856,9.28c0,0 0.35,-0.393 0.903,-1.016c4.721,-5.311 9.92,-10.179 15.529,-14.542c0,0 0,0 0,0c0.379,-0.295 0.763,-0.581 1.153,-0.86c1.683,-1.202 6.415,-4.582 6.415,-4.582c0,0 3.263,-2.331 5.333,-3.809c1.111,-0.794 2.261,-1.53 3.445,-2.207c0.001,0 0.001,0 0.001,0c3.476,-1.987 7.087,-3.73 10.805,-5.217c0.14,-0.057 0.28,-0.113 0.419,-0.168c2.64,-1.056 5.458,-1.599 8.302,-1.599c0.296,0 0.57,0 0.809,0c0.567,0 1.111,0.225 1.513,0.627c0.122,0.122 0.252,0.252 0.383,0.383c0.6,0.6 0.785,1.501 0.47,2.29c-0.102,0.254 -0.212,0.53 -0.325,0.813c-0.769,1.921 -1.69,3.779 -2.755,5.554c0,0 0,0 0,0c-0.933,1.555 -1.903,3.088 -2.909,4.597c-0.49,0.735 -1.022,1.533 -1.468,2.202c-0.682,1.023 -1.38,2.034 -2.095,3.034c-0.128,0.18 -0.263,0.369 -0.404,0.567c-2.345,3.283 -4.958,6.367 -7.811,9.22c0,0 0,0 0,0c-0.475,0.475 -0.966,0.934 -1.472,1.377c-1.441,1.261 -4.577,4.005 -6.208,5.432c-0.689,0.603 -1.385,1.197 -2.088,1.783c-1.721,1.434 -4.945,4.121 -4.945,4.121c0,0 -0.96,0.8 -2.113,1.76c-2.59,2.159 -5.261,4.221 -8.005,6.181c-1.521,1.087 -2.882,2.059 -2.882,2.059c0,0 -3.141,2.244 -5.215,3.725c-1.19,0.85 -2.393,1.681 -3.61,2.492c-0.627,0.418 -1.175,0.783 -1.175,0.783l0,48.19c0,4.499 -0.858,8.956 -2.529,13.133c0,0 0,0.001 0,0.001c-0.98,2.448 -2.113,4.832 -3.394,7.137c-0.543,0.978 -1.125,2.025 -1.634,2.942c-0.953,1.715 -2.231,3.227 -3.763,4.453c-0.435,0.348 -0.877,0.701 -1.273,1.019c-0.369,0.295 -0.842,0.428 -1.311,0.368c-0.469,-0.059 -0.893,-0.306 -1.177,-0.684c-0.134,-0.179 -0.274,-0.365 -0.413,-0.551c-0.978,-1.303 -1.506,-2.889 -1.506,-4.518c0,-1.793 0,-4.245 0,-6.329c0,-2.771 0.162,-5.541 0.486,-8.294c0.279,-2.366 0.63,-5.352 0.924,-7.851c0.393,-3.343 0.905,-6.671 1.535,-9.977c1.183,-6.209 3.055,-16.039 3.055,-16.039l5,-28l-77,-35.5l38,-69.5"/>
            </clipPath>
            <g clip-path="url(#_clip2)">
                <path d="M214,82l78,0c0,0 -14.185,42.556 -19.775,59.324c-1.479,4.439 -3.406,8.716 -5.751,12.766c-3.217,5.557 -7.474,12.91 -7.474,12.91l-6,20l-77,-38.5l38,-66.5"/>
                <path d="M248,226l0,44l3,-2l0,-44l-3,2Z" style="fill:#fff;"/>
                <path d="M248,226l0,44l-9,0l8,-60l1,16Z" style="fill:#0c1421;"/>
            </g>
            <path d="M247,180c0,0 0,0 0,0c1.997,1.997 3.851,4.134 5.546,6.394c0.273,0.364 0.454,0.606 0.454,0.606l0,14.5c0,0 -1.79,2.014 -2.976,3.347c-0.682,0.768 -1.333,1.565 -1.949,2.387c0,0 0,0 0,0c-1.382,1.842 -2.892,3.583 -4.52,5.211l-4.976,4.976c-1.046,1.046 -2.253,1.916 -3.576,2.578c0,0 0,0 0,0c-1.333,0.666 -2.724,1.207 -4.156,1.616c-1.411,0.403 -3.167,0.905 -4.131,1.18c-0.477,0.137 -0.957,0.265 -1.439,0.386c-0.784,0.196 -2.099,0.524 -3.396,0.849c-2.578,0.644 -5.224,0.97 -7.881,0.97c0,0 0,0 0,0c-2.657,0 -5.303,-0.326 -7.881,-0.97c-0.845,-0.212 -1.698,-0.425 -2.407,-0.602c-1.141,-0.285 -2.271,-0.614 -3.386,-0.986c-0.873,-0.291 -1.983,-0.661 -3.074,-1.025c-2.831,-0.943 -5.592,-2.087 -8.26,-3.421c-0.168,-0.084 -0.336,-0.168 -0.503,-0.251c-2.317,-1.159 -4.484,-2.598 -6.451,-4.284c0,0 0,0 0,0c-2.688,-2.304 -5.195,-4.811 -7.499,-7.499c0,0 0,0 0,0c-1.686,-1.967 -3.125,-4.134 -4.284,-6.451c-1.077,-2.155 -2.255,-4.511 -2.255,-4.511l-4,-8l0,-25l83,0l0,18" style="fill:#0c1421;"/>
            <g>
                <path d="M255,144c0,0 0.278,-0.278 0.715,-0.715c3.508,-3.508 6.532,-7.468 8.994,-11.775c0,0 0,0 0,0c0.194,-0.34 0.379,-0.685 0.554,-1.035c0.203,-0.407 0.504,-1.01 0.834,-1.669c1.251,-2.503 1.903,-5.263 1.903,-8.061c0,0 0,0 0,-0.001c0,-0.495 -0.035,-0.99 -0.105,-1.481c-0.107,-0.75 -0.281,-1.965 -0.447,-3.125c-0.298,-2.088 -0.783,-4.144 -1.45,-6.145c0,0 0,0 0,0c-0.664,-1.99 -1.522,-3.911 -2.563,-5.732c-0.156,-0.272 -0.315,-0.55 -0.473,-0.828c-1.302,-2.279 -2.902,-4.373 -4.758,-6.229c0,0 0,0 0,0c-1.467,-1.467 -3.052,-2.81 -4.74,-4.016c-0.599,-0.427 -1.239,-0.884 -1.841,-1.314c-1.746,-1.248 -3.587,-2.356 -5.506,-3.316c0,0 0,0 -0.001,0c-3.364,-1.682 -7.075,-2.558 -10.836,-2.558c-1.287,0 -2.28,0 -2.28,0l-7,0l-6,0l-6.5,0l-6.5,0l0,58l48,0" style="fill:#fff;"/>
                <path d="M254.192,137c0,0 1.802,-1.862 3.399,-3.511c1.6,-1.653 2.986,-3.499 4.127,-5.496c0.183,-0.319 0.368,-0.644 0.551,-0.963c1.134,-1.986 1.731,-4.233 1.731,-6.52c0,0 0,0 0,0c0,-2.329 -0.325,-4.646 -0.964,-6.885c-0.039,-0.137 -0.078,-0.274 -0.117,-0.41c-0.611,-2.139 -1.42,-4.216 -2.414,-6.206c0,0 0,0 -0.001,0c-1,-2 -2.209,-3.889 -3.608,-5.634c-0.36,-0.449 -0.729,-0.91 -1.074,-1.341c-1.086,-1.354 -2.26,-2.635 -3.516,-3.834c-0.335,-0.319 -0.676,-0.645 -0.991,-0.945c-0.876,-0.836 -1.789,-1.634 -2.734,-2.391c-0.001,0 -0.001,0 -0.001,0c-2.374,-1.899 -5.014,-3.438 -7.837,-4.567c-0.117,-0.046 -0.223,-0.089 -0.316,-0.126c-0.285,-0.114 -0.572,-0.219 -0.863,-0.316c-0.013,-0.005 -0.026,-0.009 -0.039,-0.013c-1.672,-0.558 -3.424,-0.842 -5.186,-0.842c-6.991,0 -25.339,0 -25.339,0l0,50l45.192,0" style="fill:#1f2325;"/>
            </g>
        </g>
        <g id="face">
            <g>
                <path d="M170,159c0,0 1.714,3.771 3.135,6.897c1.241,2.731 2.701,5.357 4.365,7.853c0,0 0,0 0,0c1.664,2.496 3.528,4.852 5.575,7.045c0.237,0.254 0.477,0.511 0.715,0.766c2.131,2.283 4.551,4.277 7.199,5.932c0.306,0.192 0.613,0.383 0.912,0.57c2.062,1.289 4.235,2.391 6.492,3.294c0,0 0,0 0.001,0c4.378,1.752 8.998,2.827 13.7,3.189c0.656,0.05 1.304,0.1 1.916,0.147c2.656,0.204 5.324,0.196 7.978,-0.025c1.412,-0.118 2.991,-0.25 4.373,-0.365c2.42,-0.201 4.815,-0.639 7.151,-1.306c0,0 0,0 0,0c2.317,-0.662 4.546,-1.601 6.638,-2.797c0.441,-0.252 0.89,-0.509 1.318,-0.753c1.66,-0.949 3.049,-2.308 4.033,-3.948c0,0 0,0 0,0c0.997,-1.663 1.841,-3.412 2.522,-5.227c0.42,-1.12 0.895,-2.388 1.275,-3.4c0.468,-1.248 0.913,-2.504 1.334,-3.769c0.733,-2.198 1.935,-5.804 2.687,-8.061c0.454,-1.361 0.855,-2.738 1.203,-4.13c0,0 0,0 0,0c1.646,-6.583 2.478,-13.343 2.478,-20.129c0,-1.074 0,-1.783 0,-1.783c0,0 0,-2.917 0,-6.088c0,-5.24 -0.845,-10.446 -2.502,-15.418c0,0 0,0 0,0c-0.996,-2.987 -2.315,-5.856 -3.935,-8.556c-0.187,-0.312 -0.377,-0.628 -0.567,-0.944c-1.981,-3.303 -4.536,-6.226 -7.543,-8.632c-0.247,-0.197 -0.496,-0.396 -0.743,-0.594c-3.131,-2.505 -6.518,-4.672 -10.105,-6.466c-0.321,-0.16 -0.64,-0.32 -0.952,-0.475c-2.424,-1.213 -5,-2.096 -7.658,-2.628c-1.208,-0.242 -2.497,-0.499 -3.569,-0.714c-1.614,-0.323 -3.255,-0.485 -4.9,-0.485c-2.349,0 -5.526,0 -5.526,0l-12,1l-13,14l-8,14l-3,16l-3,26" style="fill:#2d3338;"/>
                <path d="M170,159c0,0 1.714,3.771 3.135,6.897c1.241,2.731 2.701,5.357 4.365,7.853c0,0 0,0 0,0c1.664,2.496 3.528,4.852 5.575,7.045c0.237,0.254 0.477,0.511 0.715,0.766c2.131,2.283 4.551,4.277 7.199,5.932c0.306,0.192 0.613,0.383 0.912,0.57c2.062,1.289 4.235,2.391 6.492,3.294c0,0 0,0 0.001,0c4.378,1.752 8.998,2.827 13.7,3.189c0.656,0.05 1.304,0.1 1.916,0.147c2.656,0.204 5.324,0.196 7.978,-0.025c1.412,-0.118 2.991,-0.25 4.373,-0.365c2.42,-0.201 4.815,-0.639 7.151,-1.306c0,0 0,0 0,0c2.317,-0.662 4.546,-1.601 6.638,-2.797c0.441,-0.252 0.89,-0.509 1.318,-0.753c1.66,-0.949 3.049,-2.308 4.033,-3.948c0,0 0,0 0,0c0.997,-1.663 1.841,-3.412 2.522,-5.227c0.42,-1.12 0.895,-2.388 1.275,-3.4c0.468,-1.248 0.913,-2.504 1.334,-3.769c0.733,-2.198 1.935,-5.804 2.687,-8.061c0.454,-1.361 0.855,-2.738 1.203,-4.13c0.172,-0.689 0.375,-1.499 0.589,-2.355c1.255,-5.019 1.889,-10.173 1.889,-15.347c0,0 0,0 0,0c0,-2.794 -0.371,-5.576 -1.104,-8.273c-0.143,-0.526 -0.29,-1.069 -0.436,-1.604c-0.837,-3.08 -2.285,-5.961 -4.259,-8.47c0,0 0,0 0,0c-3.29,-4.184 -7.439,-7.613 -12.166,-10.059c-2.181,-1.128 -4.013,-2.076 -4.013,-2.076c0,0 -18.111,-1.345 -27.674,-2.055c-3.783,-0.281 -7.577,0.365 -11.055,1.881c0,0 0,0 0,0c-3.496,1.523 -6.739,3.57 -9.619,6.069c-0.622,0.539 -1.248,1.082 -1.833,1.59c-1.958,1.699 -3.794,3.533 -5.495,5.489c-2.63,3.024 -6.346,7.298 -6.346,7.298l-3,26" style="fill:#fff;"/>
            </g>
            <path id="mouse" d="M224,144l-31,13c0,0 4.454,1.909 9.81,4.204c12.002,5.144 24.923,7.796 37.98,7.796c0.913,0 1.456,0 1.456,0l-18.246,-25" style="fill:#fbce08;"/>
            <g id="left-eye">
                <path d="M204,132l1,-4c0,0 0.163,-0.712 0.331,-1.443c0.237,-1.036 0.571,-2.047 0.997,-3.021c0.021,-0.047 0.042,-0.095 0.062,-0.142c0.371,-0.847 1.207,-1.394 2.131,-1.394c0.002,0 0.003,0 0.005,0c0.391,0 0.766,0.155 1.042,0.432c0.277,0.276 0.432,0.651 0.432,1.042c0,0 0,0.001 0,0.001c0,1.01 -0.163,2.014 -0.482,2.972c-0.025,0.073 -0.049,0.147 -0.074,0.22c-0.292,0.877 -0.784,1.673 -1.437,2.326c0,0 0,0 0,0c-0.67,0.67 -1.404,1.271 -2.191,1.797c-0.839,0.559 -1.816,1.21 -1.816,1.21"/>
                <path d="M202.373,130.129c2.554,0.685 3.922,3.871 3.054,7.111c-0.868,3.24 -3.646,5.315 -6.2,4.631c-2.553,-0.685 -3.922,-3.871 -3.054,-7.111c0.869,-3.24 3.647,-5.315 6.2,-4.631Z"/>
            </g>
            <g id="right-eye">
                <path d="M245.808,140.883l2.001,-3.605c0,0 0.342,-0.646 0.693,-1.308c0.498,-0.939 1.082,-1.83 1.746,-2.66c0.032,-0.041 0.064,-0.081 0.096,-0.121c0.577,-0.722 1.527,-1.034 2.42,-0.795c0.001,0 0.003,0.001 0.004,0.001c0.378,0.101 0.7,0.348 0.895,0.687c0.196,0.338 0.249,0.741 0.147,1.118c0,0.001 0,0.001 0,0.001c-0.261,0.976 -0.678,1.903 -1.235,2.746c-0.043,0.065 -0.086,0.13 -0.128,0.194c-0.509,0.771 -1.19,1.413 -1.99,1.874c0,0.001 -0.001,0.001 -0.001,0.001c-0.82,0.473 -1.684,0.864 -2.581,1.168c-0.955,0.323 -2.067,0.699 -2.067,0.699"/>
                <path d="M244.685,139.129c2.554,0.685 3.922,3.871 3.054,7.111c-0.868,3.24 -3.646,5.315 -6.2,4.631c-2.553,-0.685 -3.922,-3.871 -3.054,-7.111c0.869,-3.24 3.647,-5.315 6.2,-4.631Z"/>
            </g>
            <g id="speaker">
                <path d="M224.559,97.223c8.527,-0.972 16.388,6.477 17.544,16.622c1.156,10.146 -4.828,19.172 -13.355,20.144c-8.527,0.971 -16.388,-6.477 -17.544,-16.623c-1.156,-10.146 4.828,-19.172 13.355,-20.143Z" style="fill:#ffff38;"/>
                <path d="M225.476,108.053c3.153,-0.359 6.068,2.467 6.505,6.307c0.438,3.84 -1.767,7.25 -4.92,7.609c-3.153,0.359 -6.068,-2.467 -6.506,-6.307c-0.437,-3.84 1.767,-7.25 4.921,-7.609Z" style="fill:#0c1421;"/>
            </g>
            <g id="workspace">
                <path d="M188,88c0,0 -0.537,-0.537 -1.29,-1.29c-3.133,-3.133 -5.973,-6.547 -8.484,-10.199c0,0 0,0 0,0c-1.15,-1.673 -2.216,-3.402 -3.194,-5.18c-0.915,-1.664 -2.074,-3.77 -2.914,-5.298c-0.745,-1.355 -1.464,-2.725 -2.156,-4.108c-0.823,-1.647 -1.998,-3.996 -2.997,-5.996c-1.31,-2.618 -2.509,-5.29 -3.597,-8.008c-0.249,-0.623 -0.506,-1.265 -0.754,-1.887c-1.075,-2.688 -2.012,-5.428 -2.808,-8.211c0,0 0,-0.001 0,-0.001c-0.537,-1.88 -0.998,-3.782 -1.382,-5.7c-0.059,-0.298 -0.117,-0.587 -0.17,-0.853c-0.169,-0.846 -0.325,-1.695 -0.467,-2.546c-0.293,-1.762 -0.787,-4.723 -0.787,-4.723c0,0 1.081,0.721 2.326,1.551c2.443,1.629 4.72,3.495 6.796,5.571c0,0 0,0 0,0c1.911,1.911 3.567,4.059 4.928,6.393c0.625,1.07 1.196,2.05 1.385,2.373c0.043,0.075 0.086,0.149 0.129,0.224c0.514,0.899 3.936,6.888 3.936,6.888l-0.5,-7c0,0 -0.247,-2.222 -0.495,-4.458c-0.337,-3.026 -0.505,-6.068 -0.505,-9.112c0,-0.106 0,-0.213 0,-0.319c0,-3.395 0.416,-6.776 1.24,-10.069c0,0 0,0 0,0c0.173,-0.693 0.421,-1.364 0.74,-2.003c0.222,-0.443 0.479,-0.958 0.68,-1.36c0.227,-0.452 0.468,-0.898 0.723,-1.335c0.103,-0.176 0.22,-0.376 0.34,-0.582c0.686,-1.173 1.471,-2.283 2.348,-3.32c0.273,-0.323 0.48,-0.568 0.48,-0.568c0,0 1.716,1.027 2.627,1.572c0.368,0.22 0.73,0.452 1.083,0.696c0,0 0,0 0,0c1.26,0.867 2.462,1.815 3.601,2.836c0.276,0.248 0.537,0.482 0.739,0.664c0.266,0.239 0.525,0.484 0.778,0.737c0.342,0.342 0.867,0.867 1.356,1.356c0.838,0.838 1.535,1.805 2.065,2.865c0.169,0.338 0.346,0.692 0.51,1.021c0.46,0.918 0.853,1.868 1.178,2.842c0,0 0,0 0,0c1.007,3.022 1.825,6.103 2.45,9.227c0.037,0.186 0.074,0.372 0.112,0.558c0.633,3.166 1.111,6.361 1.432,9.574c0.136,1.361 0.274,2.74 0.373,3.732c0.097,0.964 0.214,1.926 0.35,2.884c0.293,2.049 0.795,5.562 0.795,5.562c0,0 0.709,-1.655 1.438,-3.356c1.04,-2.427 2.243,-4.78 3.602,-7.044c0.532,-0.887 0.96,-1.6 0.96,-1.6c0,0 1.382,-2.304 2.27,-3.784c0.487,-0.81 0.992,-1.61 1.517,-2.396c1.165,-1.748 3.213,-4.82 3.213,-4.82c0,0 0.136,1.358 0.307,3.074c0.461,4.606 0.461,9.246 0,13.852c0,0 0,0 0,0c-0.204,2.048 -0.531,4.081 -0.977,6.09c-0.092,0.415 -0.189,0.848 -0.286,1.285c-0.695,3.129 -1.609,6.205 -2.734,9.206c-0.257,0.686 -0.507,1.351 -0.718,1.914c-0.395,1.052 -0.814,2.096 -1.256,3.129c-0.45,1.048 -1.046,2.439 -1.523,3.554c-0.542,1.264 -1.121,2.511 -1.736,3.741c-0.154,0.308 -0.317,0.635 -0.482,0.965c-1.062,2.125 -2.256,4.181 -3.573,6.157c-0.014,0.022 -0.022,0.033 -0.022,0.033l-13,5" style="fill:#f89610;"/>
            </g>
        </g>
        <path d="M114,83c0,0 2.433,0.912 4.616,1.731c2.215,0.83 4.164,2.244 5.642,4.092c0,0 0,0 0,0c3.821,4.775 7.215,9.877 10.143,15.246c0.911,1.669 1.599,2.931 1.599,2.931c0,0 1.765,2.941 3.38,5.634c1.745,2.908 3.311,5.92 4.688,9.019c0,0 0,0 0,0c1.287,2.896 2.399,5.865 3.331,8.893c1.153,3.749 2.601,8.454 2.601,8.454c0,0 2.552,-7.656 3.579,-10.737c0.281,-0.842 0.551,-1.687 0.812,-2.535c0.321,-1.041 0.802,-2.606 1.31,-4.257c1.531,-4.975 3.393,-9.842 5.575,-14.568c0.168,-0.364 0.335,-0.726 0.498,-1.081c1.477,-3.198 3.404,-6.168 5.723,-8.819c0,0 0,0 0,0c2.33,-2.663 4.909,-5.097 7.702,-7.269c0.423,-0.329 0.85,-0.661 1.266,-0.985c2.351,-1.828 4.877,-3.42 7.54,-4.752c0.001,0 0.001,0 0.001,0c2.627,-1.313 5.523,-1.997 8.459,-1.997l18.572,0c1.975,0 3.95,0.055 5.922,0.164c5.108,0.284 15.041,0.836 15.041,0.836c0,0 -6.582,1.567 -12.376,2.947c-5.73,1.364 -11.285,3.383 -16.553,6.018c-0.001,0 -0.001,0 -0.001,0c-5.262,2.631 -9.628,6.761 -12.547,11.869c-0.594,1.04 -1.173,2.054 -1.686,2.951c-1.223,2.14 -2.272,4.375 -3.137,6.682c-0.509,1.357 -1.115,2.974 -1.721,4.588c-1.981,5.284 -3.446,10.748 -4.374,16.315c-0.117,0.703 -0.235,1.411 -0.351,2.107c-0.835,5.012 -1.924,9.979 -3.261,14.881c0,0 0,0 0,0c-0.662,2.428 -1.391,4.836 -2.187,7.223l-9.171,27.514c-0.423,1.27 -0.822,2.548 -1.197,3.833c-0.848,2.908 -2.401,8.231 -2.827,9.692c-0.074,0.253 -0.15,0.506 -0.229,0.758c0,0 0,0 0,0c-1.584,5.068 -3.681,9.961 -6.26,14.603c-0.652,1.173 -1.122,2.019 -1.122,2.019l-5,10c0,0 -0.96,1.92 -2.039,4.077c-1.971,3.943 -4.248,7.725 -6.81,11.312c0,0 0,0 0,0c-0.759,1.063 -1.729,1.958 -2.849,2.63c-0.493,0.296 -1.033,0.62 -1.531,0.918c-1.019,0.612 -2.332,0.389 -3.093,-0.524c-0.001,0 -0.001,-0.001 -0.002,-0.001c-2.415,-2.899 -4.103,-6.334 -4.922,-10.018c-0.271,-1.22 -0.516,-2.324 -0.649,-2.923c-0.07,-0.314 -0.137,-0.629 -0.2,-0.944c0,0 0,0 0,0c-1.267,-6.336 -1.905,-12.781 -1.905,-19.243c0,-0.707 0,-1.386 0,-2.007c0,-2.184 0.084,-4.367 0.251,-6.544c0.031,-0.396 0.063,-0.813 0.096,-1.243c0.433,-5.634 1.632,-11.182 3.563,-16.493c0,0 0,0 0,0c0.726,-1.996 1.566,-3.949 2.516,-5.85c0.4,-0.8 0.834,-1.667 1.229,-2.457c0.894,-1.787 1.991,-3.465 3.27,-5c1.409,-1.691 3.075,-3.69 3.075,-3.69c0,0 -0.572,-0.954 -1.363,-2.272c-3.089,-5.148 -5.898,-10.459 -8.414,-15.911c-0.438,-0.949 -0.852,-1.846 -1.202,-2.604c-0.681,-1.475 -1.341,-2.96 -1.981,-4.453c-0.922,-2.152 -2.333,-5.443 -3.427,-7.996c-1.074,-2.507 -2.006,-5.073 -2.79,-7.686c0,0 0,0 0,0c-1.214,-4.046 -2.123,-8.178 -2.72,-12.36c-0.266,-1.859 -0.541,-3.786 -0.75,-5.25c-0.235,-1.645 -0.445,-3.294 -0.628,-4.946c-0.257,-2.314 -0.615,-5.528 -0.704,-6.333c-0.014,-0.126 -0.029,-0.252 -0.045,-0.378c0,0 0,0 0,0c-0.648,-5.187 -0.648,-10.435 0,-15.622c0.016,-0.122 0.024,-0.189 0.024,-0.189" style="fill:#404444;"/>
        <clipPath id="_clip3">
            <path d="M114,83c0,0 2.433,0.912 4.616,1.731c2.215,0.83 4.164,2.244 5.642,4.092c0,0 0,0 0,0c3.821,4.775 7.215,9.877 10.143,15.246c0.911,1.669 1.599,2.931 1.599,2.931c0,0 1.765,2.941 3.38,5.634c1.745,2.908 3.311,5.92 4.688,9.019c0,0 0,0 0,0c1.287,2.896 2.399,5.865 3.331,8.893c1.153,3.749 2.601,8.454 2.601,8.454c0,0 2.552,-7.656 3.579,-10.737c0.281,-0.842 0.551,-1.687 0.812,-2.535c0.321,-1.041 0.802,-2.606 1.31,-4.257c1.531,-4.975 3.393,-9.842 5.575,-14.568c0.168,-0.364 0.335,-0.726 0.498,-1.081c1.477,-3.198 3.404,-6.168 5.723,-8.819c0,0 0,0 0,0c2.33,-2.663 4.909,-5.097 7.702,-7.269c0.423,-0.329 0.85,-0.661 1.266,-0.985c2.351,-1.828 4.877,-3.42 7.54,-4.752c0.001,0 0.001,0 0.001,0c2.627,-1.313 5.523,-1.997 8.459,-1.997l18.572,0c1.975,0 3.95,0.055 5.922,0.164c5.108,0.284 15.041,0.836 15.041,0.836c0,0 -6.582,1.567 -12.376,2.947c-5.73,1.364 -11.285,3.383 -16.553,6.018c-0.001,0 -0.001,0 -0.001,0c-5.262,2.631 -9.628,6.761 -12.547,11.869c-0.594,1.04 -1.173,2.054 -1.686,2.951c-1.223,2.14 -2.272,4.375 -3.137,6.682c-0.509,1.357 -1.115,2.974 -1.721,4.588c-1.981,5.284 -3.446,10.748 -4.374,16.315c-0.117,0.703 -0.235,1.411 -0.351,2.107c-0.835,5.012 -1.924,9.979 -3.261,14.881c0,0 0,0 0,0c-0.662,2.428 -1.391,4.836 -2.187,7.223l-9.171,27.514c-0.423,1.27 -0.822,2.548 -1.197,3.833c-0.848,2.908 -2.401,8.231 -2.827,9.692c-0.074,0.253 -0.15,0.506 -0.229,0.758c0,0 0,0 0,0c-1.584,5.068 -3.681,9.961 -6.26,14.603c-0.652,1.173 -1.122,2.019 -1.122,2.019l-5,10c0,0 -0.96,1.92 -2.039,4.077c-1.971,3.943 -4.248,7.725 -6.81,11.312c0,0 0,0 0,0c-0.759,1.063 -1.729,1.958 -2.849,2.63c-0.493,0.296 -1.033,0.62 -1.531,0.918c-1.019,0.612 -2.332,0.389 -3.093,-0.524c-0.001,0 -0.001,-0.001 -0.002,-0.001c-2.415,-2.899 -4.103,-6.334 -4.922,-10.018c-0.271,-1.22 -0.516,-2.324 -0.649,-2.923c-0.07,-0.314 -0.137,-0.629 -0.2,-0.944c0,0 0,0 0,0c-1.267,-6.336 -1.905,-12.781 -1.905,-19.243c0,-0.707 0,-1.386 0,-2.007c0,-2.184 0.084,-4.367 0.251,-6.544c0.031,-0.396 0.063,-0.813 0.096,-1.243c0.433,-5.634 1.632,-11.182 3.563,-16.493c0,0 0,0 0,0c0.726,-1.996 1.566,-3.949 2.516,-5.85c0.4,-0.8 0.834,-1.667 1.229,-2.457c0.894,-1.787 1.991,-3.465 3.27,-5c1.409,-1.691 3.075,-3.69 3.075,-3.69c0,0 -0.572,-0.954 -1.363,-2.272c-3.089,-5.148 -5.898,-10.459 -8.414,-15.911c-0.438,-0.949 -0.852,-1.846 -1.202,-2.604c-0.681,-1.475 -1.341,-2.96 -1.981,-4.453c-0.922,-2.152 -2.333,-5.443 -3.427,-7.996c-1.074,-2.507 -2.006,-5.073 -2.79,-7.686c0,0 0,0 0,0c-1.214,-4.046 -2.123,-8.178 -2.72,-12.36c-0.266,-1.859 -0.541,-3.786 -0.75,-5.25c-0.235,-1.645 -0.445,-3.294 -0.628,-4.946c-0.257,-2.314 -0.615,-5.528 -0.704,-6.333c-0.014,-0.126 -0.029,-0.252 -0.045,-0.378c0,0 0,0 0,0c-0.648,-5.187 -0.648,-10.435 0,-15.622c0.016,-0.122 0.024,-0.189 0.024,-0.189"/>
        </clipPath>
        <g clip-path="url(#_clip3)">
            <path d="M152,198c0,0 -0.405,0.708 -0.85,1.487c-0.766,1.342 -1.579,2.656 -2.436,3.942c0,0 0,0 0,0c-1.142,1.713 -2.225,3.466 -3.247,5.254c-1.129,1.975 -2.467,4.317 -2.467,4.317c0,0 -1.165,2.04 -2.238,3.917c-1.174,2.055 -2.419,4.068 -3.732,6.038c0,0 0,0 0,0c-1.353,2.029 -2.793,3.999 -4.316,5.903c-0.896,1.12 -1.714,2.142 -1.714,2.142l-4,5l-3,0l0,9c0,0 1.67,-1.336 3.08,-2.464c1.279,-1.023 2.501,-2.117 3.659,-3.275c0,0 0,0 0,0c1.506,-1.506 2.928,-3.095 4.259,-4.758c0.486,-0.608 0.972,-1.215 1.343,-1.68c0.439,-0.549 0.87,-1.104 1.291,-1.666c0.28,-0.372 0.62,-0.826 0.954,-1.272c0.942,-1.256 1.85,-2.539 2.721,-3.846c0.5,-0.749 1.065,-1.597 1.548,-2.322c0.763,-1.144 1.499,-2.307 2.207,-3.487l4.059,-6.765c0.586,-0.976 1.134,-1.975 1.643,-2.993c0,0 0,0 0,0c0.824,-1.647 1.578,-3.328 2.262,-5.038c0.136,-0.338 0.27,-0.674 0.394,-0.985c0.387,-0.965 0.813,-1.915 1.278,-2.845c0.169,-0.338 0.302,-0.604 0.302,-0.604l-3,-3" style="fill:#fff;"/>
            <path d="M129,241c0,0 0.08,-0.08 0.218,-0.218c2.519,-2.519 4.898,-5.176 7.123,-7.959c0,0 0,0 0,0c0.439,-0.549 0.87,-1.104 1.291,-1.666c0.28,-0.372 0.62,-0.826 0.954,-1.272c0.942,-1.256 1.85,-2.539 2.721,-3.846c0.5,-0.749 1.065,-1.597 1.548,-2.322c0.763,-1.144 1.499,-2.307 2.207,-3.487l4.059,-6.765c0.586,-0.976 1.134,-1.975 1.643,-2.993c0,0 0,0 0,0c0.824,-1.647 1.578,-3.328 2.262,-5.038c0.136,-0.338 0.27,-0.674 0.394,-0.985c0.387,-0.965 0.813,-1.915 1.278,-2.845c0.169,-0.338 0.302,-0.604 0.302,-0.604l10,-10l0,56l-36,0l0,-6" style="fill:#0c1421;"/>
        </g>
        <g id="Air-bar">
            <path d="M252.339,182.297c0.436,-2.838 1.421,-5.563 2.898,-8.025c0,-0.001 0.001,-0.002 0.001,-0.002c0.183,-0.306 0.497,-0.51 0.85,-0.553c0.354,-0.043 0.707,0.078 0.959,0.33c0.145,0.145 0.295,0.295 0.446,0.446c0.965,0.965 1.507,2.273 1.507,3.638c0,0.546 0,1.144 0,1.729c0,2.093 -0.08,4.184 -0.241,6.27c-0.263,3.427 -0.66,8.58 -0.743,9.665c-0.011,0.137 -0.021,0.273 -0.03,0.41c-0.063,0.95 -0.334,5.022 -0.577,8.655c-0.272,4.085 -0.909,8.138 -1.902,12.11c0,0 0,0 0,0c-0.337,1.349 -0.821,2.657 -1.443,3.901c-0.022,0.045 -0.044,0.089 -0.066,0.134c-0.661,1.321 -1.531,2.528 -2.576,3.573c-0.562,0.562 -1.17,1.17 -1.637,1.637c-0.469,0.469 -1.185,0.585 -1.778,0.289c0,-0.001 -0.001,-0.001 -0.001,-0.001c-0.617,-0.308 -1.006,-0.938 -1.006,-1.628c0,-0.834 0,-1.991 0,-2.968c0,-1.27 0.07,-2.54 0.211,-3.802c0.262,-2.363 0.687,-6.187 0.773,-6.964c0.011,-0.094 0.021,-0.188 0.031,-0.282c0.082,-0.781 0.488,-4.638 0.752,-7.15c0.155,-1.472 0.372,-2.937 0.649,-4.391c0.134,-0.706 0.29,-1.526 0.451,-2.371c0.755,-3.964 1.44,-7.942 2.054,-11.93c0.141,-0.918 0.284,-1.849 0.418,-2.72Z" style="fill:#fff;"/>
            <clipPath id="_clip4">
                <path d="M252.339,182.297c0.436,-2.838 1.421,-5.563 2.898,-8.025c0,-0.001 0.001,-0.002 0.001,-0.002c0.183,-0.306 0.497,-0.51 0.85,-0.553c0.354,-0.043 0.707,0.078 0.959,0.33c0.145,0.145 0.295,0.295 0.446,0.446c0.965,0.965 1.507,2.273 1.507,3.638c0,0.546 0,1.144 0,1.729c0,2.093 -0.08,4.184 -0.241,6.27c-0.263,3.427 -0.66,8.58 -0.743,9.665c-0.011,0.137 -0.021,0.273 -0.03,0.41c-0.063,0.95 -0.334,5.022 -0.577,8.655c-0.272,4.085 -0.909,8.138 -1.902,12.11c0,0 0,0 0,0c-0.337,1.349 -0.821,2.657 -1.443,3.901c-0.022,0.045 -0.044,0.089 -0.066,0.134c-0.661,1.321 -1.531,2.528 -2.576,3.573c-0.562,0.562 -1.17,1.17 -1.637,1.637c-0.469,0.469 -1.185,0.585 -1.778,0.289c0,-0.001 -0.001,-0.001 -0.001,-0.001c-0.617,-0.308 -1.006,-0.938 -1.006,-1.628c0,-0.834 0,-1.991 0,-2.968c0,-1.27 0.07,-2.54 0.211,-3.802c0.262,-2.363 0.687,-6.187 0.773,-6.964c0.011,-0.094 0.021,-0.188 0.031,-0.282c0.082,-0.781 0.488,-4.638 0.752,-7.15c0.155,-1.472 0.372,-2.937 0.649,-4.391c0.134,-0.706 0.29,-1.526 0.451,-2.371c0.755,-3.964 1.44,-7.942 2.054,-11.93c0.141,-0.918 0.284,-1.849 0.418,-2.72Z"/>
            </clipPath>
            <g clip-path="url(#_clip4)">
                <path d="M251,182c0,0 0,0 0,0c3.017,1.81 4.62,5.281 4.041,8.752c-0.933,5.598 -2.336,14.016 -3.219,19.317c-0.528,3.165 -2.254,6.005 -4.822,7.931c0,0 0,0 0,0l-1,-4l5,-32" style="fill:#00ffb5;"/>
            </g>
            <path d="M166.04,152.568c1.154,-0.923 2.786,-0.949 3.968,-0.062c0,0 0.001,0.001 0.001,0.001c1.275,0.956 2.118,2.379 2.343,3.957c0.069,0.481 0.141,0.99 0.213,1.488c0.287,2.013 0.181,4.063 -0.312,6.035c-0.047,0.189 -0.09,0.361 -0.127,0.509c-0.084,0.336 -0.179,0.669 -0.286,0.999c-1.103,3.419 -7.604,23.572 -9.387,29.102c-0.302,0.934 -0.673,1.844 -1.112,2.721c-0.215,0.43 -0.454,0.908 -0.67,1.339c-0.44,0.88 -1.102,1.63 -1.92,2.176c-0.369,0.246 -0.793,0.528 -1.232,0.821c-0.91,0.607 -2.032,0.809 -3.097,0.557c-1.065,-0.251 -1.978,-0.933 -2.52,-1.883c-0.148,-0.258 -0.294,-0.514 -0.437,-0.764c-0.973,-1.703 -1.737,-3.517 -2.276,-5.404c0,0 0,0 -0.001,0c-0.773,-2.706 -0.682,-5.585 0.259,-8.237c2.017,-5.685 5.67,-15.979 7.827,-22.058c1.136,-3.203 2.973,-6.112 5.376,-8.515c0,0 0,0 0.001,-0.001c0.232,-0.232 0.478,-0.452 0.735,-0.658c0.568,-0.454 1.67,-1.336 2.654,-2.123Z" style="fill:#fff;"/>
            <clipPath id="_clip5">
                <path d="M166.04,152.568c1.154,-0.923 2.786,-0.949 3.968,-0.062c0,0 0.001,0.001 0.001,0.001c1.275,0.956 2.118,2.379 2.343,3.957c0.069,0.481 0.141,0.99 0.213,1.488c0.287,2.013 0.181,4.063 -0.312,6.035c-0.047,0.189 -0.09,0.361 -0.127,0.509c-0.084,0.336 -0.179,0.669 -0.286,0.999c-1.103,3.419 -7.604,23.572 -9.387,29.102c-0.302,0.934 -0.673,1.844 -1.112,2.721c-0.215,0.43 -0.454,0.908 -0.67,1.339c-0.44,0.88 -1.102,1.63 -1.92,2.176c-0.369,0.246 -0.793,0.528 -1.232,0.821c-0.91,0.607 -2.032,0.809 -3.097,0.557c-1.065,-0.251 -1.978,-0.933 -2.52,-1.883c-0.148,-0.258 -0.294,-0.514 -0.437,-0.764c-0.973,-1.703 -1.737,-3.517 -2.276,-5.404c0,0 0,0 -0.001,0c-0.773,-2.706 -0.682,-5.585 0.259,-8.237c2.017,-5.685 5.67,-15.979 7.827,-22.058c1.136,-3.203 2.973,-6.112 5.376,-8.515c0,0 0,0 0.001,-0.001c0.232,-0.232 0.478,-0.452 0.735,-0.658c0.568,-0.454 1.67,-1.336 2.654,-2.123Z"/>
            </clipPath>
            <g clip-path="url(#_clip5)">
                <path d="M172.999,164c-2.973,0 -5.6,1.935 -6.481,4.775c-1.746,5.627 -4.618,14.881 -6.261,20.174c-0.773,2.491 -0.102,5.206 1.742,7.05c0.001,0.001 0.001,0.001 0.001,0.001l11,-32c0,0 0,0 -0.001,0Z" style="fill:#00ffb5;"/>
            </g>
        </g>
    </g>
</svg>
